G04 Layer_Color=16711935*
%FSLAX25Y25*%
%MOIN*%
G70*
G01*
G75*
%ADD46C,0.01000*%
%ADD50C,0.02000*%
D46*
X15000Y57500D02*
Y142500D01*
Y57500D02*
X270000D01*
Y142500D01*
X15000D02*
X270000D01*
D50*
X725945Y41564D02*
Y31567D01*
X730943D01*
X732609Y33233D01*
Y34899D01*
X730943Y36565D01*
X725945D01*
X730943D01*
X732609Y38231D01*
Y39898D01*
X730943Y41564D01*
X725945D01*
X737608Y31567D02*
X740940D01*
X742606Y33233D01*
Y36565D01*
X740940Y38231D01*
X737608D01*
X735942Y36565D01*
Y33233D01*
X737608Y31567D01*
X747605Y38231D02*
X750937D01*
X752603Y36565D01*
Y31567D01*
X747605D01*
X745938Y33233D01*
X747605Y34899D01*
X752603D01*
X755935Y38231D02*
Y31567D01*
Y34899D01*
X757601Y36565D01*
X759268Y38231D01*
X760934D01*
X772597Y41564D02*
Y31567D01*
X767598D01*
X765932Y33233D01*
Y36565D01*
X767598Y38231D01*
X772597D01*
X790924Y41564D02*
X787592D01*
X785925Y39898D01*
Y33233D01*
X787592Y31567D01*
X790924D01*
X792590Y33233D01*
Y39898D01*
X790924Y41564D01*
X795922Y38231D02*
Y33233D01*
X797588Y31567D01*
X802587D01*
Y38231D01*
X807585Y39898D02*
Y38231D01*
X805919D01*
X809251D01*
X807585D01*
Y33233D01*
X809251Y31567D01*
X814250D02*
X817582D01*
X815916D01*
Y41564D01*
X814250D01*
X822580Y31567D02*
X825913D01*
X824247D01*
Y38231D01*
X822580D01*
X830911Y31567D02*
Y38231D01*
X835909D01*
X837576Y36565D01*
Y31567D01*
X845906D02*
X842574D01*
X840908Y33233D01*
Y36565D01*
X842574Y38231D01*
X845906D01*
X847572Y36565D01*
Y34899D01*
X840908D01*
M02*
