M48
;Layer_Color=9474304
;FILE_FORMAT=2:5
INCH,LZ
;TYPE=PLATED
T2F00S00C0.01200
T3F00S00C0.01900
T4F00S00C0.01968
%
T02
X0018Y0062
Y0069
Y0076
Y0083
Y00865
X0022
Y0083
Y0113
Y01165
X0018
Y0113
X00285Y01145
X00315
Y011
X00285
X0042Y0111
X0046
X00505Y0112
Y0115
X0053Y0118
X0055Y0123
X0058
X00625Y0116
X006Y0104
Y0101
X00645Y0097
X00635Y0093
X0075Y00955
X0079Y00875
Y00725
X0082Y00735
X0085
X00885
X00875Y00665
X00885Y00595
X0095
X01025
Y00735
X01145Y0069
Y00625
X0121Y00635
Y0069
X01235Y00795
X01195Y0082
X01155Y0079
X01145Y00955
X011811Y0098484
X01195Y00925
X01285
X01335
X01375
X0141Y00965
X013
X01305Y01
Y0103
X0136976Y010361
X01355Y01135
X0135039Y011811
X0138976
X0147Y01185
X0153
X0154Y0115
X0148819Y0113386
X01525Y0106
Y0103
X0151Y00925
X0145827Y0081653
X01415Y008
X0134016
X0147516Y0075
X01535Y0062
X01315
X01655Y0079
X0167Y00915
X0169Y0114
X0174Y01155
Y0122
X0172Y01285
Y0133
X0169Y01305
Y01355
X0153Y01315
X01465Y01325
X0146457Y0129134
X01485Y01355
X0124Y0132
X01225Y01275
X01235Y01145
X01205Y0112
X0117Y01105
Y0106
X011Y01
X0094Y00995
Y00965
X009Y01265
X00865
X0082
X00765
X00735
X0091Y0138
X00935
X0096
X00985
X0101
X01035
X01095Y0119
X01135
X016Y01185
X0046Y0123
X0042
X00275Y0131
Y0136
X00285Y009
X00315
Y00855
X00285
X0031Y0076
X0035
Y0069
X0031
Y0062
X0035
X0048
Y0069
Y0076
X00525Y00725
X0057Y00735
X0061
X006Y00665
X0061Y00595
X00675
X0075
Y00735
X00715
X00425Y00835
X004Y0085
X00415Y0097
X00475
X01825Y0102
X01855
X0189
X01925
X0205Y0104
X02085
Y0108
X0207862Y0111138
X02115Y0111
X0213Y0115
X0217Y01225
X02215Y0118
X02265Y0122
X0228Y0125
X0226Y01275
X0228Y01315
X02285Y01353
X02315Y01345
X0235Y01352
X0239Y0135
X0236Y0127
X0244
X02485Y0128
Y01245
X0246Y0121
X0241
X0232Y01215
X02325Y01175
X023Y0113
Y01085
X02265Y0107
Y0103
X0234154Y01005
X02345Y0106
X0244
X0243Y0111
X0240846Y01005
X02415Y00955
X0234Y00915
Y00885
X02285Y00905
X02215Y0096
X02125
X02095Y00975
Y00945
Y0091
Y0088
Y00785
Y00755
Y00725
Y0062
X0223Y0063
X0235Y0061
X025
X02545Y0086
X0262
X0268
X02675Y0114
X02615
X0255
X02675Y0121
Y01245
X0259Y013
X025Y01385
X02245Y01355
X02205Y01395
X02115Y01405
X0207Y01325
Y01225
X0203Y01185
X0212Y01275
X0217Y01325
X0201Y0137
X0198
X0181Y01365
X0187Y01125
X0197Y0091
X0198Y0068
X0195
X0192
X01885
X01855
X01825
X01795
T03
X00365Y009
Y0095
Y01
Y0105
Y011
T04
X0055158Y01325
X0060079
X0065
X008
X0084921
X0089842
X0094764
X0099685
X0125118Y00675
X0130039
X0134961
X0139882
X0144803
M30
