G04 Layer_Color=128*
%FSLAX25Y25*%
%MOIN*%
G70*
G01*
G75*
%ADD11R,0.16535X0.05315*%
%ADD24R,0.03543X0.03937*%
%ADD25R,0.03150X0.02756*%
%ADD26R,0.02756X0.03150*%
%ADD27R,0.03937X0.03543*%
%ADD50C,0.02000*%
%ADD58C,0.07087*%
D11*
X261713Y111122D02*
D03*
Y88878D02*
D03*
D24*
X140347Y122000D02*
D03*
X133653D02*
D03*
X242347Y121500D02*
D03*
X235653D02*
D03*
X242347Y127000D02*
D03*
X235653D02*
D03*
X234154Y106000D02*
D03*
X240846D02*
D03*
X234154Y100500D02*
D03*
X240846D02*
D03*
X254654Y124500D02*
D03*
X261347D02*
D03*
D25*
X177638Y112500D02*
D03*
X182362D02*
D03*
X139362Y131000D02*
D03*
X134638D02*
D03*
X139362Y126500D02*
D03*
X134638D02*
D03*
X139362Y135000D02*
D03*
X134638D02*
D03*
X241362Y116500D02*
D03*
X236638D02*
D03*
X241362Y132000D02*
D03*
X236638D02*
D03*
X215638Y139000D02*
D03*
X220362D02*
D03*
X217138Y114500D02*
D03*
X221862D02*
D03*
X226138Y139000D02*
D03*
X230862D02*
D03*
X203138Y114500D02*
D03*
X207862D02*
D03*
X235138Y111000D02*
D03*
X239862D02*
D03*
X235138Y95500D02*
D03*
X239862D02*
D03*
X43862Y76000D02*
D03*
X39138D02*
D03*
X43862Y69000D02*
D03*
X39138D02*
D03*
X43862Y62000D02*
D03*
X39138D02*
D03*
X21638Y76000D02*
D03*
X26362D02*
D03*
X21638Y69000D02*
D03*
X26362D02*
D03*
X21638Y62000D02*
D03*
X26362D02*
D03*
X84862Y138000D02*
D03*
X80138D02*
D03*
X149862Y62000D02*
D03*
X145138D02*
D03*
X135138Y62000D02*
D03*
X139862D02*
D03*
X139862Y73000D02*
D03*
X135138D02*
D03*
X129862D02*
D03*
X125138D02*
D03*
X185862Y98000D02*
D03*
X181138D02*
D03*
X205362Y94500D02*
D03*
X200638D02*
D03*
X205362Y98500D02*
D03*
X200638D02*
D03*
X192638Y72000D02*
D03*
X197362D02*
D03*
X195362Y98000D02*
D03*
X190638D02*
D03*
X187862Y72000D02*
D03*
X183138D02*
D03*
X72638Y122500D02*
D03*
X77362D02*
D03*
X90724Y122500D02*
D03*
X86000D02*
D03*
X135862Y110500D02*
D03*
X131138D02*
D03*
X135862Y106500D02*
D03*
X131138D02*
D03*
D26*
X153000Y127362D02*
D03*
Y122638D02*
D03*
X202500Y133362D02*
D03*
Y128638D02*
D03*
X226500Y116862D02*
D03*
Y112138D02*
D03*
Y99362D02*
D03*
Y94638D02*
D03*
X212000Y107362D02*
D03*
Y102638D02*
D03*
X205500Y75862D02*
D03*
Y71138D02*
D03*
X85000Y77638D02*
D03*
Y82362D02*
D03*
X71500Y77638D02*
D03*
Y82362D02*
D03*
X54500Y114362D02*
D03*
Y109638D02*
D03*
X64000Y104862D02*
D03*
Y100138D02*
D03*
X90000Y100362D02*
D03*
Y95638D02*
D03*
X137500Y84638D02*
D03*
Y89362D02*
D03*
X145500Y84638D02*
D03*
Y89362D02*
D03*
X137500Y100362D02*
D03*
Y95638D02*
D03*
X141500Y84638D02*
D03*
Y89362D02*
D03*
X149500Y84638D02*
D03*
Y89362D02*
D03*
X121500Y84638D02*
D03*
Y89362D02*
D03*
X125500Y84638D02*
D03*
Y89362D02*
D03*
X122500Y118638D02*
D03*
Y123362D02*
D03*
X148500Y109862D02*
D03*
Y105138D02*
D03*
X144500Y100362D02*
D03*
Y95638D02*
D03*
X129500Y84638D02*
D03*
Y89362D02*
D03*
X148500Y100362D02*
D03*
Y95638D02*
D03*
X133500Y100362D02*
D03*
Y95638D02*
D03*
X133500Y84638D02*
D03*
Y89362D02*
D03*
D27*
X221500Y108346D02*
D03*
Y101654D02*
D03*
X216500Y108346D02*
D03*
Y101654D02*
D03*
X205000Y90346D02*
D03*
Y83653D02*
D03*
X170000Y80654D02*
D03*
Y87347D02*
D03*
X78000Y76653D02*
D03*
Y83346D02*
D03*
X141000Y105154D02*
D03*
Y111846D02*
D03*
X127500Y117654D02*
D03*
Y124346D02*
D03*
X121500Y98654D02*
D03*
Y105347D02*
D03*
X126500D02*
D03*
Y98654D02*
D03*
D50*
X725945Y59564D02*
Y49567D01*
X730943D01*
X732609Y51233D01*
Y52899D01*
X730943Y54565D01*
X725945D01*
X730943D01*
X732609Y56231D01*
Y57898D01*
X730943Y59564D01*
X725945D01*
X737608Y49567D02*
X740940D01*
X742606Y51233D01*
Y54565D01*
X740940Y56231D01*
X737608D01*
X735942Y54565D01*
Y51233D01*
X737608Y49567D01*
X747605Y57898D02*
Y56231D01*
X745938D01*
X749271D01*
X747605D01*
Y51233D01*
X749271Y49567D01*
X755935Y57898D02*
Y56231D01*
X754269D01*
X757601D01*
X755935D01*
Y51233D01*
X757601Y49567D01*
X764266D02*
X767598D01*
X769264Y51233D01*
Y54565D01*
X767598Y56231D01*
X764266D01*
X762600Y54565D01*
Y51233D01*
X764266Y49567D01*
X772597D02*
Y56231D01*
X774263D01*
X775929Y54565D01*
Y49567D01*
Y54565D01*
X777595Y56231D01*
X779261Y54565D01*
Y49567D01*
X792590D02*
Y59564D01*
X797588D01*
X799255Y57898D01*
Y54565D01*
X797588Y52899D01*
X792590D01*
X804253Y56231D02*
X807585D01*
X809251Y54565D01*
Y49567D01*
X804253D01*
X802587Y51233D01*
X804253Y52899D01*
X809251D01*
X812584Y49567D02*
X817582D01*
X819248Y51233D01*
X817582Y52899D01*
X814250D01*
X812584Y54565D01*
X814250Y56231D01*
X819248D01*
X824247Y57898D02*
Y56231D01*
X822580D01*
X825913D01*
X824247D01*
Y51233D01*
X825913Y49567D01*
X835909D02*
X832577D01*
X830911Y51233D01*
Y54565D01*
X832577Y56231D01*
X835909D01*
X837576Y54565D01*
Y52899D01*
X830911D01*
D58*
X110000Y100000D02*
D03*
Y90000D02*
D03*
Y110000D02*
D03*
M02*
