G04 Layer_Color=10092288*
%FSLAX25Y25*%
%MOIN*%
G70*
G01*
G75*
%ADD50C,0.02000*%
%ADD66R,0.17335X0.06115*%
%ADD79R,0.04343X0.04737*%
%ADD80R,0.03950X0.03556*%
%ADD81R,0.03556X0.03950*%
%ADD82R,0.04737X0.04343*%
%ADD100R,0.04343X0.05131*%
%ADD101O,0.04343X0.05131*%
%ADD102C,0.07887*%
D50*
X725945Y95564D02*
Y85567D01*
X730943D01*
X732609Y87233D01*
Y88899D01*
X730943Y90565D01*
X725945D01*
X730943D01*
X732609Y92231D01*
Y93898D01*
X730943Y95564D01*
X725945D01*
X737608Y85567D02*
X740940D01*
X742606Y87233D01*
Y90565D01*
X740940Y92231D01*
X737608D01*
X735942Y90565D01*
Y87233D01*
X737608Y85567D01*
X747605Y93898D02*
Y92231D01*
X745938D01*
X749271D01*
X747605D01*
Y87233D01*
X749271Y85567D01*
X755935Y93898D02*
Y92231D01*
X754269D01*
X757601D01*
X755935D01*
Y87233D01*
X757601Y85567D01*
X764266D02*
X767598D01*
X769264Y87233D01*
Y90565D01*
X767598Y92231D01*
X764266D01*
X762600Y90565D01*
Y87233D01*
X764266Y85567D01*
X772597D02*
Y92231D01*
X774263D01*
X775929Y90565D01*
Y85567D01*
Y90565D01*
X777595Y92231D01*
X779261Y90565D01*
Y85567D01*
X799255Y93898D02*
X797588Y95564D01*
X794256D01*
X792590Y93898D01*
Y92231D01*
X794256Y90565D01*
X797588D01*
X799255Y88899D01*
Y87233D01*
X797588Y85567D01*
X794256D01*
X792590Y87233D01*
X804253Y85567D02*
X807585D01*
X809251Y87233D01*
Y90565D01*
X807585Y92231D01*
X804253D01*
X802587Y90565D01*
Y87233D01*
X804253Y85567D01*
X812584D02*
X815916D01*
X814250D01*
Y95564D01*
X812584D01*
X827579D02*
Y85567D01*
X822580D01*
X820914Y87233D01*
Y90565D01*
X822580Y92231D01*
X827579D01*
X835909Y85567D02*
X832577D01*
X830911Y87233D01*
Y90565D01*
X832577Y92231D01*
X835909D01*
X837576Y90565D01*
Y88899D01*
X830911D01*
X840908Y92231D02*
Y85567D01*
Y88899D01*
X842574Y90565D01*
X844240Y92231D01*
X845906D01*
D66*
X261713Y111122D02*
D03*
Y88878D02*
D03*
D79*
X140347Y122000D02*
D03*
X133653D02*
D03*
X242347Y121500D02*
D03*
X235653D02*
D03*
X242347Y127000D02*
D03*
X235653D02*
D03*
X234154Y106000D02*
D03*
X240846D02*
D03*
X234154Y100500D02*
D03*
X240846D02*
D03*
X254654Y124500D02*
D03*
X261347D02*
D03*
D80*
X177638Y112500D02*
D03*
X182362D02*
D03*
X139362Y131000D02*
D03*
X134638D02*
D03*
X139362Y126500D02*
D03*
X134638D02*
D03*
X139362Y135000D02*
D03*
X134638D02*
D03*
X241362Y116500D02*
D03*
X236638D02*
D03*
X241362Y132000D02*
D03*
X236638D02*
D03*
X215638Y139000D02*
D03*
X220362D02*
D03*
X217138Y114500D02*
D03*
X221862D02*
D03*
X226138Y139000D02*
D03*
X230862D02*
D03*
X203138Y114500D02*
D03*
X207862D02*
D03*
X235138Y111000D02*
D03*
X239862D02*
D03*
X235138Y95500D02*
D03*
X239862D02*
D03*
X43862Y76000D02*
D03*
X39138D02*
D03*
X43862Y69000D02*
D03*
X39138D02*
D03*
X43862Y62000D02*
D03*
X39138D02*
D03*
X21638Y76000D02*
D03*
X26362D02*
D03*
X21638Y69000D02*
D03*
X26362D02*
D03*
X21638Y62000D02*
D03*
X26362D02*
D03*
X84862Y138000D02*
D03*
X80138D02*
D03*
X149862Y62000D02*
D03*
X145138D02*
D03*
X135138Y62000D02*
D03*
X139862D02*
D03*
X139862Y73000D02*
D03*
X135138D02*
D03*
X129862D02*
D03*
X125138D02*
D03*
X185862Y98000D02*
D03*
X181138D02*
D03*
X205362Y94500D02*
D03*
X200638D02*
D03*
X205362Y98500D02*
D03*
X200638D02*
D03*
X192638Y72000D02*
D03*
X197362D02*
D03*
X195362Y98000D02*
D03*
X190638D02*
D03*
X187862Y72000D02*
D03*
X183138D02*
D03*
X72638Y122500D02*
D03*
X77362D02*
D03*
X90724Y122500D02*
D03*
X86000D02*
D03*
X135862Y110500D02*
D03*
X131138D02*
D03*
X135862Y106500D02*
D03*
X131138D02*
D03*
D81*
X153000Y127362D02*
D03*
Y122638D02*
D03*
X202500Y133362D02*
D03*
Y128638D02*
D03*
X226500Y116862D02*
D03*
Y112138D02*
D03*
Y99362D02*
D03*
Y94638D02*
D03*
X212000Y107362D02*
D03*
Y102638D02*
D03*
X205500Y75862D02*
D03*
Y71138D02*
D03*
X85000Y77638D02*
D03*
Y82362D02*
D03*
X71500Y77638D02*
D03*
Y82362D02*
D03*
X54500Y114362D02*
D03*
Y109638D02*
D03*
X64000Y104862D02*
D03*
Y100138D02*
D03*
X90000Y100362D02*
D03*
Y95638D02*
D03*
X137500Y84638D02*
D03*
Y89362D02*
D03*
X145500Y84638D02*
D03*
Y89362D02*
D03*
X137500Y100362D02*
D03*
Y95638D02*
D03*
X141500Y84638D02*
D03*
Y89362D02*
D03*
X149500Y84638D02*
D03*
Y89362D02*
D03*
X121500Y84638D02*
D03*
Y89362D02*
D03*
X125500Y84638D02*
D03*
Y89362D02*
D03*
X122500Y118638D02*
D03*
Y123362D02*
D03*
X148500Y109862D02*
D03*
Y105138D02*
D03*
X144500Y100362D02*
D03*
Y95638D02*
D03*
X129500Y84638D02*
D03*
Y89362D02*
D03*
X148500Y100362D02*
D03*
Y95638D02*
D03*
X133500Y100362D02*
D03*
Y95638D02*
D03*
X133500Y84638D02*
D03*
Y89362D02*
D03*
D82*
X221500Y108346D02*
D03*
Y101654D02*
D03*
X216500Y108346D02*
D03*
Y101654D02*
D03*
X205000Y90346D02*
D03*
Y83653D02*
D03*
X170000Y80654D02*
D03*
Y87347D02*
D03*
X78000Y76653D02*
D03*
Y83346D02*
D03*
X141000Y105154D02*
D03*
Y111846D02*
D03*
X127500Y117654D02*
D03*
Y124346D02*
D03*
X121500Y98654D02*
D03*
Y105347D02*
D03*
X126500D02*
D03*
Y98654D02*
D03*
D100*
X55158Y132500D02*
D03*
X80000D02*
D03*
X144803Y67500D02*
D03*
D101*
X60079Y132500D02*
D03*
X65000D02*
D03*
X89842D02*
D03*
X94764D02*
D03*
X84921D02*
D03*
X99685D02*
D03*
X134961Y67500D02*
D03*
X130039D02*
D03*
X139882D02*
D03*
X125118D02*
D03*
D102*
X110000Y100000D02*
D03*
Y90000D02*
D03*
Y110000D02*
D03*
M02*
