G04 Layer_Color=32896*
%FSLAX25Y25*%
%MOIN*%
G70*
G01*
G75*
%ADD46C,0.01000*%
%ADD49C,0.00500*%
%ADD50C,0.02000*%
%ADD64C,0.00787*%
D46*
X110500Y82000D02*
G03*
X110500Y82000I-500J0D01*
G01*
X115500Y84500D02*
Y115500D01*
X104500Y84500D02*
Y115500D01*
Y84500D02*
X115500D01*
X104500Y115500D02*
X115500D01*
D49*
X154700Y124200D02*
Y125800D01*
X151300Y124200D02*
Y125800D01*
X179200Y114200D02*
X180800D01*
X179200Y110800D02*
X180800D01*
X136200Y129300D02*
X137800D01*
X136200Y132700D02*
X137800D01*
X136200Y124800D02*
X137800D01*
X136200Y128200D02*
X137800D01*
X136200Y133300D02*
X137800D01*
X136200Y136700D02*
X137800D01*
X238200Y114800D02*
X239800D01*
X238200Y118200D02*
X239800D01*
X238200Y130300D02*
X239800D01*
X238200Y133700D02*
X239800D01*
X204200Y130200D02*
Y131800D01*
X200800Y130200D02*
Y131800D01*
X217200Y140700D02*
X218800D01*
X217200Y137300D02*
X218800D01*
X218700Y116200D02*
X220300D01*
X218700Y112800D02*
X220300D01*
X227700Y140700D02*
X229300D01*
X227700Y137300D02*
X229300D01*
X228200Y113700D02*
Y115300D01*
X224800Y113700D02*
Y115300D01*
X204700Y116200D02*
X206300D01*
X204700Y112800D02*
X206300D01*
X228200Y96200D02*
Y97800D01*
X224800Y96200D02*
Y97800D01*
X213700Y104200D02*
Y105800D01*
X210300Y104200D02*
Y105800D01*
X236700Y112700D02*
X238300D01*
X236700Y109300D02*
X238300D01*
X236700Y97200D02*
X238300D01*
X236700Y93800D02*
X238300D01*
X40700Y74300D02*
X42300D01*
X40700Y77700D02*
X42300D01*
X40700Y67300D02*
X42300D01*
X40700Y70700D02*
X42300D01*
X40700Y60300D02*
X42300D01*
X40700Y63700D02*
X42300D01*
X23200Y77700D02*
X24800D01*
X23200Y74300D02*
X24800D01*
X23200Y70700D02*
X24800D01*
X23200Y67300D02*
X24800D01*
X23200Y63700D02*
X24800D01*
X23200Y60300D02*
X24800D01*
X81700Y136300D02*
X83300D01*
X81700Y139700D02*
X83300D01*
X146700Y60300D02*
X148300D01*
X146700Y63700D02*
X148300D01*
X136700D02*
X138300D01*
X136700Y60300D02*
X138300D01*
X136700Y71300D02*
X138300D01*
X136700Y74700D02*
X138300D01*
X126700Y71300D02*
X128300D01*
X126700Y74700D02*
X128300D01*
X182700Y96300D02*
X184300D01*
X182700Y99700D02*
X184300D01*
X202200Y92800D02*
X203800D01*
X202200Y96200D02*
X203800D01*
X202200Y96800D02*
X203800D01*
X202200Y100200D02*
X203800D01*
X194200Y73700D02*
X195800D01*
X194200Y70300D02*
X195800D01*
X192200Y96300D02*
X193800D01*
X192200Y99700D02*
X193800D01*
X207200Y72700D02*
Y74300D01*
X203800Y72700D02*
Y74300D01*
X184700Y70300D02*
X186300D01*
X184700Y73700D02*
X186300D01*
X74200Y124200D02*
X75800D01*
X74200Y120800D02*
X75800D01*
X83300Y79200D02*
Y80800D01*
X86700Y79200D02*
Y80800D01*
X69800Y79200D02*
Y80800D01*
X73200Y79200D02*
Y80800D01*
X87562Y120800D02*
X89162D01*
X87562Y124200D02*
X89162D01*
X56200Y111200D02*
Y112800D01*
X52800Y111200D02*
Y112800D01*
X65700Y101700D02*
Y103300D01*
X62300Y101700D02*
Y103300D01*
X91700Y97200D02*
Y98800D01*
X88300Y97200D02*
Y98800D01*
X135800Y86200D02*
Y87800D01*
X139200Y86200D02*
Y87800D01*
X143800Y86200D02*
Y87800D01*
X147200Y86200D02*
Y87800D01*
X139200Y97200D02*
Y98800D01*
X135800Y97200D02*
Y98800D01*
X139800Y86200D02*
Y87800D01*
X143200Y86200D02*
Y87800D01*
X147800Y86200D02*
Y87800D01*
X151200Y86200D02*
Y87800D01*
X119800Y86200D02*
Y87800D01*
X123200Y86200D02*
Y87800D01*
X123800Y86200D02*
Y87800D01*
X127200Y86200D02*
Y87800D01*
X132700Y108800D02*
X134300D01*
X132700Y112200D02*
X134300D01*
X120800Y120200D02*
Y121800D01*
X124200Y120200D02*
Y121800D01*
X132700Y104800D02*
X134300D01*
X132700Y108200D02*
X134300D01*
X150200Y106700D02*
Y108300D01*
X146800Y106700D02*
Y108300D01*
X146200Y97200D02*
Y98800D01*
X142800Y97200D02*
Y98800D01*
X127800Y86200D02*
Y87800D01*
X131200Y86200D02*
Y87800D01*
X150200Y97200D02*
Y98800D01*
X146800Y97200D02*
Y98800D01*
X135200Y97200D02*
Y98800D01*
X131800Y97200D02*
Y98800D01*
X131800Y86200D02*
Y87800D01*
X135200Y86200D02*
Y87800D01*
D50*
X725945Y77564D02*
Y67567D01*
X730943D01*
X732609Y69233D01*
Y70899D01*
X730943Y72565D01*
X725945D01*
X730943D01*
X732609Y74231D01*
Y75898D01*
X730943Y77564D01*
X725945D01*
X737608Y67567D02*
X740940D01*
X742606Y69233D01*
Y72565D01*
X740940Y74231D01*
X737608D01*
X735942Y72565D01*
Y69233D01*
X737608Y67567D01*
X747605Y75898D02*
Y74231D01*
X745938D01*
X749271D01*
X747605D01*
Y69233D01*
X749271Y67567D01*
X755935Y75898D02*
Y74231D01*
X754269D01*
X757601D01*
X755935D01*
Y69233D01*
X757601Y67567D01*
X764266D02*
X767598D01*
X769264Y69233D01*
Y72565D01*
X767598Y74231D01*
X764266D01*
X762600Y72565D01*
Y69233D01*
X764266Y67567D01*
X772597D02*
Y74231D01*
X774263D01*
X775929Y72565D01*
Y67567D01*
Y72565D01*
X777595Y74231D01*
X779261Y72565D01*
Y67567D01*
X797588Y77564D02*
X794256D01*
X792590Y75898D01*
Y69233D01*
X794256Y67567D01*
X797588D01*
X799255Y69233D01*
Y75898D01*
X797588Y77564D01*
X802587Y74231D02*
X805919Y67567D01*
X809251Y74231D01*
X817582Y67567D02*
X814250D01*
X812584Y69233D01*
Y72565D01*
X814250Y74231D01*
X817582D01*
X819248Y72565D01*
Y70899D01*
X812584D01*
X822580Y74231D02*
Y67567D01*
Y70899D01*
X824247Y72565D01*
X825913Y74231D01*
X827579D01*
X832577Y67567D02*
X835909D01*
X834243D01*
Y77564D01*
X832577D01*
X842574Y74231D02*
X845906D01*
X847572Y72565D01*
Y67567D01*
X842574D01*
X840908Y69233D01*
X842574Y70899D01*
X847572D01*
X850904Y74231D02*
Y69233D01*
X852571Y67567D01*
X857569D01*
Y65901D01*
X855903Y64235D01*
X854237D01*
X857569Y67567D02*
Y74231D01*
D64*
X135500Y124500D02*
X138500D01*
X135500Y119500D02*
X138500D01*
X237500Y124000D02*
X240500D01*
X237500Y119000D02*
X240500D01*
X237500Y129500D02*
X240500D01*
X237500Y124500D02*
X240500D01*
X219000Y103500D02*
Y106500D01*
X224000Y103500D02*
Y106500D01*
X214000Y103500D02*
Y106500D01*
X219000Y103500D02*
Y106500D01*
X236000Y103500D02*
X239000D01*
X236000Y108500D02*
X239000D01*
X236000Y98000D02*
X239000D01*
X236000Y103000D02*
X239000D01*
X256500Y122000D02*
X259500D01*
X256500Y127000D02*
X259500D01*
X202500Y85500D02*
Y88500D01*
X207500Y85500D02*
Y88500D01*
X172500Y82500D02*
Y85500D01*
X167500Y82500D02*
Y85500D01*
X80500Y78500D02*
Y81500D01*
X75500Y78500D02*
Y81500D01*
X143500Y107000D02*
Y110000D01*
X138500Y107000D02*
Y110000D01*
X130000Y119500D02*
Y122500D01*
X125000Y119500D02*
Y122500D01*
X124000Y100500D02*
Y103500D01*
X119000Y100500D02*
Y103500D01*
X124000Y100500D02*
Y103500D01*
X129000Y100500D02*
Y103500D01*
M02*
