M48
;Layer_Color=9474304
;FILE_FORMAT=2:5
INCH,LZ
;TYPE=PLATED
T1F00S00C0.00600
%
T01
X00615Y0095
X0062Y00995
X00645Y0113
X00665Y0116
X00685Y01095
X00815Y0117
X00845Y01155
X00915Y0103
X0094Y0105
X0092Y0085236
X00915Y0082
X00885Y00835
X0084Y0086
X00855Y0091
X00785Y0082
X0128Y008
Y0078
X0134Y00775
Y00755
X0134016Y0086673
X0132047Y0088642
X0130079
X012811Y0086673
X0135984Y0088642
X0137953
X014189Y0086673
X0143858Y009061
X0145827
Y0088642
Y0092579
Y0094547
Y0096516
X0143858Y0100453
X0143858Y0102421
Y010439
X0145827
X014189Y0106358
X0139921
Y0108327
Y0110295
X0137953Y0106358
X0135984
X0134016Y0106358
X0132047Y0108327
X0130079
X012811
X0124173Y0106358
Y010439
Y0102421
X0126142Y0100453
X0128Y01005
X0126142Y0098484
X0122205Y0106358
X0115Y0115
X01135Y013
X01095
X0127063Y0129937
Y0133874
X0131
Y0129937
X0134941Y0129921
X0138874Y0129937
X0137008Y0124803
X0133071
X0131Y0122063
X0142811
Y0126
X0142811Y0133874
X0142811Y0137811
X0131063Y0137874
X0164Y00975
X0165Y00945
X0173Y01025
X0176
X01565Y0085
X0156Y00755
Y00725
Y00695
X01795Y01025
X02Y01285
X0199Y01315
Y01335
X0197Y01345
X02235Y0132421
X02265Y0139
X02205Y0113
X0209Y0085
Y0082
M30
