G04 Layer_Physical_Order=6*
G04 Layer_Color=16711680*
%FSLAX25Y25*%
%MOIN*%
G70*
G01*
G75*
%ADD11R,0.16535X0.05315*%
%ADD24R,0.03543X0.03937*%
%ADD25R,0.03150X0.02756*%
%ADD26R,0.02756X0.03150*%
%ADD27R,0.03937X0.03543*%
%ADD46C,0.01000*%
%ADD47C,0.00600*%
%ADD48C,0.00800*%
%ADD50C,0.02000*%
%ADD51R,0.03543X0.04331*%
%ADD52O,0.03543X0.04331*%
%ADD53C,0.02400*%
%ADD55C,0.03500*%
%ADD58C,0.07087*%
D11*
X261713Y111122D02*
D03*
Y88878D02*
D03*
D24*
X140347Y122000D02*
D03*
X133653D02*
D03*
X242347Y121500D02*
D03*
X235653D02*
D03*
X242347Y127000D02*
D03*
X235653D02*
D03*
X234154Y106000D02*
D03*
X240846D02*
D03*
X234154Y100500D02*
D03*
X240846D02*
D03*
X254654Y124500D02*
D03*
X261347D02*
D03*
D25*
X177638Y112500D02*
D03*
X182362D02*
D03*
X139362Y131000D02*
D03*
X134638D02*
D03*
X139362Y126500D02*
D03*
X134638D02*
D03*
X139362Y135000D02*
D03*
X134638D02*
D03*
X241362Y116500D02*
D03*
X236638D02*
D03*
X241362Y132000D02*
D03*
X236638D02*
D03*
X215638Y139000D02*
D03*
X220362D02*
D03*
X217138Y114500D02*
D03*
X221862D02*
D03*
X226138Y139000D02*
D03*
X230862D02*
D03*
X203138Y114500D02*
D03*
X207862D02*
D03*
X235138Y111000D02*
D03*
X239862D02*
D03*
X235138Y95500D02*
D03*
X239862D02*
D03*
X43862Y76000D02*
D03*
X39138D02*
D03*
X43862Y69000D02*
D03*
X39138D02*
D03*
X43862Y62000D02*
D03*
X39138D02*
D03*
X21638Y76000D02*
D03*
X26362D02*
D03*
X21638Y69000D02*
D03*
X26362D02*
D03*
X21638Y62000D02*
D03*
X26362D02*
D03*
X84862Y138000D02*
D03*
X80138D02*
D03*
X149862Y62000D02*
D03*
X145138D02*
D03*
X135138Y62000D02*
D03*
X139862D02*
D03*
X139862Y73000D02*
D03*
X135138D02*
D03*
X129862D02*
D03*
X125138D02*
D03*
X185862Y98000D02*
D03*
X181138D02*
D03*
X205362Y94500D02*
D03*
X200638D02*
D03*
X205362Y98500D02*
D03*
X200638D02*
D03*
X192638Y72000D02*
D03*
X197362D02*
D03*
X195362Y98000D02*
D03*
X190638D02*
D03*
X187862Y72000D02*
D03*
X183138D02*
D03*
X72638Y122500D02*
D03*
X77362D02*
D03*
X90724Y122500D02*
D03*
X86000D02*
D03*
X135862Y110500D02*
D03*
X131138D02*
D03*
X135862Y106500D02*
D03*
X131138D02*
D03*
D26*
X153000Y127362D02*
D03*
Y122638D02*
D03*
X202500Y133362D02*
D03*
Y128638D02*
D03*
X226500Y116862D02*
D03*
Y112138D02*
D03*
Y99362D02*
D03*
Y94638D02*
D03*
X212000Y107362D02*
D03*
Y102638D02*
D03*
X205500Y75862D02*
D03*
Y71138D02*
D03*
X85000Y77638D02*
D03*
Y82362D02*
D03*
X71500Y77638D02*
D03*
Y82362D02*
D03*
X54500Y114362D02*
D03*
Y109638D02*
D03*
X64000Y104862D02*
D03*
Y100138D02*
D03*
X90000Y100362D02*
D03*
Y95638D02*
D03*
X137500Y84638D02*
D03*
Y89362D02*
D03*
X145500Y84638D02*
D03*
Y89362D02*
D03*
X137500Y100362D02*
D03*
Y95638D02*
D03*
X141500Y84638D02*
D03*
Y89362D02*
D03*
X149500Y84638D02*
D03*
Y89362D02*
D03*
X121500Y84638D02*
D03*
Y89362D02*
D03*
X125500Y84638D02*
D03*
Y89362D02*
D03*
X122500Y118638D02*
D03*
Y123362D02*
D03*
X148500Y109862D02*
D03*
Y105138D02*
D03*
X144500Y100362D02*
D03*
Y95638D02*
D03*
X129500Y84638D02*
D03*
Y89362D02*
D03*
X148500Y100362D02*
D03*
Y95638D02*
D03*
X133500Y100362D02*
D03*
Y95638D02*
D03*
X133500Y84638D02*
D03*
Y89362D02*
D03*
D27*
X221500Y108346D02*
D03*
Y101654D02*
D03*
X216500Y108346D02*
D03*
Y101654D02*
D03*
X205000Y90346D02*
D03*
Y83653D02*
D03*
X170000Y80654D02*
D03*
Y87347D02*
D03*
X78000Y76653D02*
D03*
Y83346D02*
D03*
X141000Y105154D02*
D03*
Y111846D02*
D03*
X127500Y117654D02*
D03*
Y124346D02*
D03*
X121500Y98654D02*
D03*
Y105347D02*
D03*
X126500D02*
D03*
Y98654D02*
D03*
D46*
X21638Y62000D02*
X21638Y62000D01*
X181138Y98000D02*
Y100638D01*
X182500Y102000D01*
X192500D02*
X193500D01*
X195362Y100138D01*
Y98000D02*
Y100138D01*
X190638Y98000D02*
Y100362D01*
X189000Y102000D02*
X190638Y100362D01*
X185862Y98000D02*
Y101638D01*
X205362Y98500D02*
X208500D01*
X209500Y97500D01*
X205362Y94500D02*
X209500D01*
X209500Y94500D01*
X205000Y90346D02*
X208846D01*
X209500Y91000D01*
X205000Y83653D02*
X205153D01*
X209500Y88000D01*
X200638Y94500D02*
Y98500D01*
X197138Y91000D02*
X200638Y94500D01*
X197000Y91000D02*
X197138D01*
X167000Y90346D02*
X170000Y87347D01*
X167154Y80654D02*
X170000D01*
X165500Y79000D02*
X167154Y80654D01*
X192000Y71362D02*
X192638Y72000D01*
X192000Y68000D02*
Y71362D01*
X187862Y72000D02*
X188500Y71362D01*
Y68000D02*
Y71362D01*
X182500Y71362D02*
X183138Y72000D01*
X182500Y68000D02*
Y71362D01*
X197362Y72000D02*
X198000Y71362D01*
Y68000D02*
Y71362D01*
X205500Y71138D02*
X208138D01*
X209500Y72500D01*
X205500Y75862D02*
X205862Y75500D01*
X209500D01*
X226500Y99362D02*
Y103000D01*
X226500Y103000D02*
X226500Y103000D01*
X221500Y108346D02*
X225153D01*
X226500Y107000D01*
X211362Y108000D02*
X212000Y107362D01*
X208500Y108000D02*
X211362D01*
X212984Y108346D02*
X216500D01*
X212000Y107362D02*
X212984Y108346D01*
X211362Y102000D02*
X212000Y102638D01*
X207000Y102000D02*
X211362D01*
X205000Y104000D02*
X207000Y102000D01*
X212500Y96000D02*
Y97654D01*
X216500Y101654D01*
X90000Y100362D02*
X90862Y99500D01*
X94000D01*
X90000Y95638D02*
X90862Y96500D01*
X94000D01*
X63138Y104000D02*
X64000Y104862D01*
X60000Y104000D02*
X63138D01*
X63138Y101000D02*
X64000Y100138D01*
X60000Y101000D02*
X63138D01*
X72638Y122500D02*
X73500Y123362D01*
Y126500D01*
X76500Y123362D02*
X77362Y122500D01*
X76500Y123362D02*
Y126500D01*
X86000Y122500D02*
X86500Y123000D01*
Y126500D01*
X90000Y123224D02*
X90724Y122500D01*
X90000Y123224D02*
Y126500D01*
X84862Y132559D02*
Y138000D01*
X53862Y115000D02*
X54500Y114362D01*
X50500Y115000D02*
X53862D01*
X52138Y112000D02*
X54500Y109638D01*
X50500Y112000D02*
X52138D01*
X71500Y73500D02*
Y77638D01*
X78000Y73500D02*
Y76653D01*
Y73500D02*
X79000Y72500D01*
X85000Y73500D02*
Y77638D01*
Y73500D02*
X85000Y73500D01*
X78000Y83346D02*
Y86500D01*
X79000Y87500D01*
X71500Y82362D02*
X75000Y78862D01*
Y73500D02*
Y78862D01*
X82000Y79362D02*
X85000Y82362D01*
X82000Y73500D02*
Y79362D01*
X122500Y115500D02*
Y118638D01*
Y115500D02*
X123500Y114500D01*
X124346D02*
X127500Y117654D01*
X123500Y114500D02*
X124346D01*
X122500Y123362D02*
Y127500D01*
X122500Y127500D01*
X124346D01*
X127500Y124346D01*
X133653Y119496D02*
Y122000D01*
Y119496D02*
X135039Y118110D01*
X134638Y122984D02*
Y126500D01*
X133653Y122000D02*
X134638Y122984D01*
Y131000D02*
Y135000D01*
X127000D02*
X134638D01*
X124000Y132000D02*
X127000Y135000D01*
X139362D02*
X144000D01*
X146500Y132500D01*
X139362Y131000D02*
X145000D01*
X146500Y132500D01*
X139362Y122984D02*
Y126500D01*
Y122984D02*
X140347Y122000D01*
Y119480D02*
Y122000D01*
X138976Y118110D02*
X140347Y119480D01*
X153000Y127362D02*
Y131500D01*
Y118500D02*
Y122638D01*
X221500Y96000D02*
Y101654D01*
X226500Y92500D02*
Y94638D01*
Y92500D02*
X228500Y90500D01*
X235138Y92638D02*
Y95500D01*
X234000Y91500D02*
X235138Y92638D01*
X230000Y108500D02*
X232500Y111000D01*
X235138D01*
X240846Y106000D02*
X244000D01*
X239862Y111000D02*
X243000D01*
X243000Y111000D01*
X233500Y116500D02*
X236638D01*
X232500Y117500D02*
X233500Y116500D01*
X232000Y121500D02*
X235653D01*
X242347D02*
X245500D01*
X246000Y121000D01*
X235000Y133638D02*
X236638Y132000D01*
X235000Y133638D02*
Y135200D01*
X239000Y134362D02*
X241362Y132000D01*
X239000Y134362D02*
Y135000D01*
X248500Y124500D02*
X254654D01*
X261347D02*
Y127654D01*
X259000Y130000D02*
X261347Y127654D01*
X222638Y116862D02*
X226500D01*
X221500Y118000D02*
X222638Y116862D01*
X213500Y114500D02*
X217138D01*
X213000Y115000D02*
X213500Y114500D01*
X203138D02*
Y118362D01*
X203000Y118500D02*
X203138Y118362D01*
X207862Y111138D02*
Y114500D01*
X221862D02*
X224138D01*
X226500Y112138D01*
X229138D01*
X230000Y113000D01*
X202500Y128638D02*
X203138D01*
X207000Y132500D01*
X202500Y133362D02*
Y135500D01*
X201000Y137000D02*
X202500Y135500D01*
X213000Y139000D02*
X215638D01*
X211500Y140500D02*
X213000Y139000D01*
X226138Y137138D02*
Y139000D01*
X224500Y135500D02*
X226138Y137138D01*
X228500Y135300D02*
Y136638D01*
X230862Y139000D01*
X242347Y127000D02*
X244000D01*
X241362Y116500D02*
Y120638D01*
X241000Y121000D02*
X241362Y120638D01*
X119500Y82000D02*
X121500Y84000D01*
X124862D02*
X125500Y84638D01*
X121500Y84000D02*
X124862D01*
X129500Y84638D02*
X133500D01*
X134016Y84122D01*
Y80000D02*
Y84122D01*
X137500Y84638D02*
X141500D01*
Y80000D02*
Y84638D01*
Y80000D02*
X141500Y80000D01*
X145500Y84638D02*
X149500D01*
X145500D02*
X145827Y84311D01*
Y81653D02*
Y84311D01*
X121500Y89362D02*
X125500D01*
X119500Y91362D02*
X121500Y89362D01*
X119500Y91362D02*
Y92500D01*
X129500Y89362D02*
X133500D01*
Y92500D01*
X137500Y89362D02*
Y92500D01*
Y89362D02*
X141500D01*
X141500Y89362D01*
X145500D02*
X149500D01*
X151000Y90862D01*
Y92500D01*
X126500Y98654D02*
X128654Y96500D01*
X132638D02*
X133500Y95638D01*
X137500D01*
X128654Y96500D02*
X130000D01*
X132638D01*
X144500Y95638D02*
X148500D01*
X152500Y99638D01*
Y103000D01*
X150362Y105138D02*
X152500Y103000D01*
X148500Y105138D02*
X150362D01*
X135862Y104724D02*
Y106500D01*
Y104724D02*
X136976Y103610D01*
X135862Y110500D02*
Y113138D01*
X135500Y113500D02*
X135862Y113138D01*
X148500Y109862D02*
Y113067D01*
X148819Y113386D01*
X118110Y98484D02*
X121331D01*
X121500Y98654D01*
X133500Y100362D02*
X137500D01*
X130862D02*
X133500D01*
X130500Y100000D02*
X130862Y100362D01*
X141000Y105154D02*
X143791D01*
X148500Y109862D01*
X152362Y106000D01*
X152500D01*
X144500Y100362D02*
X148500D01*
X141000Y96862D02*
X144500Y100362D01*
X141000Y96500D02*
Y96862D01*
X130500Y103000D02*
X131138Y103638D01*
Y106500D01*
Y110500D01*
X126500Y105347D02*
Y106000D01*
X120500Y112000D02*
X126500Y106000D01*
X121500Y105347D02*
Y106000D01*
X117000Y110500D02*
X121500Y106000D01*
X116500Y110000D02*
X117000Y110500D01*
X177000Y112500D02*
X177638D01*
X174000Y115500D02*
X177000Y112500D01*
X182362D02*
X187000D01*
X187000Y112500D01*
X141000Y111846D02*
Y112000D01*
X147000Y118000D01*
Y118500D01*
D47*
X114000Y106000D02*
X117000D01*
X46362Y64500D02*
X106000D01*
X120000Y76000D02*
X123500Y79500D01*
X115000Y76000D02*
X120000D01*
X107500Y68500D02*
X115000Y76000D01*
X55000Y68500D02*
X107500D01*
X43862Y69000D02*
X46362Y66500D01*
X53000D01*
X55000Y68500D01*
X57500Y111000D02*
X62500Y116000D01*
X57500Y95500D02*
Y111000D01*
X41000Y79000D02*
X57500Y95500D01*
X106500Y70000D02*
X115500Y79000D01*
X50000Y70000D02*
X106500D01*
X44000Y76000D02*
X50000Y70000D01*
X205000Y142000D02*
X212500Y134500D01*
X218500D01*
X219500Y133500D01*
X229500D01*
X230500Y132500D01*
X39138Y76000D02*
X39138Y76000D01*
X35000Y76000D02*
X39138D01*
X39138Y69000D02*
X39138Y69000D01*
X35000Y69000D02*
X39138D01*
X39138Y62000D02*
X39138Y62000D01*
X35000Y62000D02*
X39138D01*
X18000D02*
X21638D01*
Y69000D02*
X21638Y69000D01*
X18000Y69000D02*
X21638D01*
X18000Y76000D02*
X18000Y76000D01*
X21638D01*
X26362Y62000D02*
Y64362D01*
X27500Y65500D01*
X32000D01*
X33000Y66500D01*
Y77500D01*
X34500Y79000D01*
X43862Y62000D02*
X46362Y64500D01*
X34500Y79000D02*
X41000D01*
X26500Y69000D02*
Y71500D01*
X29000Y74000D01*
X31500Y80500D02*
X39500D01*
X29000Y78000D02*
X31500Y80500D01*
X29000Y74000D02*
Y78000D01*
X26362Y77000D02*
X27362Y76000D01*
X26362Y77862D02*
X30500Y82000D01*
X26362Y77000D02*
Y77862D01*
X30500Y82000D02*
X37000D01*
X39500Y80500D02*
X42500Y83500D01*
X37000Y82000D02*
X40000Y85000D01*
X44000Y69000D02*
X45000D01*
X227000Y130500D02*
X228000Y131500D01*
X215000Y130500D02*
X227000D01*
X204500Y141000D02*
X215000Y130500D01*
X227000Y129500D02*
X228000Y128500D01*
X214500Y129500D02*
X227000D01*
X204000Y140000D02*
X214500Y129500D01*
X114000Y142000D02*
X205000D01*
X114672Y141000D02*
X204500D01*
X116500Y140000D02*
X204000D01*
X215000Y127500D02*
X226000D01*
X203500Y139000D02*
X215000Y127500D01*
X118500Y139000D02*
X203500D01*
X153500Y62000D02*
X154000D01*
X154000Y62000D01*
X131000Y62000D02*
X131500D01*
X131000Y62000D02*
X131000Y62000D01*
X145000Y60500D02*
Y61862D01*
X144000Y59500D02*
X145000Y60500D01*
X125000Y59500D02*
X144000D01*
X145000Y61862D02*
X145138Y62000D01*
X121000Y63500D02*
X125000Y59500D01*
X75000Y95500D02*
X118500Y139000D01*
X228000Y125000D02*
Y128500D01*
X230500Y123500D02*
Y132500D01*
X229000Y122000D02*
X230500Y123500D01*
X226500Y122000D02*
X229000D01*
X69500Y93000D02*
X116500Y140000D01*
X70672Y97000D02*
X114672Y141000D01*
X100500Y128500D02*
X114000Y142000D01*
X84000Y128500D02*
X100500D01*
X82000Y126500D02*
X84000Y128500D01*
X60079Y129079D02*
Y132500D01*
X58000Y127000D02*
X60079Y129079D01*
X58000Y123000D02*
Y127000D01*
X63500Y93000D02*
X69500D01*
X64500Y97000D02*
X70672D01*
X131000Y62000D02*
X135138D01*
X149862Y62000D02*
X154000D01*
X145500Y73000D02*
X147500Y75000D01*
X139862Y73000D02*
X145500D01*
X125118Y67500D02*
X125138Y67520D01*
Y73000D01*
X144803Y62335D02*
X145138Y62000D01*
X144803Y62335D02*
Y67500D01*
X139862Y62000D02*
X139882Y62020D01*
Y67500D01*
X134961D02*
X135138Y67677D01*
Y73000D01*
X129862Y67677D02*
X130039Y67500D01*
X129862Y67677D02*
Y73000D01*
X113000Y71500D02*
X118500D01*
X106000Y64500D02*
X113000Y71500D01*
X118500D02*
X121000Y69000D01*
X111500Y108500D02*
X114000Y106000D01*
D48*
X114500Y94500D02*
Y95500D01*
X110000Y90000D02*
X114500Y94500D01*
X80000Y137862D02*
X80138Y138000D01*
X80000Y132500D02*
Y137862D01*
X55000Y123000D02*
X55158Y123158D01*
Y132500D01*
D50*
X725945Y113564D02*
Y103567D01*
X730943D01*
X732609Y105233D01*
Y106899D01*
X730943Y108565D01*
X725945D01*
X730943D01*
X732609Y110231D01*
Y111898D01*
X730943Y113564D01*
X725945D01*
X737608Y103567D02*
X740940D01*
X742606Y105233D01*
Y108565D01*
X740940Y110231D01*
X737608D01*
X735942Y108565D01*
Y105233D01*
X737608Y103567D01*
X747605Y111898D02*
Y110231D01*
X745938D01*
X749271D01*
X747605D01*
Y105233D01*
X749271Y103567D01*
X755935Y111898D02*
Y110231D01*
X754269D01*
X757601D01*
X755935D01*
Y105233D01*
X757601Y103567D01*
X764266D02*
X767598D01*
X769264Y105233D01*
Y108565D01*
X767598Y110231D01*
X764266D01*
X762600Y108565D01*
Y105233D01*
X764266Y103567D01*
X772597D02*
Y110231D01*
X774263D01*
X775929Y108565D01*
Y103567D01*
Y108565D01*
X777595Y110231D01*
X779261Y108565D01*
Y103567D01*
X792590Y113564D02*
Y103567D01*
X799255D01*
X804253Y110231D02*
X807585D01*
X809251Y108565D01*
Y103567D01*
X804253D01*
X802587Y105233D01*
X804253Y106899D01*
X809251D01*
X812584Y110231D02*
Y105233D01*
X814250Y103567D01*
X819248D01*
Y101901D01*
X817582Y100235D01*
X815916D01*
X819248Y103567D02*
Y110231D01*
X827579Y103567D02*
X824247D01*
X822580Y105233D01*
Y108565D01*
X824247Y110231D01*
X827579D01*
X829245Y108565D01*
Y106899D01*
X822580D01*
X832577Y110231D02*
Y103567D01*
Y106899D01*
X834243Y108565D01*
X835909Y110231D01*
X837576D01*
D51*
X55158Y132500D02*
D03*
X80000D02*
D03*
X144803Y67500D02*
D03*
D52*
X60079Y132500D02*
D03*
X65000D02*
D03*
X89842D02*
D03*
X94764D02*
D03*
X84921D02*
D03*
X99685D02*
D03*
X134961Y67500D02*
D03*
X130039D02*
D03*
X139882D02*
D03*
X125118D02*
D03*
D53*
X181000Y136500D02*
D03*
X117000Y106000D02*
D03*
X151000Y92500D02*
D03*
X152500Y103000D02*
D03*
X114500Y62500D02*
D03*
X239000Y135000D02*
D03*
X114500Y95500D02*
D03*
X119500Y92500D02*
D03*
X137500D02*
D03*
X133500D02*
D03*
X123500Y114500D02*
D03*
X120500Y112000D02*
D03*
X141000Y96500D02*
D03*
X130500Y103000D02*
D03*
Y100000D02*
D03*
X128500Y92500D02*
D03*
X135500Y113500D02*
D03*
X136976Y103610D02*
D03*
X226500Y103000D02*
D03*
Y107000D02*
D03*
X174000Y122000D02*
D03*
Y115500D02*
D03*
X187000Y112500D02*
D03*
X153000Y131500D02*
D03*
X160000Y118500D02*
D03*
X154000Y115000D02*
D03*
X169000Y114000D02*
D03*
X209500Y62000D02*
D03*
X223000Y63000D02*
D03*
X250000Y61000D02*
D03*
X235000D02*
D03*
X234000Y91500D02*
D03*
Y88500D02*
D03*
X230000Y108500D02*
D03*
X267500Y121000D02*
D03*
Y124500D02*
D03*
X248500D02*
D03*
Y128000D02*
D03*
X246000Y121000D02*
D03*
X250000Y138500D02*
D03*
X231500Y134500D02*
D03*
X208500Y108000D02*
D03*
Y104000D02*
D03*
X205000D02*
D03*
X209500Y97500D02*
D03*
Y94500D02*
D03*
Y91000D02*
D03*
Y88000D02*
D03*
Y78500D02*
D03*
Y75500D02*
D03*
Y72500D02*
D03*
X198000Y68000D02*
D03*
X195000D02*
D03*
X192000D02*
D03*
X188500D02*
D03*
X185500D02*
D03*
X182500D02*
D03*
X179500D02*
D03*
X189000Y102000D02*
D03*
X182500D02*
D03*
X185500D02*
D03*
X41500Y97000D02*
D03*
X42000Y111000D02*
D03*
X46000D02*
D03*
Y123000D02*
D03*
X42000D02*
D03*
X27500Y136000D02*
D03*
Y131000D02*
D03*
X48000Y62000D02*
D03*
Y69000D02*
D03*
Y76000D02*
D03*
X31000D02*
D03*
Y62000D02*
D03*
Y69000D02*
D03*
X35000Y76000D02*
D03*
Y69000D02*
D03*
Y62000D02*
D03*
X18000D02*
D03*
Y69000D02*
D03*
Y76000D02*
D03*
X113500Y119000D02*
D03*
X109500D02*
D03*
X267500Y114000D02*
D03*
X261500D02*
D03*
X255000D02*
D03*
X262000Y86000D02*
D03*
X268000D02*
D03*
X254500D02*
D03*
X165500Y79000D02*
D03*
X167000Y91500D02*
D03*
X217000Y122500D02*
D03*
X207000D02*
D03*
Y132500D02*
D03*
X217000D02*
D03*
X211500Y140500D02*
D03*
X198000Y137000D02*
D03*
X201000D02*
D03*
X213000Y115000D02*
D03*
X203000Y118500D02*
D03*
X224500Y135500D02*
D03*
X212000Y127500D02*
D03*
X221500Y118000D02*
D03*
X94000Y99500D02*
D03*
Y96500D02*
D03*
X60000Y101000D02*
D03*
X71500Y73500D02*
D03*
X82000D02*
D03*
X52500Y72500D02*
D03*
X102500Y59500D02*
D03*
Y73500D02*
D03*
X95000Y59500D02*
D03*
X67500D02*
D03*
X61000D02*
D03*
X75000D02*
D03*
Y73500D02*
D03*
X79000Y72500D02*
D03*
X88500Y59500D02*
D03*
Y73500D02*
D03*
X85000D02*
D03*
X61000D02*
D03*
X57000D02*
D03*
X87500Y66500D02*
D03*
X60000D02*
D03*
X153500Y62000D02*
D03*
X131500D02*
D03*
X121000Y63500D02*
D03*
X115500Y79000D02*
D03*
X123500Y79500D02*
D03*
X228000Y131500D02*
D03*
X226000Y127500D02*
D03*
X228000Y125000D02*
D03*
X226500Y122000D02*
D03*
X42500Y83500D02*
D03*
X40000Y85000D02*
D03*
X62500Y116000D02*
D03*
X58000Y123000D02*
D03*
X55000D02*
D03*
X31500Y114500D02*
D03*
X28500D02*
D03*
X31500Y110000D02*
D03*
X28500D02*
D03*
X31500Y90000D02*
D03*
X28500D02*
D03*
X31500Y85500D02*
D03*
X28500D02*
D03*
X22000Y83000D02*
D03*
X18000D02*
D03*
X22000Y86500D02*
D03*
X18000D02*
D03*
X22000Y116500D02*
D03*
Y113000D02*
D03*
X18000D02*
D03*
Y116500D02*
D03*
X47500Y97000D02*
D03*
X60000Y104000D02*
D03*
X53000Y118000D02*
D03*
X50500Y115000D02*
D03*
Y112000D02*
D03*
X90000Y126500D02*
D03*
X86500D02*
D03*
X82000D02*
D03*
X76500D02*
D03*
X73500D02*
D03*
X75000Y95500D02*
D03*
X64500Y97000D02*
D03*
X63500Y93000D02*
D03*
X147516Y75000D02*
D03*
X146500Y132500D02*
D03*
X148500Y135500D02*
D03*
X172000Y128500D02*
D03*
X169000Y130500D02*
D03*
X172000Y133000D02*
D03*
X169000Y135500D02*
D03*
X119500Y82000D02*
D03*
X134016Y80000D02*
D03*
X146457Y129134D02*
D03*
X138976Y118110D02*
D03*
X135039D02*
D03*
X145827Y81653D02*
D03*
X148819Y113386D02*
D03*
X118110Y98484D02*
D03*
X192500Y102000D02*
D03*
X197000Y91000D02*
D03*
X212500Y96000D02*
D03*
X79000Y87500D02*
D03*
X122500Y127500D02*
D03*
X124000Y132000D02*
D03*
X153000Y118500D02*
D03*
X221500Y96000D02*
D03*
X228500Y90500D02*
D03*
X234154Y100500D02*
D03*
X240846D02*
D03*
X234500Y106000D02*
D03*
X244000D02*
D03*
X243000Y111000D02*
D03*
X232500Y117500D02*
D03*
X232000Y121500D02*
D03*
X236000Y127000D02*
D03*
X235000Y135200D02*
D03*
X103500Y138000D02*
D03*
X101000D02*
D03*
X98500D02*
D03*
X96000D02*
D03*
X93500D02*
D03*
X91000D02*
D03*
X241500Y95500D02*
D03*
X114500Y69000D02*
D03*
X121000D02*
D03*
X211500Y111000D02*
D03*
X259000Y130000D02*
D03*
X207862Y111138D02*
D03*
X230000Y113000D02*
D03*
X220500Y139500D02*
D03*
X228500Y135300D02*
D03*
X244000Y127000D02*
D03*
X241000Y121000D02*
D03*
X141500Y80000D02*
D03*
X130000Y96500D02*
D03*
X152500Y106000D02*
D03*
X117000Y110500D02*
D03*
X147000Y118500D02*
D03*
X110000Y100000D02*
D03*
D55*
X36500Y90000D02*
D03*
Y95000D02*
D03*
Y110000D02*
D03*
Y105000D02*
D03*
Y100000D02*
D03*
D58*
X110000D02*
D03*
Y90000D02*
D03*
Y110000D02*
D03*
M02*
