G04 Layer_Color=0*
%FSLAX25Y25*%
%MOIN*%
G70*
G01*
G75*
%ADD49C,0.00500*%
%ADD105C,0.00700*%
G36*
X384431Y-105501D02*
Y-105574D01*
X384358Y-105792D01*
X384285Y-105865D01*
X384139Y-106011D01*
X377724D01*
X376849Y-118987D01*
X383191D01*
X383337Y-119060D01*
X383410Y-119133D01*
X383556Y-119352D01*
Y-119425D01*
X383264Y-122632D01*
X373569D01*
X375100Y-102293D01*
X384649D01*
X384431Y-105501D01*
D02*
G37*
G36*
X353303D02*
X353157Y-105720D01*
X353084Y-105792D01*
Y-105865D01*
X352938Y-106011D01*
X347106D01*
X346960Y-106084D01*
X346887Y-106157D01*
X346814Y-106230D01*
X346596Y-106594D01*
X346523Y-106667D01*
Y-106740D01*
Y-106813D01*
Y-106886D01*
X346450D01*
X345721Y-118040D01*
X345794Y-118404D01*
X345867Y-118550D01*
Y-118623D01*
X346012Y-118769D01*
X346158Y-118914D01*
X346231Y-118987D01*
X351990D01*
X352136Y-119060D01*
X352209Y-119133D01*
X352282Y-119279D01*
Y-119352D01*
Y-119425D01*
X352063Y-122632D01*
X344627D01*
X344263Y-122559D01*
X343971Y-122487D01*
X343534Y-122195D01*
X343169Y-121976D01*
X343096Y-121830D01*
X342805Y-121174D01*
X342659Y-120518D01*
X342586Y-120300D01*
Y-120081D01*
Y-119935D01*
Y-119862D01*
X343680Y-105063D01*
X343826Y-104262D01*
X344044Y-103605D01*
X344336Y-103241D01*
X344409Y-103095D01*
X344700Y-102804D01*
X344992Y-102658D01*
X345502Y-102366D01*
X345940Y-102293D01*
X353521D01*
X353303Y-105501D01*
D02*
G37*
G36*
X304387Y-102439D02*
X304897Y-102658D01*
X305188Y-102949D01*
X305261Y-103022D01*
Y-103095D01*
X305626Y-103751D01*
X305772Y-104407D01*
Y-104626D01*
Y-104845D01*
Y-104991D01*
Y-105063D01*
X304824Y-119862D01*
X304605Y-120664D01*
X304241Y-121247D01*
X304022Y-121685D01*
X303876Y-121758D01*
Y-121830D01*
X303658Y-122122D01*
X303366Y-122268D01*
X302856Y-122559D01*
X302491Y-122632D01*
X297097D01*
X296732Y-122559D01*
X296441Y-122487D01*
X296003Y-122195D01*
X295639Y-121976D01*
X295566Y-121830D01*
X295274Y-121174D01*
X295128Y-120518D01*
Y-120300D01*
Y-120081D01*
Y-119935D01*
Y-119862D01*
X296149Y-104116D01*
X296295Y-103605D01*
X296441Y-103241D01*
X296586Y-102949D01*
X296659Y-102876D01*
X297024Y-102512D01*
X297461Y-102366D01*
X297753Y-102293D01*
X299357D01*
X299211Y-104116D01*
X298190Y-118040D01*
X298263Y-118477D01*
X298336Y-118623D01*
Y-118696D01*
X298482Y-118842D01*
X298700Y-118914D01*
X298773Y-118987D01*
X301106D01*
X301325Y-118914D01*
X301471Y-118842D01*
X301616Y-118769D01*
Y-118696D01*
X301908Y-118258D01*
X301981Y-118113D01*
Y-118040D01*
X302710Y-106886D01*
Y-106667D01*
X302637Y-106449D01*
X302564Y-106376D01*
X302491Y-106303D01*
X302345Y-106157D01*
X302200Y-106011D01*
X299648D01*
X299940Y-102293D01*
X304095D01*
X304387Y-102439D01*
D02*
G37*
G36*
X331360Y-116217D02*
X326548D01*
X327059Y-108781D01*
X331943D01*
X331360Y-116217D01*
D02*
G37*
G36*
X362342Y-102439D02*
X362779Y-102658D01*
X363071Y-102949D01*
X363144Y-103022D01*
Y-103095D01*
X363509Y-103751D01*
X363654Y-104407D01*
Y-104626D01*
Y-104845D01*
Y-104991D01*
Y-105063D01*
X362707Y-119862D01*
X362561Y-120664D01*
X362269Y-121247D01*
X362051Y-121685D01*
X361905Y-121758D01*
Y-121830D01*
X361613Y-122122D01*
X361321Y-122268D01*
X360811Y-122559D01*
X360374Y-122632D01*
X355052D01*
X354761Y-122559D01*
X354469Y-122487D01*
X353959Y-122195D01*
X353667Y-121976D01*
X353521Y-121830D01*
X353230Y-121174D01*
X353084Y-120518D01*
X353011Y-120300D01*
Y-120081D01*
Y-119935D01*
Y-119862D01*
X354177Y-104116D01*
X354250Y-103605D01*
X354396Y-103241D01*
X354542Y-102949D01*
X354615Y-102876D01*
X354979Y-102512D01*
X355417Y-102366D01*
X355708Y-102293D01*
X357239D01*
X357093Y-104116D01*
X356146Y-118040D01*
Y-118258D01*
Y-118477D01*
X356219Y-118623D01*
Y-118696D01*
X356437Y-118842D01*
X356583Y-118914D01*
X356729Y-118987D01*
X358989D01*
X359207Y-118914D01*
X359353Y-118842D01*
X359499Y-118769D01*
Y-118696D01*
X359718Y-118477D01*
X359791Y-118258D01*
X359863Y-118113D01*
Y-118040D01*
X360593Y-106886D01*
Y-106667D01*
X360520Y-106449D01*
X360447Y-106376D01*
X360374Y-106303D01*
X360228Y-106157D01*
X360082Y-106011D01*
X357531D01*
X357822Y-102293D01*
X362051D01*
X362342Y-102439D01*
D02*
G37*
G36*
X293962D02*
X294399Y-102658D01*
X294764Y-102949D01*
X294837Y-103022D01*
Y-103095D01*
X295201Y-103751D01*
X295347Y-104407D01*
X295420Y-104626D01*
Y-104845D01*
Y-104991D01*
Y-105063D01*
X294983Y-111552D01*
X294764Y-112354D01*
X294472Y-112937D01*
X294253Y-113374D01*
X294108Y-113447D01*
Y-113520D01*
X293816Y-113812D01*
X293525Y-113957D01*
X293014Y-114249D01*
X292650Y-114322D01*
X291775D01*
X294181Y-122632D01*
X291192D01*
X288786Y-114322D01*
X289078Y-110604D01*
X291337D01*
X291483Y-110531D01*
X291629Y-110458D01*
X291775Y-110385D01*
X292067Y-110021D01*
X292139Y-109875D01*
Y-109802D01*
Y-109729D01*
Y-109656D01*
X292358Y-106886D01*
Y-106667D01*
X292285Y-106449D01*
X292212Y-106376D01*
X292139Y-106303D01*
X291848Y-106084D01*
X291775Y-106011D01*
X288640D01*
X287474Y-122632D01*
X284485D01*
X285943Y-102293D01*
X293670D01*
X293962Y-102439D01*
D02*
G37*
G36*
X299794Y-81298D02*
X300085Y-81444D01*
X300304Y-81590D01*
X300377Y-81663D01*
X300669Y-82027D01*
X300742Y-82319D01*
X300815Y-82537D01*
Y-82610D01*
Y-85308D01*
X301616Y-85599D01*
X302345Y-85818D01*
X302783Y-85964D01*
X302856Y-86037D01*
X302929D01*
X303658Y-86255D01*
X304241Y-86401D01*
X304678Y-86474D01*
X304751Y-86547D01*
X304824D01*
X305480Y-86693D01*
X306063Y-86839D01*
X306428Y-86911D01*
X306574D01*
X307157Y-86984D01*
X307594Y-87057D01*
X307886Y-87130D01*
X308032D01*
X308469Y-87203D01*
X308761D01*
X308979Y-87276D01*
X383191D01*
X384139Y-87422D01*
X385087Y-87568D01*
X385816Y-87713D01*
X386472Y-87859D01*
X386982Y-88005D01*
X387274Y-88078D01*
X387420Y-88151D01*
X388295Y-88515D01*
X389096Y-88880D01*
X389825Y-89317D01*
X390481Y-89754D01*
X390992Y-90119D01*
X391356Y-90411D01*
X391575Y-90629D01*
X391648Y-90702D01*
X392304Y-91358D01*
X392887Y-92087D01*
X393397Y-92816D01*
X393762Y-93472D01*
X394127Y-94056D01*
X394345Y-94493D01*
X394418Y-94785D01*
X394491Y-94930D01*
X394783Y-95878D01*
X395074Y-96753D01*
X395220Y-97628D01*
X395293Y-98430D01*
X395366Y-99159D01*
X395439Y-99669D01*
Y-100033D01*
Y-100179D01*
Y-118258D01*
X395366Y-119279D01*
X395293Y-120300D01*
X395147Y-121174D01*
X395001Y-121976D01*
X394783Y-122632D01*
X394637Y-123143D01*
X394564Y-123434D01*
X394491Y-123580D01*
X394127Y-124455D01*
X393616Y-125257D01*
X393179Y-125986D01*
X392741Y-126642D01*
X392304Y-127152D01*
X391939Y-127517D01*
X391721Y-127735D01*
X391648Y-127808D01*
X390992Y-128392D01*
X390263Y-128902D01*
X389534Y-129339D01*
X388878Y-129704D01*
X388295Y-129995D01*
X387857Y-130214D01*
X387565Y-130287D01*
X387420Y-130360D01*
X386472Y-130651D01*
X385524Y-130870D01*
X384649Y-131016D01*
X383848Y-131089D01*
X383191Y-131162D01*
X382681Y-131235D01*
X277268D01*
X275883Y-131307D01*
X275300Y-131380D01*
X274789Y-131453D01*
X274425Y-131599D01*
X274133Y-131672D01*
X273914Y-131745D01*
X273842D01*
X272894Y-132109D01*
X272165Y-132547D01*
X271946Y-132765D01*
X271727Y-132911D01*
X271655Y-132984D01*
X271582Y-133057D01*
X270925Y-133786D01*
X270488Y-134515D01*
X270342Y-134880D01*
X270197Y-135098D01*
X270124Y-135244D01*
Y-135317D01*
X269832Y-136338D01*
X269686Y-137358D01*
X269613Y-137868D01*
Y-138160D01*
Y-138452D01*
Y-138525D01*
Y-139254D01*
X269686Y-139837D01*
X269759Y-140420D01*
X269905Y-140930D01*
X269978Y-141295D01*
X270051Y-141586D01*
X270124Y-141732D01*
Y-141805D01*
X270561Y-142680D01*
X271071Y-143409D01*
X271436Y-143846D01*
X271509Y-143919D01*
X271582Y-143992D01*
X272311Y-144502D01*
X273040Y-144940D01*
X273331Y-145086D01*
X273623Y-145231D01*
X273769Y-145304D01*
X273842D01*
X275008Y-145596D01*
X276101Y-145742D01*
X276539Y-145815D01*
X277924D01*
X278653Y-145742D01*
X279017D01*
X279309Y-145669D01*
X279601D01*
X280330Y-145523D01*
X281132Y-145377D01*
X281860Y-145231D01*
X282590Y-145013D01*
X283246Y-144794D01*
X283829Y-144648D01*
X284120Y-144575D01*
X284266Y-144502D01*
X284339D01*
X284412Y-144430D01*
X285797Y-143992D01*
X286453Y-143773D01*
X287036Y-143482D01*
X287547Y-143263D01*
X287984Y-143117D01*
X288276Y-143044D01*
X288349Y-142972D01*
X290025Y-142243D01*
X290827Y-141805D01*
X291556Y-141514D01*
X292139Y-141149D01*
X292650Y-140930D01*
X292941Y-140785D01*
X293087Y-140712D01*
X293306Y-140639D01*
X293379D01*
X293670Y-140566D01*
X297461D01*
X301106Y-140639D01*
X304605D01*
X306209Y-140712D01*
X311531D01*
X312478Y-140785D01*
X314301D01*
X318238Y-140857D01*
X322101Y-140930D01*
X325673D01*
X327277Y-141003D01*
X328808D01*
X330266Y-141076D01*
X333547D01*
X334349Y-141149D01*
X335369D01*
X339233Y-141222D01*
X342951D01*
X344700Y-141295D01*
X347908D01*
X349366Y-141368D01*
X353011D01*
X353886Y-141441D01*
X355562D01*
X359135Y-141514D01*
X362488D01*
X364019Y-141586D01*
X366862D01*
X368101Y-141659D01*
X371163D01*
X371965Y-141732D01*
X373860D01*
X374298Y-141659D01*
X374662D01*
X375027Y-141514D01*
X375318Y-141441D01*
X375464Y-141368D01*
X375537D01*
X375756Y-141222D01*
X375829Y-141149D01*
X375902Y-141076D01*
X375974Y-140857D01*
X376047Y-140566D01*
Y-140274D01*
Y-140201D01*
X376193Y-139399D01*
X376412Y-138743D01*
X376630Y-138379D01*
X376776Y-138233D01*
X377068Y-137941D01*
X377360Y-137723D01*
X377943Y-137431D01*
X378380Y-137358D01*
X378890D01*
X379255Y-137504D01*
X379838Y-137796D01*
X380130Y-138087D01*
X380276Y-138160D01*
Y-138233D01*
X380713Y-138889D01*
X380932Y-139545D01*
X381005Y-139764D01*
Y-139983D01*
Y-140128D01*
Y-140201D01*
Y-143992D01*
X388295D01*
X388951Y-144065D01*
X389534Y-144138D01*
X390044Y-144357D01*
X390481Y-144575D01*
X390846Y-144794D01*
X391138Y-144940D01*
X391283Y-145086D01*
X391356Y-145159D01*
X391794Y-145596D01*
X392158Y-146033D01*
X392450Y-146544D01*
X392596Y-146981D01*
X392741Y-147345D01*
X392814Y-147637D01*
X392887Y-147856D01*
Y-147929D01*
X396678D01*
X396824Y-148002D01*
X396897Y-148074D01*
Y-148147D01*
X397042Y-148293D01*
X397115Y-148512D01*
Y-148585D01*
Y-148658D01*
Y-148876D01*
X397042Y-149022D01*
X396970Y-149095D01*
X396897Y-149168D01*
X396605Y-149314D01*
X392887D01*
X392741Y-149970D01*
X392523Y-150480D01*
X392304Y-150990D01*
X392012Y-151428D01*
X391794Y-151792D01*
X391575Y-152011D01*
X391429Y-152157D01*
X391356Y-152230D01*
X390846Y-152594D01*
X390336Y-152886D01*
X389825Y-153032D01*
X389315Y-153177D01*
X388951Y-153250D01*
X388586Y-153323D01*
X381005D01*
Y-157041D01*
X380859Y-157843D01*
X380640Y-158426D01*
X380421Y-158864D01*
X380276Y-158937D01*
Y-159010D01*
X379984Y-159301D01*
X379692Y-159520D01*
X379182Y-159739D01*
X378745Y-159884D01*
X378526D01*
X378161Y-159811D01*
X377797Y-159739D01*
X377287Y-159447D01*
X376922Y-159155D01*
X376776Y-159010D01*
X376339Y-158353D01*
X376120Y-157697D01*
X376047Y-157187D01*
Y-157114D01*
Y-157041D01*
Y-156604D01*
X375974Y-156312D01*
X375902Y-156166D01*
X375829Y-156021D01*
X375683Y-155948D01*
X375610Y-155875D01*
X375537D01*
X375245Y-155729D01*
X375027Y-155656D01*
X374735Y-155583D01*
X374662D01*
X374225Y-155510D01*
X373350D01*
X370288Y-155583D01*
X367226D01*
X364165Y-155656D01*
X362779D01*
X361467Y-155729D01*
X358041D01*
X357239Y-155802D01*
X355562D01*
X351917Y-155875D01*
X348272D01*
X346523Y-155948D01*
X343315D01*
X341784Y-156021D01*
X338066D01*
X337119Y-156094D01*
X335369D01*
X331505Y-156166D01*
X327715Y-156239D01*
X324143D01*
X322466Y-156312D01*
X320935D01*
X319477Y-156385D01*
X316124D01*
X315322Y-156458D01*
X314301D01*
X310364Y-156531D01*
X306574D01*
X304824Y-156604D01*
X298700D01*
X297461Y-156677D01*
X293743D01*
X293525Y-156604D01*
X293379D01*
X293160Y-156531D01*
X293087D01*
X290681Y-155292D01*
X289515Y-154781D01*
X288494Y-154344D01*
X287547Y-153979D01*
X286672Y-153615D01*
X285797Y-153323D01*
X285068Y-153032D01*
X284412Y-152813D01*
X283829Y-152667D01*
X283391Y-152521D01*
X282954Y-152376D01*
X282662Y-152303D01*
X282444Y-152230D01*
X282225D01*
X281496Y-152084D01*
X280840Y-152011D01*
X279746Y-151792D01*
X278944Y-151647D01*
X278288Y-151574D01*
X277851Y-151501D01*
X277559Y-151428D01*
X277268D01*
X276247Y-151355D01*
X275300Y-151282D01*
X274352Y-151136D01*
X273550Y-150990D01*
X272894Y-150845D01*
X272383Y-150772D01*
X272092Y-150626D01*
X271946D01*
X271071Y-150261D01*
X270197Y-149897D01*
X269467Y-149460D01*
X268884Y-149022D01*
X268374Y-148658D01*
X267937Y-148366D01*
X267718Y-148147D01*
X267645Y-148074D01*
X267062Y-147418D01*
X266479Y-146689D01*
X266041Y-145960D01*
X265677Y-145304D01*
X265312Y-144794D01*
X265093Y-144284D01*
X265021Y-143992D01*
X264948Y-143919D01*
X264656Y-142972D01*
X264437Y-142024D01*
X264219Y-141149D01*
X264146Y-140274D01*
X264073Y-139545D01*
X264000Y-139035D01*
Y-138670D01*
Y-138525D01*
X264073Y-137504D01*
X264146Y-136483D01*
X264292Y-135609D01*
X264510Y-134807D01*
X264656Y-134151D01*
X264802Y-133640D01*
X264875Y-133349D01*
X264948Y-133203D01*
X265312Y-132328D01*
X265750Y-131526D01*
X266187Y-130797D01*
X266624Y-130141D01*
X267062Y-129631D01*
X267353Y-129266D01*
X267572Y-129048D01*
X267645Y-128975D01*
X268374Y-128392D01*
X269103Y-127881D01*
X269832Y-127444D01*
X270488Y-127079D01*
X271071Y-126861D01*
X271509Y-126642D01*
X271873Y-126496D01*
X271946D01*
X272894Y-126205D01*
X273842Y-125986D01*
X274789Y-125840D01*
X275591Y-125694D01*
X276247D01*
X276830Y-125621D01*
X382900D01*
X383556Y-125548D01*
X384066Y-125476D01*
X384577Y-125330D01*
X385014Y-125257D01*
X385306Y-125184D01*
X385451Y-125111D01*
X385524D01*
X386472Y-124674D01*
X387201Y-124236D01*
X387493Y-124018D01*
X387711Y-123872D01*
X387784Y-123726D01*
X387857D01*
X388440Y-123070D01*
X388878Y-122341D01*
X389023Y-122049D01*
X389169Y-121830D01*
X389242Y-121685D01*
Y-121612D01*
X389607Y-120518D01*
X389753Y-119425D01*
X389825Y-118987D01*
Y-118623D01*
Y-118331D01*
Y-118258D01*
Y-100179D01*
Y-99450D01*
X389753Y-98867D01*
X389680Y-98284D01*
X389534Y-97773D01*
X389461Y-97409D01*
X389315Y-97117D01*
X389242Y-96972D01*
Y-96899D01*
X388805Y-96024D01*
X388367Y-95368D01*
X388003Y-94930D01*
X387930Y-94785D01*
X387857D01*
X387128Y-94201D01*
X386326Y-93764D01*
X386035Y-93618D01*
X385743Y-93472D01*
X385597Y-93400D01*
X385524D01*
X384431Y-93108D01*
X383337Y-92962D01*
X382900Y-92889D01*
X308396D01*
X308104Y-92962D01*
X308032D01*
X307521Y-93035D01*
X307084Y-93108D01*
X306719Y-93181D01*
X306646Y-93254D01*
X306574D01*
X305990Y-93400D01*
X305407Y-93545D01*
X304970Y-93618D01*
X304897Y-93691D01*
X304824D01*
X304168Y-93837D01*
X303585Y-94056D01*
X303074Y-94129D01*
X303001Y-94201D01*
X302929D01*
X302200Y-94420D01*
X301543Y-94639D01*
X301252Y-94785D01*
X301033Y-94858D01*
X300887Y-94930D01*
X300815D01*
Y-97555D01*
X300742Y-97992D01*
X300596Y-98284D01*
X300450Y-98502D01*
X300377Y-98575D01*
X300013Y-98794D01*
X299721Y-98940D01*
X299502Y-99013D01*
X278872D01*
X278434Y-98940D01*
X278143Y-98794D01*
X277924Y-98648D01*
X277851Y-98575D01*
X277632Y-98211D01*
X277559Y-97919D01*
X277486Y-97628D01*
Y-97555D01*
Y-96097D01*
X268593D01*
X268228Y-96024D01*
X267937Y-95951D01*
X267791Y-95878D01*
X267718Y-95805D01*
X267572Y-95514D01*
X267499Y-95295D01*
X267426Y-95076D01*
Y-95003D01*
Y-94930D01*
Y-85235D01*
X267499Y-84943D01*
X267572Y-84724D01*
X267645Y-84579D01*
X267718Y-84506D01*
X268009Y-84287D01*
X268301Y-84214D01*
X268520Y-84141D01*
X277486D01*
Y-82610D01*
X277559Y-82246D01*
X277705Y-81954D01*
X277778Y-81735D01*
X277851Y-81663D01*
X278216Y-81371D01*
X278507Y-81298D01*
X278799Y-81225D01*
X299429D01*
X299794Y-81298D01*
D02*
G37*
G36*
X314811Y-102439D02*
X315249Y-102658D01*
X315613Y-102949D01*
X315686Y-103022D01*
Y-103095D01*
X316051Y-103751D01*
X316196Y-104407D01*
Y-104626D01*
Y-104845D01*
Y-104991D01*
Y-105063D01*
X315832Y-110167D01*
X315759Y-110677D01*
X315613Y-111114D01*
X315540Y-111406D01*
X315467Y-111479D01*
X315249Y-111843D01*
X315030Y-112135D01*
X314811Y-112354D01*
X314738Y-112426D01*
X314957Y-112718D01*
X315176Y-113083D01*
X315249Y-113301D01*
X315322Y-113447D01*
X315467Y-113884D01*
Y-114322D01*
Y-114613D01*
Y-114759D01*
X315176Y-119862D01*
X315030Y-120664D01*
X314738Y-121247D01*
X314520Y-121685D01*
X314374Y-121758D01*
Y-121830D01*
X314082Y-122122D01*
X313791Y-122268D01*
X313280Y-122559D01*
X312843Y-122632D01*
X309052D01*
X309271Y-118987D01*
X311458D01*
X311677Y-118914D01*
X311895Y-118842D01*
X311968Y-118769D01*
X312041Y-118696D01*
X312260Y-118258D01*
X312333Y-118113D01*
Y-118040D01*
X312478Y-115197D01*
Y-114978D01*
X312406Y-114759D01*
X312333Y-114686D01*
Y-114613D01*
X312187Y-114468D01*
X312041Y-114322D01*
X309635D01*
X309708Y-112937D01*
X309781Y-111989D01*
X309854Y-110604D01*
X312114D01*
X312333Y-110531D01*
X312478Y-110458D01*
X312624Y-110385D01*
Y-110312D01*
X312770Y-110094D01*
X312843Y-109875D01*
Y-109729D01*
Y-109656D01*
X313062Y-106886D01*
Y-106667D01*
X312989Y-106449D01*
X312916Y-106376D01*
X312843Y-106303D01*
X312697Y-106157D01*
X312551Y-106011D01*
X309490D01*
X308250Y-122632D01*
X305334D01*
X306719Y-102293D01*
X314520D01*
X314811Y-102439D01*
D02*
G37*
G36*
X342878Y-105501D02*
X342805Y-105720D01*
X342732Y-105792D01*
Y-105865D01*
X342513Y-106011D01*
X336900D01*
X336681Y-106084D01*
X336536Y-106157D01*
X336463Y-106230D01*
X336390Y-106303D01*
X336171Y-106667D01*
X336098Y-106813D01*
Y-106886D01*
X335952Y-109656D01*
Y-109875D01*
X336025Y-110094D01*
X336098Y-110239D01*
Y-110312D01*
X336244Y-110458D01*
X336463Y-110531D01*
X336536Y-110604D01*
X341420D01*
X341711Y-110677D01*
X341930Y-110823D01*
X342076Y-110968D01*
X342149Y-111041D01*
X342295Y-111333D01*
X342440Y-111625D01*
Y-111916D01*
Y-111989D01*
X342295Y-113374D01*
X342222Y-115197D01*
X341857Y-119862D01*
X341711Y-120664D01*
X341420Y-121247D01*
X341201Y-121685D01*
X341055Y-121758D01*
Y-121830D01*
X340837Y-122122D01*
X340545Y-122268D01*
X340035Y-122559D01*
X339597Y-122632D01*
X332016D01*
X332234Y-119425D01*
X332307Y-119206D01*
X332380Y-119133D01*
X332599Y-118987D01*
X338212D01*
X338431Y-118914D01*
X338650Y-118842D01*
X338722Y-118769D01*
X338795Y-118696D01*
X338941Y-118477D01*
X339014Y-118258D01*
Y-118113D01*
Y-118040D01*
X339233Y-115197D01*
Y-114978D01*
X339160Y-114759D01*
X339087Y-114686D01*
X339014Y-114613D01*
X338868Y-114468D01*
X338722Y-114322D01*
X333692D01*
X333401Y-114249D01*
X333182Y-114103D01*
X333036Y-114030D01*
X332963Y-113957D01*
X332818Y-113593D01*
X332745Y-113301D01*
X332672Y-113010D01*
Y-112937D01*
X332745Y-111552D01*
X332963Y-109656D01*
X333182Y-106886D01*
X333255Y-105063D01*
X333401Y-104262D01*
X333692Y-103605D01*
X333911Y-103241D01*
X334057Y-103095D01*
X334349Y-102804D01*
X334640Y-102658D01*
X335150Y-102366D01*
X335588Y-102293D01*
X343096D01*
X342878Y-105501D01*
D02*
G37*
G36*
X326548D02*
Y-105574D01*
X326475Y-105792D01*
X326402Y-105865D01*
X326257Y-106011D01*
X319841D01*
X318967Y-118987D01*
X325309D01*
X325382Y-119060D01*
X325455Y-119133D01*
X325528Y-119206D01*
Y-119352D01*
Y-119425D01*
X325309Y-122632D01*
X315686D01*
X317071Y-102293D01*
X326767D01*
X326548Y-105501D01*
D02*
G37*
G36*
X283610Y-102439D02*
X284048Y-102658D01*
X284412Y-102949D01*
X284485Y-103022D01*
Y-103095D01*
X284704Y-103387D01*
X284849Y-103751D01*
X284995Y-104407D01*
Y-104626D01*
Y-104845D01*
Y-104991D01*
Y-105063D01*
X284558Y-111552D01*
X284412Y-112354D01*
X284120Y-112937D01*
X283902Y-113374D01*
X283756Y-113447D01*
Y-113520D01*
X283464Y-113812D01*
X283173Y-113957D01*
X282662Y-114249D01*
X282225Y-114322D01*
X278434D01*
X278653Y-110604D01*
X280913D01*
X281132Y-110531D01*
X281277Y-110458D01*
X281423Y-110385D01*
X281642Y-110021D01*
X281715Y-109875D01*
Y-109802D01*
Y-109729D01*
Y-109656D01*
X281860Y-106886D01*
Y-106667D01*
Y-106449D01*
X281788Y-106376D01*
Y-106303D01*
X281496Y-106084D01*
X281423Y-106011D01*
X278288D01*
X277122Y-122632D01*
X274133D01*
X275591Y-102293D01*
X283318D01*
X283610Y-102439D01*
D02*
G37*
G36*
X383410Y-114322D02*
X377724D01*
X378016Y-110604D01*
X383775D01*
X383410Y-114322D01*
D02*
G37*
G36*
X372694Y-102439D02*
X373131Y-102658D01*
X373496Y-102949D01*
X373569Y-103022D01*
Y-103095D01*
X373787Y-103387D01*
X373933Y-103751D01*
X374079Y-104407D01*
Y-104626D01*
Y-104845D01*
Y-104991D01*
Y-105063D01*
X373714Y-111552D01*
X373496Y-112354D01*
X373204Y-112937D01*
X372986Y-113374D01*
X372840Y-113447D01*
Y-113520D01*
X372548Y-113812D01*
X372256Y-113957D01*
X371746Y-114249D01*
X371382Y-114322D01*
X367518D01*
X367737Y-110604D01*
X369997D01*
X370215Y-110531D01*
X370361Y-110458D01*
X370507Y-110385D01*
X370653Y-110167D01*
X370726Y-110021D01*
Y-109875D01*
Y-109802D01*
X370798Y-109729D01*
X370871Y-109656D01*
X371017Y-106886D01*
Y-106667D01*
X370944Y-106449D01*
X370871Y-106376D01*
X370798Y-106303D01*
X370580Y-106084D01*
X370507Y-106011D01*
X367372D01*
X366206Y-122632D01*
X363217D01*
X364602Y-102293D01*
X372402D01*
X372694Y-102439D01*
D02*
G37*
G36*
X325528Y-114322D02*
X319769D01*
X320060Y-110604D01*
X325892D01*
X325528Y-114322D01*
D02*
G37*
%LPC*%
G36*
X286672Y-146544D02*
X286307Y-146762D01*
X286162Y-146835D01*
X286089D01*
X285797Y-146908D01*
X285724Y-146981D01*
X285651D01*
Y-150334D01*
X285943Y-150407D01*
X286089Y-150480D01*
X286526Y-150553D01*
X286599Y-150626D01*
X286672D01*
Y-146544D01*
D02*
G37*
G36*
X288640Y-145815D02*
X288276Y-145960D01*
X288203Y-146033D01*
X288130D01*
X287765Y-146179D01*
X287692Y-146252D01*
X287620D01*
Y-151063D01*
X287984Y-151209D01*
X288130Y-151282D01*
X288494Y-151355D01*
X288640Y-151428D01*
Y-145815D01*
D02*
G37*
G36*
X388440Y-146762D02*
X388149D01*
Y-150480D01*
X388295D01*
X388805Y-150407D01*
X389169Y-150189D01*
X389461Y-150043D01*
X389534Y-149970D01*
X389898Y-149532D01*
X390044Y-149095D01*
X390117Y-148803D01*
Y-148658D01*
X390044Y-148147D01*
X389825Y-147710D01*
X389607Y-147418D01*
X389534Y-147345D01*
X389096Y-146981D01*
X388732Y-146835D01*
X388440Y-146762D01*
D02*
G37*
G36*
X387201D02*
X381005D01*
Y-150480D01*
X387201D01*
Y-146762D01*
D02*
G37*
G36*
X297315Y-143336D02*
X294764D01*
Y-153907D01*
X298409D01*
X301981Y-153834D01*
X305334D01*
X306938Y-153761D01*
X311020D01*
X312114Y-153688D01*
X314811D01*
X318675Y-153615D01*
X322393Y-153542D01*
X327423D01*
X328881Y-153469D01*
X331505D01*
X332599Y-153396D01*
X335223D01*
X338941Y-153323D01*
X342586Y-153250D01*
X347398D01*
X348856Y-153177D01*
X351334D01*
X352355Y-153105D01*
X354833D01*
X358333Y-153032D01*
X360009D01*
X361613Y-152959D01*
X365914D01*
X367226Y-152886D01*
X369340D01*
X370288Y-152813D01*
X372402D01*
Y-144502D01*
X369340Y-144430D01*
X366279Y-144357D01*
X361905D01*
X360593Y-144284D01*
X358260D01*
X357312Y-144211D01*
X354833D01*
X351261Y-144138D01*
X347762Y-144065D01*
X342951D01*
X341493Y-143992D01*
X338941D01*
X337848Y-143919D01*
X335223D01*
X331433Y-143846D01*
X327787Y-143773D01*
X326038Y-143701D01*
X322757D01*
X321227Y-143628D01*
X317509D01*
X316561Y-143555D01*
X310948D01*
X307303Y-143482D01*
X303949D01*
X302345Y-143409D01*
X298409D01*
X297315Y-143336D01*
D02*
G37*
G36*
X378234Y-141441D02*
X378088Y-141951D01*
X377870Y-142388D01*
X377724Y-142680D01*
X377651Y-142826D01*
X377432Y-143336D01*
X377141Y-143628D01*
X376922Y-143846D01*
X376849Y-143919D01*
X376339Y-144138D01*
X375974Y-144211D01*
X375683Y-144357D01*
X375537D01*
X375100Y-144430D01*
X374808D01*
X374516Y-144502D01*
X374444D01*
Y-152813D01*
X374808Y-152886D01*
X375172Y-152959D01*
X375464Y-153032D01*
X375537D01*
X376047Y-153105D01*
X376412Y-153250D01*
X376703Y-153323D01*
X376849Y-153396D01*
X377214Y-153688D01*
X377432Y-154052D01*
X377578Y-154344D01*
X377651Y-154490D01*
X377870Y-155000D01*
X378088Y-155365D01*
X378161Y-155656D01*
X378234Y-155802D01*
Y-141441D01*
D02*
G37*
G36*
X290754Y-144940D02*
X290317Y-145159D01*
X290244Y-145231D01*
X290171D01*
X289807Y-145377D01*
X289734Y-145450D01*
X289661D01*
Y-151865D01*
X290025Y-152011D01*
X290171Y-152084D01*
X290536Y-152230D01*
X290681Y-152303D01*
X290754Y-152376D01*
Y-144940D01*
D02*
G37*
G36*
X292723Y-144065D02*
X292358Y-144211D01*
X292212Y-144284D01*
X292139D01*
X291848Y-144430D01*
X291775Y-144502D01*
X291702D01*
Y-152813D01*
X291994Y-152959D01*
X292139Y-153032D01*
X292577Y-153177D01*
X292650Y-153250D01*
X292723D01*
Y-144065D01*
D02*
G37*
G36*
X300887Y-88224D02*
X300815D01*
Y-91941D01*
X301106Y-91869D01*
X301179Y-91796D01*
X301471Y-91650D01*
X301616D01*
Y-88515D01*
X301325Y-88442D01*
X301252Y-88369D01*
X301179D01*
X300960Y-88297D01*
X300887Y-88224D01*
D02*
G37*
G36*
X277486Y-86401D02*
X269686D01*
Y-93837D01*
X277486D01*
Y-86401D01*
D02*
G37*
G36*
X298044Y-83995D02*
X280257D01*
Y-96170D01*
X298044D01*
Y-83995D01*
D02*
G37*
G36*
X302637Y-88880D02*
Y-91285D01*
X303439Y-90994D01*
Y-89244D01*
X302637Y-88880D01*
D02*
G37*
G36*
X282590Y-148220D02*
X281423Y-148658D01*
X282590Y-149095D01*
Y-148220D01*
D02*
G37*
G36*
X284631Y-147345D02*
X283537Y-147783D01*
Y-149532D01*
X284631Y-149897D01*
Y-147345D01*
D02*
G37*
G36*
X304314Y-89609D02*
Y-90629D01*
X305553Y-90046D01*
X304314Y-89609D01*
D02*
G37*
%LPD*%
G36*
X274279Y-89317D02*
X272602D01*
Y-87276D01*
X274279D01*
Y-89317D01*
D02*
G37*
G36*
Y-92816D02*
X272602D01*
Y-90848D01*
X274279D01*
Y-92816D01*
D02*
G37*
D49*
X890000Y-195000D02*
Y-75000D01*
X217500D02*
X440000D01*
Y-105000D02*
X590000D01*
X440000Y-195000D02*
X890000D01*
X440000Y-165000D02*
X890000D01*
X440000Y-135000D02*
X890000D01*
X440000Y-75000D02*
X590000D01*
Y-135000D02*
Y-75000D01*
X890000D01*
X440000Y-195000D02*
Y-75000D01*
X800000Y-195000D02*
Y-135000D01*
X590000Y-195000D02*
Y-135000D01*
X217500Y-195000D02*
X440000D01*
X217500D02*
Y-75000D01*
Y-205000D02*
Y-195000D01*
X-190000Y-225000D02*
X910000D01*
X-170000Y-205000D02*
Y605000D01*
X-190000Y-225000D02*
Y625000D01*
Y412500D02*
X-170000D01*
X-190000Y200000D02*
X-170000D01*
X-190000Y-12500D02*
X-170000D01*
X85000Y-225000D02*
Y-205000D01*
X360000Y-225000D02*
Y-205000D01*
X635000Y-225000D02*
Y-205000D01*
X-170000D02*
X890000D01*
X-170000Y605000D02*
X890000D01*
X85000D02*
Y625000D01*
X360000Y605000D02*
Y625000D01*
X635000Y605000D02*
Y625000D01*
X-190000D02*
X910000D01*
Y-225000D02*
Y625000D01*
X890000Y-205000D02*
Y605000D01*
Y412500D02*
X910000D01*
X890000Y200000D02*
X910000D01*
X890000Y-12500D02*
X910000D01*
X445000Y-140501D02*
Y-145000D01*
Y-140501D02*
X446500D01*
X447142Y-140715D01*
X447571Y-141144D01*
X447785Y-141572D01*
X447999Y-142215D01*
Y-143286D01*
X447785Y-143929D01*
X447571Y-144357D01*
X447142Y-144786D01*
X446500Y-145000D01*
X445000D01*
X452434D02*
X450720Y-140501D01*
X449006Y-145000D01*
X449649Y-143500D02*
X451791D01*
X454984Y-140501D02*
Y-145000D01*
X453484Y-140501D02*
X456483D01*
X459804D02*
X457019D01*
Y-145000D01*
X459804D01*
X457019Y-142643D02*
X458733D01*
X460768Y-142001D02*
X460554Y-142215D01*
X460768Y-142429D01*
X460982Y-142215D01*
X460768Y-142001D01*
Y-144571D02*
X460554Y-144786D01*
X460768Y-145000D01*
X460982Y-144786D01*
X460768Y-144571D01*
X805000Y-140501D02*
Y-145000D01*
Y-140501D02*
X806928D01*
X807571Y-140715D01*
X807785Y-140929D01*
X807999Y-141358D01*
Y-141786D01*
X807785Y-142215D01*
X807571Y-142429D01*
X806928Y-142643D01*
X805000D01*
X806500D02*
X807999Y-145000D01*
X811791Y-140501D02*
X809006D01*
Y-145000D01*
X811791D01*
X809006Y-142643D02*
X810720D01*
X812541Y-140501D02*
X814255Y-145000D01*
X815969Y-140501D02*
X814255Y-145000D01*
X816762Y-142001D02*
X816547Y-142215D01*
X816762Y-142429D01*
X816976Y-142215D01*
X816762Y-142001D01*
Y-144571D02*
X816547Y-144786D01*
X816762Y-145000D01*
X816976Y-144786D01*
X816762Y-144571D01*
X595000Y-170501D02*
Y-175000D01*
Y-170501D02*
X596500D01*
X597142Y-170715D01*
X597571Y-171144D01*
X597785Y-171572D01*
X597999Y-172215D01*
Y-173286D01*
X597785Y-173929D01*
X597571Y-174357D01*
X597142Y-174786D01*
X596500Y-175000D01*
X595000D01*
X599006Y-170501D02*
X600077Y-175000D01*
X601149Y-170501D02*
X600077Y-175000D01*
X601149Y-170501D02*
X602220Y-175000D01*
X603291Y-170501D02*
X602220Y-175000D01*
X607405Y-171572D02*
X607190Y-171144D01*
X606762Y-170715D01*
X606333Y-170501D01*
X605476D01*
X605048Y-170715D01*
X604619Y-171144D01*
X604405Y-171572D01*
X604191Y-172215D01*
Y-173286D01*
X604405Y-173929D01*
X604619Y-174357D01*
X605048Y-174786D01*
X605476Y-175000D01*
X606333D01*
X606762Y-174786D01*
X607190Y-174357D01*
X607405Y-173929D01*
Y-173286D01*
X606333D02*
X607405D01*
X611968Y-170501D02*
Y-175000D01*
Y-170501D02*
X614967Y-175000D01*
Y-170501D02*
Y-175000D01*
X617495Y-170501D02*
X617067Y-170715D01*
X616638Y-171144D01*
X616424Y-171572D01*
X616210Y-172215D01*
Y-173286D01*
X616424Y-173929D01*
X616638Y-174357D01*
X617067Y-174786D01*
X617495Y-175000D01*
X618352D01*
X618781Y-174786D01*
X619209Y-174357D01*
X619423Y-173929D01*
X619638Y-173286D01*
Y-172215D01*
X619423Y-171572D01*
X619209Y-171144D01*
X618781Y-170715D01*
X618352Y-170501D01*
X617495D01*
X620902Y-172001D02*
X620687Y-172215D01*
X620902Y-172429D01*
X621116Y-172215D01*
X620902Y-172001D01*
Y-174572D02*
X620687Y-174786D01*
X620902Y-175000D01*
X621116Y-174786D01*
X620902Y-174572D01*
X447785Y-80501D02*
X445000D01*
Y-85000D01*
X447785D01*
X445000Y-82643D02*
X446714D01*
X448535Y-80501D02*
Y-85000D01*
Y-80501D02*
X451534Y-85000D01*
Y-80501D02*
Y-85000D01*
X455991Y-81572D02*
X455776Y-81144D01*
X455348Y-80715D01*
X454919Y-80501D01*
X454062D01*
X453634Y-80715D01*
X453205Y-81144D01*
X452991Y-81572D01*
X452777Y-82215D01*
Y-83286D01*
X452991Y-83929D01*
X453205Y-84357D01*
X453634Y-84786D01*
X454062Y-85000D01*
X454919D01*
X455348Y-84786D01*
X455776Y-84357D01*
X455991Y-83929D01*
Y-83286D01*
X454919D02*
X455991D01*
X457019Y-80501D02*
Y-85000D01*
X457962Y-80501D02*
Y-85000D01*
Y-80501D02*
X460961Y-85000D01*
Y-80501D02*
Y-85000D01*
X464989Y-80501D02*
X462204D01*
Y-85000D01*
X464989D01*
X462204Y-82643D02*
X463917D01*
X468524Y-80501D02*
X465738D01*
Y-85000D01*
X468524D01*
X465738Y-82643D02*
X467452D01*
X469273Y-80501D02*
Y-85000D01*
Y-80501D02*
X471202D01*
X471844Y-80715D01*
X472058Y-80929D01*
X472273Y-81358D01*
Y-81786D01*
X472058Y-82215D01*
X471844Y-82429D01*
X471202Y-82643D01*
X469273D01*
X470773D02*
X472273Y-85000D01*
X473494Y-82001D02*
X473280Y-82215D01*
X473494Y-82429D01*
X473708Y-82215D01*
X473494Y-82001D01*
Y-84571D02*
X473280Y-84786D01*
X473494Y-85000D01*
X473708Y-84786D01*
X473494Y-84571D01*
X595000Y-142858D02*
X596928D01*
X597571Y-142643D01*
X597785Y-142429D01*
X597999Y-142001D01*
Y-141358D01*
X597785Y-140929D01*
X597571Y-140715D01*
X596928Y-140501D01*
X595000D01*
Y-145000D01*
X602434D02*
X600720Y-140501D01*
X599006Y-145000D01*
X599649Y-143500D02*
X601791D01*
X603484Y-140501D02*
Y-145000D01*
Y-140501D02*
X605412D01*
X606055Y-140715D01*
X606269Y-140929D01*
X606483Y-141358D01*
Y-141786D01*
X606269Y-142215D01*
X606055Y-142429D01*
X605412Y-142643D01*
X603484D01*
X604984D02*
X606483Y-145000D01*
X608990Y-140501D02*
Y-145000D01*
X607490Y-140501D02*
X610490D01*
X614560D02*
Y-145000D01*
Y-140501D02*
X617559Y-145000D01*
Y-140501D02*
Y-145000D01*
X620087Y-140501D02*
X619659Y-140715D01*
X619231Y-141144D01*
X619016Y-141572D01*
X618802Y-142215D01*
Y-143286D01*
X619016Y-143929D01*
X619231Y-144357D01*
X619659Y-144786D01*
X620087Y-145000D01*
X620944D01*
X621373Y-144786D01*
X621801Y-144357D01*
X622016Y-143929D01*
X622230Y-143286D01*
Y-142215D01*
X622016Y-141572D01*
X621801Y-141144D01*
X621373Y-140715D01*
X620944Y-140501D01*
X620087D01*
X623494Y-144571D02*
X623280Y-144786D01*
X623494Y-145000D01*
X623708Y-144786D01*
X623494Y-144571D01*
X624908Y-142001D02*
X624694Y-142215D01*
X624908Y-142429D01*
X625122Y-142215D01*
X624908Y-142001D01*
Y-144571D02*
X624694Y-144786D01*
X624908Y-145000D01*
X625122Y-144786D01*
X624908Y-144571D01*
X596500Y-80501D02*
Y-85000D01*
X595000Y-80501D02*
X597999D01*
X598535D02*
Y-85000D01*
X600977Y-80501D02*
Y-85000D01*
X599478Y-80501D02*
X602477D01*
X603013D02*
Y-85000D01*
X605583D01*
X608861Y-80501D02*
X606076D01*
Y-85000D01*
X608861D01*
X606076Y-82643D02*
X607790D01*
X609825Y-82001D02*
X609611Y-82215D01*
X609825Y-82429D01*
X610040Y-82215D01*
X609825Y-82001D01*
Y-84571D02*
X609611Y-84786D01*
X609825Y-85000D01*
X610040Y-84786D01*
X609825Y-84571D01*
X445000Y-112358D02*
X446928D01*
X447571Y-112143D01*
X447785Y-111929D01*
X447999Y-111501D01*
Y-110858D01*
X447785Y-110429D01*
X447571Y-110215D01*
X446928Y-110001D01*
X445000D01*
Y-114500D01*
X452220Y-111072D02*
X452006Y-110644D01*
X451577Y-110215D01*
X451149Y-110001D01*
X450292D01*
X449863Y-110215D01*
X449435Y-110644D01*
X449221Y-111072D01*
X449006Y-111715D01*
Y-112786D01*
X449221Y-113429D01*
X449435Y-113857D01*
X449863Y-114286D01*
X450292Y-114500D01*
X451149D01*
X451577Y-114286D01*
X452006Y-113857D01*
X452220Y-113429D01*
X453484Y-110001D02*
Y-114500D01*
Y-110001D02*
X455412D01*
X456055Y-110215D01*
X456269Y-110429D01*
X456483Y-110858D01*
Y-111286D01*
X456269Y-111715D01*
X456055Y-111929D01*
X455412Y-112143D01*
X453484D02*
X455412D01*
X456055Y-112358D01*
X456269Y-112572D01*
X456483Y-113000D01*
Y-113643D01*
X456269Y-114072D01*
X456055Y-114286D01*
X455412Y-114500D01*
X453484D01*
X461025Y-110001D02*
Y-114500D01*
Y-110001D02*
X462525D01*
X463167Y-110215D01*
X463596Y-110644D01*
X463810Y-111072D01*
X464024Y-111715D01*
Y-112786D01*
X463810Y-113429D01*
X463596Y-113857D01*
X463167Y-114286D01*
X462525Y-114500D01*
X461025D01*
X467816Y-110001D02*
X465031D01*
Y-114500D01*
X467816D01*
X465031Y-112143D02*
X466745D01*
X471566Y-110644D02*
X471137Y-110215D01*
X470495Y-110001D01*
X469638D01*
X468995Y-110215D01*
X468566Y-110644D01*
Y-111072D01*
X468781Y-111501D01*
X468995Y-111715D01*
X469423Y-111929D01*
X470709Y-112358D01*
X471137Y-112572D01*
X471351Y-112786D01*
X471566Y-113215D01*
Y-113857D01*
X471137Y-114286D01*
X470495Y-114500D01*
X469638D01*
X468995Y-114286D01*
X468566Y-113857D01*
X472573Y-110001D02*
Y-114500D01*
X476729Y-111072D02*
X476515Y-110644D01*
X476086Y-110215D01*
X475658Y-110001D01*
X474801D01*
X474372Y-110215D01*
X473944Y-110644D01*
X473730Y-111072D01*
X473515Y-111715D01*
Y-112786D01*
X473730Y-113429D01*
X473944Y-113857D01*
X474372Y-114286D01*
X474801Y-114500D01*
X475658D01*
X476086Y-114286D01*
X476515Y-113857D01*
X476729Y-113429D01*
Y-112786D01*
X475658D02*
X476729D01*
X477757Y-110001D02*
Y-114500D01*
Y-110001D02*
X480757Y-114500D01*
Y-110001D02*
Y-114500D01*
X484784Y-110001D02*
X481999D01*
Y-114500D01*
X484784D01*
X481999Y-112143D02*
X483713D01*
X485534Y-110001D02*
Y-114500D01*
Y-110001D02*
X487462D01*
X488105Y-110215D01*
X488319Y-110429D01*
X488533Y-110858D01*
Y-111286D01*
X488319Y-111715D01*
X488105Y-111929D01*
X487462Y-112143D01*
X485534D01*
X487034D02*
X488533Y-114500D01*
X489755Y-111501D02*
X489540Y-111715D01*
X489755Y-111929D01*
X489969Y-111715D01*
X489755Y-111501D01*
Y-114072D02*
X489540Y-114286D01*
X489755Y-114500D01*
X489969Y-114286D01*
X489755Y-114072D01*
X447999Y-171144D02*
X447571Y-170715D01*
X446928Y-170501D01*
X446071D01*
X445429Y-170715D01*
X445000Y-171144D01*
Y-171572D01*
X445214Y-172001D01*
X445429Y-172215D01*
X445857Y-172429D01*
X447142Y-172858D01*
X447571Y-173072D01*
X447785Y-173286D01*
X447999Y-173715D01*
Y-174357D01*
X447571Y-174786D01*
X446928Y-175000D01*
X446071D01*
X445429Y-174786D01*
X445000Y-174357D01*
X449006Y-170501D02*
Y-175000D01*
X452006Y-170501D02*
Y-175000D01*
X449006Y-172643D02*
X452006D01*
X456033Y-170501D02*
X453248D01*
Y-175000D01*
X456033D01*
X453248Y-172643D02*
X454962D01*
X459568Y-170501D02*
X456783D01*
Y-175000D01*
X459568D01*
X456783Y-172643D02*
X458497D01*
X461818Y-170501D02*
Y-175000D01*
X460318Y-170501D02*
X463317D01*
X470387Y-171144D02*
X469959Y-170715D01*
X469316Y-170501D01*
X468459D01*
X467817Y-170715D01*
X467388Y-171144D01*
Y-171572D01*
X467602Y-172001D01*
X467817Y-172215D01*
X468245Y-172429D01*
X469530Y-172858D01*
X469959Y-173072D01*
X470173Y-173286D01*
X470387Y-173715D01*
Y-174357D01*
X469959Y-174786D01*
X469316Y-175000D01*
X468459D01*
X467817Y-174786D01*
X467388Y-174357D01*
X471394Y-170501D02*
Y-175000D01*
X475336Y-170501D02*
X472337Y-175000D01*
Y-170501D02*
X475336D01*
X472337Y-175000D02*
X475336D01*
X479128Y-170501D02*
X476343D01*
Y-175000D01*
X479128D01*
X476343Y-172643D02*
X478057D01*
X480092Y-172001D02*
X479878Y-172215D01*
X480092Y-172429D01*
X480307Y-172215D01*
X480092Y-172001D01*
Y-174572D02*
X479878Y-174786D01*
X480092Y-175000D01*
X480307Y-174786D01*
X480092Y-174572D01*
X807999Y-171144D02*
X807571Y-170715D01*
X806928Y-170501D01*
X806071D01*
X805429Y-170715D01*
X805000Y-171144D01*
Y-171572D01*
X805214Y-172001D01*
X805429Y-172215D01*
X805857Y-172429D01*
X807142Y-172858D01*
X807571Y-173072D01*
X807785Y-173286D01*
X807999Y-173715D01*
Y-174357D01*
X807571Y-174786D01*
X806928Y-175000D01*
X806071D01*
X805429Y-174786D01*
X805000Y-174357D01*
X812220Y-171572D02*
X812006Y-171144D01*
X811577Y-170715D01*
X811149Y-170501D01*
X810292D01*
X809863Y-170715D01*
X809435Y-171144D01*
X809221Y-171572D01*
X809006Y-172215D01*
Y-173286D01*
X809221Y-173929D01*
X809435Y-174357D01*
X809863Y-174786D01*
X810292Y-175000D01*
X811149D01*
X811577Y-174786D01*
X812006Y-174357D01*
X812220Y-173929D01*
X816912Y-175000D02*
X815198Y-170501D01*
X813484Y-175000D01*
X814127Y-173500D02*
X816269D01*
X817962Y-170501D02*
Y-175000D01*
X820532D01*
X823810Y-170501D02*
X821025D01*
Y-175000D01*
X823810D01*
X821025Y-172643D02*
X822739D01*
X824774Y-172001D02*
X824560Y-172215D01*
X824774Y-172429D01*
X824989Y-172215D01*
X824774Y-172001D01*
Y-174572D02*
X824560Y-174786D01*
X824774Y-175000D01*
X824989Y-174786D01*
X824774Y-174572D01*
X220000Y-198001D02*
Y-202500D01*
Y-198001D02*
X222785D01*
X220000Y-200143D02*
X221714D01*
X223299Y-198001D02*
Y-202500D01*
X224242Y-198001D02*
Y-202500D01*
X226813D01*
X230091Y-198001D02*
X227306D01*
Y-202500D01*
X230091D01*
X227306Y-200143D02*
X229019D01*
X234376Y-200358D02*
X236304D01*
X236946Y-200143D01*
X237161Y-199929D01*
X237375Y-199501D01*
Y-198858D01*
X237161Y-198429D01*
X236946Y-198215D01*
X236304Y-198001D01*
X234376D01*
Y-202500D01*
X241810D02*
X240096Y-198001D01*
X238382Y-202500D01*
X239024Y-201000D02*
X241167D01*
X244359Y-198001D02*
Y-202500D01*
X242859Y-198001D02*
X245859D01*
X246394D02*
Y-202500D01*
X249394Y-198001D02*
Y-202500D01*
X246394Y-200143D02*
X249394D01*
X250851Y-199501D02*
X250636Y-199715D01*
X250851Y-199929D01*
X251065Y-199715D01*
X250851Y-199501D01*
Y-202071D02*
X250636Y-202286D01*
X250851Y-202500D01*
X251065Y-202286D01*
X250851Y-202071D01*
X255000Y-198001D02*
Y-202500D01*
Y-198001D02*
X256500D01*
X257142Y-198215D01*
X257571Y-198644D01*
X257785Y-199072D01*
X257999Y-199715D01*
Y-200786D01*
X257785Y-201429D01*
X257571Y-201857D01*
X257142Y-202286D01*
X256500Y-202500D01*
X255000D01*
X259221Y-199501D02*
X259006Y-199715D01*
X259221Y-199929D01*
X259435Y-199715D01*
X259221Y-199501D01*
Y-202071D02*
X259006Y-202286D01*
X259221Y-202500D01*
X259435Y-202286D01*
X259221Y-202071D01*
X260420Y-198001D02*
X263420Y-203143D01*
X263720Y-198001D02*
Y-202500D01*
Y-198001D02*
X265219D01*
X265862Y-198215D01*
X266290Y-198644D01*
X266505Y-199072D01*
X266719Y-199715D01*
Y-200786D01*
X266505Y-201429D01*
X266290Y-201857D01*
X265862Y-202286D01*
X265219Y-202500D01*
X263720D01*
X267726Y-199501D02*
Y-202500D01*
Y-200786D02*
X267940Y-200143D01*
X268369Y-199715D01*
X268797Y-199501D01*
X269440D01*
X270918D02*
X270490Y-199715D01*
X270061Y-200143D01*
X269847Y-200786D01*
Y-201215D01*
X270061Y-201857D01*
X270490Y-202286D01*
X270918Y-202500D01*
X271561D01*
X271989Y-202286D01*
X272418Y-201857D01*
X272632Y-201215D01*
Y-200786D01*
X272418Y-200143D01*
X271989Y-199715D01*
X271561Y-199501D01*
X270918D01*
X273617D02*
Y-204000D01*
Y-200143D02*
X274046Y-199715D01*
X274474Y-199501D01*
X275117D01*
X275546Y-199715D01*
X275974Y-200143D01*
X276188Y-200786D01*
Y-201215D01*
X275974Y-201857D01*
X275546Y-202286D01*
X275117Y-202500D01*
X274474D01*
X274046Y-202286D01*
X273617Y-201857D01*
X277152Y-198001D02*
Y-202500D01*
Y-200143D02*
X277581Y-199715D01*
X278009Y-199501D01*
X278652D01*
X279081Y-199715D01*
X279509Y-200143D01*
X279723Y-200786D01*
Y-201215D01*
X279509Y-201857D01*
X279081Y-202286D01*
X278652Y-202500D01*
X278009D01*
X277581Y-202286D01*
X277152Y-201857D01*
X281758Y-199501D02*
X281330Y-199715D01*
X280902Y-200143D01*
X280687Y-200786D01*
Y-201215D01*
X280902Y-201857D01*
X281330Y-202286D01*
X281758Y-202500D01*
X282401D01*
X282830Y-202286D01*
X283258Y-201857D01*
X283472Y-201215D01*
Y-200786D01*
X283258Y-200143D01*
X282830Y-199715D01*
X282401Y-199501D01*
X281758D01*
X284458D02*
X286815Y-202500D01*
Y-199501D02*
X284458Y-202500D01*
X287757Y-198001D02*
X290757Y-203143D01*
X292342Y-198001D02*
X291914Y-198215D01*
X291485Y-198644D01*
X291271Y-199072D01*
X291056Y-199715D01*
Y-200786D01*
X291271Y-201429D01*
X291485Y-201857D01*
X291914Y-202286D01*
X292342Y-202500D01*
X293199D01*
X293627Y-202286D01*
X294056Y-201857D01*
X294270Y-201429D01*
X294484Y-200786D01*
Y-199715D01*
X294270Y-199072D01*
X294056Y-198644D01*
X293627Y-198215D01*
X293199Y-198001D01*
X292342D01*
X295534Y-200572D02*
X299391D01*
X303718Y-198644D02*
X303290Y-198215D01*
X302647Y-198001D01*
X301790D01*
X301147Y-198215D01*
X300719Y-198644D01*
Y-199072D01*
X300933Y-199501D01*
X301147Y-199715D01*
X301576Y-199929D01*
X302861Y-200358D01*
X303290Y-200572D01*
X303504Y-200786D01*
X303718Y-201215D01*
Y-201857D01*
X303290Y-202286D01*
X302647Y-202500D01*
X301790D01*
X301147Y-202286D01*
X300719Y-201857D01*
X307296Y-200143D02*
X306867Y-199715D01*
X306439Y-199501D01*
X305796D01*
X305368Y-199715D01*
X304939Y-200143D01*
X304725Y-200786D01*
Y-201215D01*
X304939Y-201857D01*
X305368Y-202286D01*
X305796Y-202500D01*
X306439D01*
X306867Y-202286D01*
X307296Y-201857D01*
X309331Y-199501D02*
X308903Y-199715D01*
X308474Y-200143D01*
X308260Y-200786D01*
Y-201215D01*
X308474Y-201857D01*
X308903Y-202286D01*
X309331Y-202500D01*
X309974D01*
X310402Y-202286D01*
X310831Y-201857D01*
X311045Y-201215D01*
Y-200786D01*
X310831Y-200143D01*
X310402Y-199715D01*
X309974Y-199501D01*
X309331D01*
X312031D02*
Y-204000D01*
Y-200143D02*
X312459Y-199715D01*
X312888Y-199501D01*
X313530D01*
X313959Y-199715D01*
X314387Y-200143D01*
X314601Y-200786D01*
Y-201215D01*
X314387Y-201857D01*
X313959Y-202286D01*
X313530Y-202500D01*
X312888D01*
X312459Y-202286D01*
X312031Y-201857D01*
X315566Y-200786D02*
X318137D01*
Y-200358D01*
X317922Y-199929D01*
X317708Y-199715D01*
X317280Y-199501D01*
X316637D01*
X316208Y-199715D01*
X315780Y-200143D01*
X315566Y-200786D01*
Y-201215D01*
X315780Y-201857D01*
X316208Y-202286D01*
X316637Y-202500D01*
X317280D01*
X317708Y-202286D01*
X318137Y-201857D01*
X322636Y-200358D02*
X324564D01*
X325206Y-200143D01*
X325421Y-199929D01*
X325635Y-199501D01*
Y-198858D01*
X325421Y-198429D01*
X325206Y-198215D01*
X324564Y-198001D01*
X322636D01*
Y-202500D01*
X326642Y-199501D02*
Y-202500D01*
Y-200786D02*
X326856Y-200143D01*
X327285Y-199715D01*
X327713Y-199501D01*
X328356D01*
X329834D02*
X329405Y-199715D01*
X328977Y-200143D01*
X328763Y-200786D01*
Y-201215D01*
X328977Y-201857D01*
X329405Y-202286D01*
X329834Y-202500D01*
X330477D01*
X330905Y-202286D01*
X331334Y-201857D01*
X331548Y-201215D01*
Y-200786D01*
X331334Y-200143D01*
X330905Y-199715D01*
X330477Y-199501D01*
X329834D01*
X332533Y-198001D02*
Y-202500D01*
Y-200143D02*
X332962Y-199715D01*
X333390Y-199501D01*
X334033D01*
X334461Y-199715D01*
X334890Y-200143D01*
X335104Y-200786D01*
Y-201215D01*
X334890Y-201857D01*
X334461Y-202286D01*
X334033Y-202500D01*
X333390D01*
X332962Y-202286D01*
X332533Y-201857D01*
X336068Y-200786D02*
X338639D01*
Y-200358D01*
X338425Y-199929D01*
X338211Y-199715D01*
X337782Y-199501D01*
X337140D01*
X336711Y-199715D01*
X336283Y-200143D01*
X336068Y-200786D01*
Y-201215D01*
X336283Y-201857D01*
X336711Y-202286D01*
X337140Y-202500D01*
X337782D01*
X338211Y-202286D01*
X338639Y-201857D01*
X339603Y-198001D02*
X342603Y-203143D01*
X342903Y-200358D02*
X344831D01*
X345474Y-200143D01*
X345688Y-199929D01*
X345902Y-199501D01*
Y-198858D01*
X345688Y-198429D01*
X345474Y-198215D01*
X344831Y-198001D01*
X342903D01*
Y-202500D01*
X346909Y-199501D02*
Y-202500D01*
Y-200786D02*
X347123Y-200143D01*
X347552Y-199715D01*
X347980Y-199501D01*
X348623D01*
X350101D02*
X349673Y-199715D01*
X349244Y-200143D01*
X349030Y-200786D01*
Y-201215D01*
X349244Y-201857D01*
X349673Y-202286D01*
X350101Y-202500D01*
X350744D01*
X351172Y-202286D01*
X351601Y-201857D01*
X351815Y-201215D01*
Y-200786D01*
X351601Y-200143D01*
X351172Y-199715D01*
X350744Y-199501D01*
X350101D01*
X352800Y-198001D02*
Y-202500D01*
Y-200143D02*
X353229Y-199715D01*
X353657Y-199501D01*
X354300D01*
X354729Y-199715D01*
X355157Y-200143D01*
X355371Y-200786D01*
Y-201215D01*
X355157Y-201857D01*
X354729Y-202286D01*
X354300Y-202500D01*
X353657D01*
X353229Y-202286D01*
X352800Y-201857D01*
X356335Y-200786D02*
X358906D01*
Y-200358D01*
X358692Y-199929D01*
X358478Y-199715D01*
X358049Y-199501D01*
X357407D01*
X356978Y-199715D01*
X356550Y-200143D01*
X356335Y-200786D01*
Y-201215D01*
X356550Y-201857D01*
X356978Y-202286D01*
X357407Y-202500D01*
X358049D01*
X358478Y-202286D01*
X358906Y-201857D01*
X359870Y-200572D02*
X363727D01*
X368054Y-198644D02*
X367626Y-198215D01*
X366983Y-198001D01*
X366126D01*
X365483Y-198215D01*
X365055Y-198644D01*
Y-199072D01*
X365269Y-199501D01*
X365483Y-199715D01*
X365912Y-199929D01*
X367197Y-200358D01*
X367626Y-200572D01*
X367840Y-200786D01*
X368054Y-201215D01*
Y-201857D01*
X367626Y-202286D01*
X366983Y-202500D01*
X366126D01*
X365483Y-202286D01*
X365055Y-201857D01*
X371632Y-200143D02*
X371204Y-199715D01*
X370775Y-199501D01*
X370132D01*
X369704Y-199715D01*
X369275Y-200143D01*
X369061Y-200786D01*
Y-201215D01*
X369275Y-201857D01*
X369704Y-202286D01*
X370132Y-202500D01*
X370775D01*
X371204Y-202286D01*
X371632Y-201857D01*
X373667Y-199501D02*
X373239Y-199715D01*
X372810Y-200143D01*
X372596Y-200786D01*
Y-201215D01*
X372810Y-201857D01*
X373239Y-202286D01*
X373667Y-202500D01*
X374310D01*
X374739Y-202286D01*
X375167Y-201857D01*
X375381Y-201215D01*
Y-200786D01*
X375167Y-200143D01*
X374739Y-199715D01*
X374310Y-199501D01*
X373667D01*
X376367D02*
Y-204000D01*
Y-200143D02*
X376795Y-199715D01*
X377224Y-199501D01*
X377867D01*
X378295Y-199715D01*
X378724Y-200143D01*
X378938Y-200786D01*
Y-201215D01*
X378724Y-201857D01*
X378295Y-202286D01*
X377867Y-202500D01*
X377224D01*
X376795Y-202286D01*
X376367Y-201857D01*
X379902Y-200786D02*
X382473D01*
Y-200358D01*
X382258Y-199929D01*
X382044Y-199715D01*
X381616Y-199501D01*
X380973D01*
X380544Y-199715D01*
X380116Y-200143D01*
X379902Y-200786D01*
Y-201215D01*
X380116Y-201857D01*
X380544Y-202286D01*
X380973Y-202500D01*
X381616D01*
X382044Y-202286D01*
X382473Y-201857D01*
X386972Y-200572D02*
X390828D01*
X395691Y-200358D02*
X397619D01*
X398262Y-200143D01*
X398476Y-199929D01*
X398691Y-199501D01*
Y-198858D01*
X398476Y-198429D01*
X398262Y-198215D01*
X397619Y-198001D01*
X395691D01*
Y-202500D01*
X402911Y-199072D02*
X402697Y-198644D01*
X402268Y-198215D01*
X401840Y-198001D01*
X400983D01*
X400555Y-198215D01*
X400126Y-198644D01*
X399912Y-199072D01*
X399697Y-199715D01*
Y-200786D01*
X399912Y-201429D01*
X400126Y-201857D01*
X400555Y-202286D01*
X400983Y-202500D01*
X401840D01*
X402268Y-202286D01*
X402697Y-201857D01*
X402911Y-201429D01*
X404175Y-198001D02*
Y-202500D01*
Y-198001D02*
X406103D01*
X406746Y-198215D01*
X406960Y-198429D01*
X407174Y-198858D01*
Y-199286D01*
X406960Y-199715D01*
X406746Y-199929D01*
X406103Y-200143D01*
X404175D02*
X406103D01*
X406746Y-200358D01*
X406960Y-200572D01*
X407174Y-201000D01*
Y-201643D01*
X406960Y-202071D01*
X406746Y-202286D01*
X406103Y-202500D01*
X404175D01*
X408181Y-198001D02*
X411181Y-203143D01*
X411481Y-200358D02*
X413409D01*
X414052Y-200143D01*
X414266Y-199929D01*
X414480Y-199501D01*
Y-198858D01*
X414266Y-198429D01*
X414052Y-198215D01*
X413409Y-198001D01*
X411481D01*
Y-202500D01*
X415487Y-199501D02*
Y-202500D01*
Y-200786D02*
X415701Y-200143D01*
X416130Y-199715D01*
X416558Y-199501D01*
X417201D01*
X418679D02*
X418251Y-199715D01*
X417822Y-200143D01*
X417608Y-200786D01*
Y-201215D01*
X417822Y-201857D01*
X418251Y-202286D01*
X418679Y-202500D01*
X419322D01*
X419750Y-202286D01*
X420179Y-201857D01*
X420393Y-201215D01*
Y-200786D01*
X420179Y-200143D01*
X419750Y-199715D01*
X419322Y-199501D01*
X418679D01*
X421379Y-198001D02*
Y-202500D01*
Y-200143D02*
X421807Y-199715D01*
X422235Y-199501D01*
X422878D01*
X423307Y-199715D01*
X423735Y-200143D01*
X423949Y-200786D01*
Y-201215D01*
X423735Y-201857D01*
X423307Y-202286D01*
X422878Y-202500D01*
X422235D01*
X421807Y-202286D01*
X421379Y-201857D01*
X424914Y-200786D02*
X427484D01*
Y-200358D01*
X427270Y-199929D01*
X427056Y-199715D01*
X426627Y-199501D01*
X425985D01*
X425556Y-199715D01*
X425128Y-200143D01*
X424914Y-200786D01*
Y-201215D01*
X425128Y-201857D01*
X425556Y-202286D01*
X425985Y-202500D01*
X426627D01*
X427056Y-202286D01*
X427484Y-201857D01*
X428448Y-200572D02*
X432305D01*
X436632Y-198644D02*
X436204Y-198215D01*
X435561Y-198001D01*
X434704D01*
X434062Y-198215D01*
X433633Y-198644D01*
Y-199072D01*
X433847Y-199501D01*
X434062Y-199715D01*
X434490Y-199929D01*
X435776Y-200358D01*
X436204Y-200572D01*
X436418Y-200786D01*
X436632Y-201215D01*
Y-201857D01*
X436204Y-202286D01*
X435561Y-202500D01*
X434704D01*
X434062Y-202286D01*
X433633Y-201857D01*
X440210Y-200143D02*
X439782Y-199715D01*
X439353Y-199501D01*
X438711D01*
X438282Y-199715D01*
X437854Y-200143D01*
X437639Y-200786D01*
Y-201215D01*
X437854Y-201857D01*
X438282Y-202286D01*
X438711Y-202500D01*
X439353D01*
X439782Y-202286D01*
X440210Y-201857D01*
X442246Y-199501D02*
X441817Y-199715D01*
X441389Y-200143D01*
X441174Y-200786D01*
Y-201215D01*
X441389Y-201857D01*
X441817Y-202286D01*
X442246Y-202500D01*
X442888D01*
X443317Y-202286D01*
X443745Y-201857D01*
X443960Y-201215D01*
Y-200786D01*
X443745Y-200143D01*
X443317Y-199715D01*
X442888Y-199501D01*
X442246D01*
X444945D02*
Y-204000D01*
Y-200143D02*
X445373Y-199715D01*
X445802Y-199501D01*
X446445D01*
X446873Y-199715D01*
X447302Y-200143D01*
X447516Y-200786D01*
Y-201215D01*
X447302Y-201857D01*
X446873Y-202286D01*
X446445Y-202500D01*
X445802D01*
X445373Y-202286D01*
X444945Y-201857D01*
X448480Y-200786D02*
X451051D01*
Y-200358D01*
X450837Y-199929D01*
X450622Y-199715D01*
X450194Y-199501D01*
X449551D01*
X449123Y-199715D01*
X448694Y-200143D01*
X448480Y-200786D01*
Y-201215D01*
X448694Y-201857D01*
X449123Y-202286D01*
X449551Y-202500D01*
X450194D01*
X450622Y-202286D01*
X451051Y-201857D01*
X455550Y-199501D02*
X456835Y-202500D01*
X458121Y-199501D02*
X456835Y-202500D01*
X458849Y-198858D02*
X459278Y-198644D01*
X459920Y-198001D01*
Y-202500D01*
X462363Y-202071D02*
X462148Y-202286D01*
X462363Y-202500D01*
X462577Y-202286D01*
X462363Y-202071D01*
X464848Y-198001D02*
X464205Y-198215D01*
X463777Y-198858D01*
X463562Y-199929D01*
Y-200572D01*
X463777Y-201643D01*
X464205Y-202286D01*
X464848Y-202500D01*
X465276D01*
X465919Y-202286D01*
X466348Y-201643D01*
X466562Y-200572D01*
Y-199929D01*
X466348Y-198858D01*
X465919Y-198215D01*
X465276Y-198001D01*
X464848D01*
X467783Y-202071D02*
X467569Y-202286D01*
X467783Y-202500D01*
X467997Y-202286D01*
X467783Y-202071D01*
X468983Y-200358D02*
X470911D01*
X471554Y-200143D01*
X471768Y-199929D01*
X471982Y-199501D01*
Y-198858D01*
X471768Y-198429D01*
X471554Y-198215D01*
X470911Y-198001D01*
X468983D01*
Y-202500D01*
X475560Y-200143D02*
X475131Y-199715D01*
X474703Y-199501D01*
X474060D01*
X473632Y-199715D01*
X473203Y-200143D01*
X472989Y-200786D01*
Y-201215D01*
X473203Y-201857D01*
X473632Y-202286D01*
X474060Y-202500D01*
X474703D01*
X475131Y-202286D01*
X475560Y-201857D01*
X476524Y-198001D02*
Y-202500D01*
Y-200143D02*
X476952Y-199715D01*
X477381Y-199501D01*
X478024D01*
X478452Y-199715D01*
X478881Y-200143D01*
X479095Y-200786D01*
Y-201215D01*
X478881Y-201857D01*
X478452Y-202286D01*
X478024Y-202500D01*
X477381D01*
X476952Y-202286D01*
X476524Y-201857D01*
X480059Y-198001D02*
Y-202500D01*
Y-198001D02*
X481559D01*
X482201Y-198215D01*
X482630Y-198644D01*
X482844Y-199072D01*
X483058Y-199715D01*
Y-200786D01*
X482844Y-201429D01*
X482630Y-201857D01*
X482201Y-202286D01*
X481559Y-202500D01*
X480059D01*
X485136Y-199501D02*
X484708Y-199715D01*
X484279Y-200143D01*
X484065Y-200786D01*
Y-201215D01*
X484279Y-201857D01*
X484708Y-202286D01*
X485136Y-202500D01*
X485779D01*
X486207Y-202286D01*
X486636Y-201857D01*
X486850Y-201215D01*
Y-200786D01*
X486636Y-200143D01*
X486207Y-199715D01*
X485779Y-199501D01*
X485136D01*
X490407Y-200143D02*
X489978Y-199715D01*
X489550Y-199501D01*
X488907D01*
X488479Y-199715D01*
X488050Y-200143D01*
X487836Y-200786D01*
Y-201215D01*
X488050Y-201857D01*
X488479Y-202286D01*
X488907Y-202500D01*
X489550D01*
X489978Y-202286D01*
X490407Y-201857D01*
D105*
X225000Y-186501D02*
Y-193500D01*
Y-186501D02*
X227999D01*
X228999Y-186835D01*
X229332Y-187168D01*
X229666Y-187834D01*
Y-188501D01*
X229332Y-189167D01*
X228999Y-189501D01*
X227999Y-189834D01*
X225000D01*
X227333D02*
X229666Y-193500D01*
X231232Y-190834D02*
X235231D01*
Y-190167D01*
X234898Y-189501D01*
X234565Y-189167D01*
X233898Y-188834D01*
X232898D01*
X232232Y-189167D01*
X231565Y-189834D01*
X231232Y-190834D01*
Y-191500D01*
X231565Y-192500D01*
X232232Y-193166D01*
X232898Y-193500D01*
X233898D01*
X234565Y-193166D01*
X235231Y-192500D01*
X236731Y-186501D02*
Y-193500D01*
X238197Y-190834D02*
X242196D01*
Y-190167D01*
X241863Y-189501D01*
X241530Y-189167D01*
X240863Y-188834D01*
X239863D01*
X239197Y-189167D01*
X238530Y-189834D01*
X238197Y-190834D01*
Y-191500D01*
X238530Y-192500D01*
X239197Y-193166D01*
X239863Y-193500D01*
X240863D01*
X241530Y-193166D01*
X242196Y-192500D01*
X247695Y-188834D02*
Y-193500D01*
Y-189834D02*
X247029Y-189167D01*
X246362Y-188834D01*
X245362D01*
X244696Y-189167D01*
X244029Y-189834D01*
X243696Y-190834D01*
Y-191500D01*
X244029Y-192500D01*
X244696Y-193166D01*
X245362Y-193500D01*
X246362D01*
X247029Y-193166D01*
X247695Y-192500D01*
X253227Y-189834D02*
X252894Y-189167D01*
X251894Y-188834D01*
X250894D01*
X249895Y-189167D01*
X249561Y-189834D01*
X249895Y-190500D01*
X250561Y-190834D01*
X252227Y-191167D01*
X252894Y-191500D01*
X253227Y-192167D01*
Y-192500D01*
X252894Y-193166D01*
X251894Y-193500D01*
X250894D01*
X249895Y-193166D01*
X249561Y-192500D01*
X254694Y-190834D02*
X258693D01*
Y-190167D01*
X258360Y-189501D01*
X258026Y-189167D01*
X257360Y-188834D01*
X256360D01*
X255693Y-189167D01*
X255027Y-189834D01*
X254694Y-190834D01*
Y-191500D01*
X255027Y-192500D01*
X255693Y-193166D01*
X256360Y-193500D01*
X257360D01*
X258026Y-193166D01*
X258693Y-192500D01*
X264192Y-186501D02*
Y-193500D01*
Y-189834D02*
X263525Y-189167D01*
X262859Y-188834D01*
X261859D01*
X261192Y-189167D01*
X260526Y-189834D01*
X260192Y-190834D01*
Y-191500D01*
X260526Y-192500D01*
X261192Y-193166D01*
X261859Y-193500D01*
X262859D01*
X263525Y-193166D01*
X264192Y-192500D01*
X271557Y-188834D02*
Y-192167D01*
X271890Y-193166D01*
X272556Y-193500D01*
X273556D01*
X274223Y-193166D01*
X275223Y-192167D01*
Y-188834D02*
Y-193500D01*
X277056Y-188834D02*
Y-193500D01*
Y-190167D02*
X278055Y-189167D01*
X278722Y-188834D01*
X279722D01*
X280388Y-189167D01*
X280721Y-190167D01*
Y-193500D01*
X286554Y-186501D02*
Y-193500D01*
Y-189834D02*
X285887Y-189167D01*
X285220Y-188834D01*
X284221D01*
X283554Y-189167D01*
X282888Y-189834D01*
X282554Y-190834D01*
Y-191500D01*
X282888Y-192500D01*
X283554Y-193166D01*
X284221Y-193500D01*
X285220D01*
X285887Y-193166D01*
X286554Y-192500D01*
X288420Y-190834D02*
X292419D01*
Y-190167D01*
X292086Y-189501D01*
X291752Y-189167D01*
X291086Y-188834D01*
X290086D01*
X289420Y-189167D01*
X288753Y-189834D01*
X288420Y-190834D01*
Y-191500D01*
X288753Y-192500D01*
X289420Y-193166D01*
X290086Y-193500D01*
X291086D01*
X291752Y-193166D01*
X292419Y-192500D01*
X293919Y-188834D02*
Y-193500D01*
Y-190834D02*
X294252Y-189834D01*
X294918Y-189167D01*
X295585Y-188834D01*
X296585D01*
X303716Y-186501D02*
Y-192167D01*
X304050Y-193166D01*
X304716Y-193500D01*
X305383D01*
X302717Y-188834D02*
X305049D01*
X306382Y-186501D02*
Y-193500D01*
Y-190167D02*
X307382Y-189167D01*
X308049Y-188834D01*
X309049D01*
X309715Y-189167D01*
X310048Y-190167D01*
Y-193500D01*
X311881Y-190834D02*
X315880D01*
Y-190167D01*
X315547Y-189501D01*
X315214Y-189167D01*
X314547Y-188834D01*
X313548D01*
X312881Y-189167D01*
X312215Y-189834D01*
X311881Y-190834D01*
Y-191500D01*
X312215Y-192500D01*
X312881Y-193166D01*
X313548Y-193500D01*
X314547D01*
X315214Y-193166D01*
X315880Y-192500D01*
X327878Y-188168D02*
X327545Y-187501D01*
X326878Y-186835D01*
X326212Y-186501D01*
X324879D01*
X324212Y-186835D01*
X323546Y-187501D01*
X323212Y-188168D01*
X322879Y-189167D01*
Y-190834D01*
X323212Y-191833D01*
X323546Y-192500D01*
X324212Y-193166D01*
X324879Y-193500D01*
X326212D01*
X326878Y-193166D01*
X327545Y-192500D01*
X327878Y-191833D01*
X334177Y-186501D02*
X329844D01*
Y-193500D01*
X334177D01*
X329844Y-189834D02*
X332510D01*
X335343Y-186501D02*
Y-193500D01*
Y-186501D02*
X338342D01*
X339342Y-186835D01*
X339675Y-187168D01*
X340009Y-187834D01*
Y-188501D01*
X339675Y-189167D01*
X339342Y-189501D01*
X338342Y-189834D01*
X335343D01*
X337676D02*
X340009Y-193500D01*
X341575Y-186501D02*
Y-193500D01*
Y-186501D02*
X346241Y-193500D01*
Y-186501D02*
Y-193500D01*
X355672Y-186501D02*
X355006Y-186835D01*
X354339Y-187501D01*
X354006Y-188168D01*
X353672Y-189167D01*
Y-190834D01*
X354006Y-191833D01*
X354339Y-192500D01*
X355006Y-193166D01*
X355672Y-193500D01*
X357005D01*
X357671Y-193166D01*
X358338Y-192500D01*
X358671Y-191833D01*
X359005Y-190834D01*
Y-189167D01*
X358671Y-188168D01*
X358338Y-187501D01*
X357671Y-186835D01*
X357005Y-186501D01*
X355672D01*
X360638D02*
Y-193500D01*
X365303Y-186501D02*
Y-193500D01*
X360638Y-189834D02*
X365303D01*
X367236Y-186501D02*
Y-193500D01*
X371235D01*
X377501Y-188834D02*
X379500Y-193500D01*
X381500Y-188834D02*
X379500Y-193500D01*
X382633Y-187834D02*
X383299Y-187501D01*
X384299Y-186501D01*
Y-193500D01*
X388098Y-192833D02*
X387765Y-193166D01*
X388098Y-193500D01*
X388432Y-193166D01*
X388098Y-192833D01*
X390298Y-188168D02*
Y-187834D01*
X390631Y-187168D01*
X390964Y-186835D01*
X391631Y-186501D01*
X392964D01*
X393631Y-186835D01*
X393964Y-187168D01*
X394297Y-187834D01*
Y-188501D01*
X393964Y-189167D01*
X393297Y-190167D01*
X389965Y-193500D01*
X394630D01*
X600700Y-106750D02*
X606699D01*
X608698Y-106084D01*
X609365Y-105417D01*
X610031Y-104084D01*
Y-102085D01*
X609365Y-100752D01*
X608698Y-100085D01*
X606699Y-99419D01*
X600700D01*
Y-113416D01*
X613164Y-104084D02*
Y-113416D01*
Y-108083D02*
X613831Y-106084D01*
X615164Y-104751D01*
X616497Y-104084D01*
X618496D01*
X623095D02*
X621762Y-104751D01*
X620429Y-106084D01*
X619763Y-108083D01*
Y-109416D01*
X620429Y-111416D01*
X621762Y-112749D01*
X623095Y-113416D01*
X625095D01*
X626428Y-112749D01*
X627761Y-111416D01*
X628427Y-109416D01*
Y-108083D01*
X627761Y-106084D01*
X626428Y-104751D01*
X625095Y-104084D01*
X623095D01*
X631493Y-99419D02*
Y-113416D01*
Y-106084D02*
X632827Y-104751D01*
X634160Y-104084D01*
X636159D01*
X637492Y-104751D01*
X638825Y-106084D01*
X639492Y-108083D01*
Y-109416D01*
X638825Y-111416D01*
X637492Y-112749D01*
X636159Y-113416D01*
X634160D01*
X632827Y-112749D01*
X631493Y-111416D01*
X642491Y-108083D02*
X650489D01*
Y-106750D01*
X649823Y-105417D01*
X649156Y-104751D01*
X647823Y-104084D01*
X645824D01*
X644491Y-104751D01*
X643158Y-106084D01*
X642491Y-108083D01*
Y-109416D01*
X643158Y-111416D01*
X644491Y-112749D01*
X645824Y-113416D01*
X647823D01*
X649156Y-112749D01*
X650489Y-111416D01*
X653489Y-107417D02*
X665486D01*
X678950Y-101418D02*
X677617Y-100085D01*
X675617Y-99419D01*
X672951D01*
X670952Y-100085D01*
X669619Y-101418D01*
Y-102751D01*
X670285Y-104084D01*
X670952Y-104751D01*
X672285Y-105417D01*
X676284Y-106750D01*
X677617Y-107417D01*
X678283Y-108083D01*
X678950Y-109416D01*
Y-111416D01*
X677617Y-112749D01*
X675617Y-113416D01*
X672951D01*
X670952Y-112749D01*
X669619Y-111416D01*
X690081Y-106084D02*
X688748Y-104751D01*
X687415Y-104084D01*
X685415D01*
X684082Y-104751D01*
X682749Y-106084D01*
X682083Y-108083D01*
Y-109416D01*
X682749Y-111416D01*
X684082Y-112749D01*
X685415Y-113416D01*
X687415D01*
X688748Y-112749D01*
X690081Y-111416D01*
X696413Y-104084D02*
X695080Y-104751D01*
X693747Y-106084D01*
X693080Y-108083D01*
Y-109416D01*
X693747Y-111416D01*
X695080Y-112749D01*
X696413Y-113416D01*
X698412D01*
X699745Y-112749D01*
X701079Y-111416D01*
X701745Y-109416D01*
Y-108083D01*
X701079Y-106084D01*
X699745Y-104751D01*
X698412Y-104084D01*
X696413D01*
X704811D02*
Y-118081D01*
Y-106084D02*
X706144Y-104751D01*
X707477Y-104084D01*
X709477D01*
X710810Y-104751D01*
X712143Y-106084D01*
X712809Y-108083D01*
Y-109416D01*
X712143Y-111416D01*
X710810Y-112749D01*
X709477Y-113416D01*
X707477D01*
X706144Y-112749D01*
X704811Y-111416D01*
X715809Y-108083D02*
X723807D01*
Y-106750D01*
X723140Y-105417D01*
X722474Y-104751D01*
X721141Y-104084D01*
X719141D01*
X717808Y-104751D01*
X716475Y-106084D01*
X715809Y-108083D01*
Y-109416D01*
X716475Y-111416D01*
X717808Y-112749D01*
X719141Y-113416D01*
X721141D01*
X722474Y-112749D01*
X723807Y-111416D01*
X229999Y-177168D02*
X229666Y-176501D01*
X228999Y-175835D01*
X228333Y-175502D01*
X227000D01*
X226333Y-175835D01*
X225666Y-176501D01*
X225333Y-177168D01*
X225000Y-178168D01*
Y-179834D01*
X225333Y-180834D01*
X225666Y-181500D01*
X226333Y-182167D01*
X227000Y-182500D01*
X228333D01*
X228999Y-182167D01*
X229666Y-181500D01*
X229999Y-180834D01*
X233631Y-177834D02*
X232965Y-178168D01*
X232298Y-178834D01*
X231965Y-179834D01*
Y-180500D01*
X232298Y-181500D01*
X232965Y-182167D01*
X233631Y-182500D01*
X234631D01*
X235298Y-182167D01*
X235964Y-181500D01*
X236298Y-180500D01*
Y-179834D01*
X235964Y-178834D01*
X235298Y-178168D01*
X234631Y-177834D01*
X233631D01*
X237831D02*
Y-184833D01*
Y-178834D02*
X238497Y-178168D01*
X239164Y-177834D01*
X240163D01*
X240830Y-178168D01*
X241496Y-178834D01*
X241830Y-179834D01*
Y-180500D01*
X241496Y-181500D01*
X240830Y-182167D01*
X240163Y-182500D01*
X239164D01*
X238497Y-182167D01*
X237831Y-181500D01*
X243663Y-177834D02*
X245662Y-182500D01*
X247662Y-177834D02*
X245662Y-182500D01*
X244996Y-183833D01*
X244329Y-184500D01*
X243663Y-184833D01*
X243329D01*
X248828Y-177834D02*
Y-182500D01*
Y-179834D02*
X249162Y-178834D01*
X249828Y-178168D01*
X250495Y-177834D01*
X251494D01*
X252794Y-175502D02*
X253127Y-175835D01*
X253461Y-175502D01*
X253127Y-175168D01*
X252794Y-175502D01*
X253127Y-177834D02*
Y-182500D01*
X258693Y-177834D02*
Y-183167D01*
X258360Y-184166D01*
X258026Y-184500D01*
X257360Y-184833D01*
X256360D01*
X255693Y-184500D01*
X258693Y-178834D02*
X258026Y-178168D01*
X257360Y-177834D01*
X256360D01*
X255693Y-178168D01*
X255027Y-178834D01*
X254694Y-179834D01*
Y-180500D01*
X255027Y-181500D01*
X255693Y-182167D01*
X256360Y-182500D01*
X257360D01*
X258026Y-182167D01*
X258693Y-181500D01*
X260559Y-175502D02*
Y-182500D01*
Y-179167D02*
X261559Y-178168D01*
X262225Y-177834D01*
X263225D01*
X263892Y-178168D01*
X264225Y-179167D01*
Y-182500D01*
X267058Y-175502D02*
Y-181167D01*
X267391Y-182167D01*
X268057Y-182500D01*
X268724D01*
X266058Y-177834D02*
X268391D01*
X275556Y-177168D02*
Y-176834D01*
X275889Y-176168D01*
X276222Y-175835D01*
X276889Y-175502D01*
X278222D01*
X278888Y-175835D01*
X279222Y-176168D01*
X279555Y-176834D01*
Y-177501D01*
X279222Y-178168D01*
X278555Y-179167D01*
X275223Y-182500D01*
X279888D01*
X283454Y-175502D02*
X282454Y-175835D01*
X281788Y-176834D01*
X281455Y-178501D01*
Y-179501D01*
X281788Y-181167D01*
X282454Y-182167D01*
X283454Y-182500D01*
X284121D01*
X285120Y-182167D01*
X285787Y-181167D01*
X286120Y-179501D01*
Y-178501D01*
X285787Y-176834D01*
X285120Y-175835D01*
X284121Y-175502D01*
X283454D01*
X287687Y-176834D02*
X288353Y-176501D01*
X289353Y-175502D01*
Y-182500D01*
X297151Y-177834D02*
X296818Y-178834D01*
X296151Y-179501D01*
X295152Y-179834D01*
X294818D01*
X293819Y-179501D01*
X293152Y-178834D01*
X292819Y-177834D01*
Y-177501D01*
X293152Y-176501D01*
X293819Y-175835D01*
X294818Y-175502D01*
X295152D01*
X296151Y-175835D01*
X296818Y-176501D01*
X297151Y-177834D01*
Y-179501D01*
X296818Y-181167D01*
X296151Y-182167D01*
X295152Y-182500D01*
X294485D01*
X293485Y-182167D01*
X293152Y-181500D01*
X304550Y-175502D02*
Y-182500D01*
Y-175502D02*
X307216Y-182500D01*
X309882Y-175502D02*
X307216Y-182500D01*
X309882Y-175502D02*
Y-182500D01*
X312215Y-181834D02*
X311881Y-182167D01*
X312215Y-182500D01*
X312548Y-182167D01*
X312215Y-181834D01*
X321579Y-175502D02*
X320913Y-175835D01*
X320246Y-176501D01*
X319913Y-177168D01*
X319580Y-178168D01*
Y-179834D01*
X319913Y-180834D01*
X320246Y-181500D01*
X320913Y-182167D01*
X321579Y-182500D01*
X322912D01*
X323579Y-182167D01*
X324245Y-181500D01*
X324579Y-180834D01*
X324912Y-179834D01*
Y-178168D01*
X324579Y-177168D01*
X324245Y-176501D01*
X323579Y-175835D01*
X322912Y-175502D01*
X321579D01*
X326545Y-177834D02*
Y-182500D01*
Y-179167D02*
X327545Y-178168D01*
X328211Y-177834D01*
X329211D01*
X329877Y-178168D01*
X330211Y-179167D01*
Y-182500D01*
Y-179167D02*
X331211Y-178168D01*
X331877Y-177834D01*
X332877D01*
X333543Y-178168D01*
X333877Y-179167D01*
Y-182500D01*
X337742Y-177834D02*
X337076Y-178168D01*
X336409Y-178834D01*
X336076Y-179834D01*
Y-180500D01*
X336409Y-181500D01*
X337076Y-182167D01*
X337742Y-182500D01*
X338742D01*
X339409Y-182167D01*
X340075Y-181500D01*
X340409Y-180500D01*
Y-179834D01*
X340075Y-178834D01*
X339409Y-178168D01*
X338742Y-177834D01*
X337742D01*
X342608Y-182167D02*
X342275Y-182500D01*
X341942Y-182167D01*
X342275Y-181834D01*
X342608Y-182167D01*
Y-182833D01*
X342275Y-183500D01*
X341942Y-183833D01*
X352973Y-175502D02*
Y-180834D01*
X352639Y-181834D01*
X352306Y-182167D01*
X351640Y-182500D01*
X350973D01*
X350307Y-182167D01*
X349973Y-181834D01*
X349640Y-180834D01*
Y-180167D01*
X355105Y-181834D02*
X354772Y-182167D01*
X355105Y-182500D01*
X355439Y-182167D01*
X355105Y-181834D01*
X362471Y-175502D02*
Y-182500D01*
Y-175502D02*
X365470D01*
X366470Y-175835D01*
X366803Y-176168D01*
X367136Y-176834D01*
Y-177501D01*
X366803Y-178168D01*
X366470Y-178501D01*
X365470Y-178834D01*
X362471D01*
X364803D02*
X367136Y-182500D01*
X370369Y-177834D02*
X369702Y-178168D01*
X369036Y-178834D01*
X368703Y-179834D01*
Y-180500D01*
X369036Y-181500D01*
X369702Y-182167D01*
X370369Y-182500D01*
X371369D01*
X372035Y-182167D01*
X372702Y-181500D01*
X373035Y-180500D01*
Y-179834D01*
X372702Y-178834D01*
X372035Y-178168D01*
X371369Y-177834D01*
X370369D01*
X374568D02*
X375901Y-182500D01*
X377234Y-177834D02*
X375901Y-182500D01*
X377234Y-177834D02*
X378567Y-182500D01*
X379900Y-177834D02*
X378567Y-182500D01*
X381533Y-175502D02*
Y-182500D01*
X382999Y-179834D02*
X386999D01*
Y-179167D01*
X386665Y-178501D01*
X386332Y-178168D01*
X385665Y-177834D01*
X384666D01*
X383999Y-178168D01*
X383333Y-178834D01*
X382999Y-179834D01*
Y-180500D01*
X383333Y-181500D01*
X383999Y-182167D01*
X384666Y-182500D01*
X385665D01*
X386332Y-182167D01*
X386999Y-181500D01*
X388831Y-177834D02*
X390831Y-182500D01*
X392831Y-177834D02*
X390831Y-182500D01*
X390165Y-183833D01*
X389498Y-184500D01*
X388831Y-184833D01*
X388498D01*
X394664Y-182167D02*
X394330Y-182500D01*
X393997Y-182167D01*
X394330Y-181834D01*
X394664Y-182167D01*
Y-182833D01*
X394330Y-183500D01*
X393997Y-183833D01*
X401695Y-175502D02*
Y-182500D01*
X406361Y-175502D02*
X401695Y-180167D01*
X403362Y-178501D02*
X406361Y-182500D01*
X408261Y-181834D02*
X407927Y-182167D01*
X408261Y-182500D01*
X408594Y-182167D01*
X408261Y-181834D01*
X415626Y-175502D02*
Y-182500D01*
X420292Y-175502D02*
Y-182500D01*
X415626Y-178834D02*
X420292D01*
X426224Y-177834D02*
Y-182500D01*
Y-178834D02*
X425557Y-178168D01*
X424891Y-177834D01*
X423891D01*
X423224Y-178168D01*
X422558Y-178834D01*
X422224Y-179834D01*
Y-180500D01*
X422558Y-181500D01*
X423224Y-182167D01*
X423891Y-182500D01*
X424891D01*
X425557Y-182167D01*
X426224Y-181500D01*
X428090Y-175502D02*
Y-182500D01*
X429556Y-175502D02*
Y-182500D01*
X602832Y-157500D02*
X600166Y-150502D01*
X597500Y-157500D01*
X598500Y-155167D02*
X601832D01*
X609131Y-151501D02*
X608464Y-150835D01*
X607465Y-150502D01*
X606132D01*
X605132Y-150835D01*
X604465Y-151501D01*
Y-152168D01*
X604798Y-152834D01*
X605132Y-153168D01*
X605798Y-153501D01*
X607798Y-154167D01*
X608464Y-154501D01*
X608798Y-154834D01*
X609131Y-155500D01*
Y-156500D01*
X608464Y-157167D01*
X607465Y-157500D01*
X606132D01*
X605132Y-157167D01*
X604465Y-156500D01*
X610697Y-154167D02*
X613696D01*
X614696Y-153834D01*
X615030Y-153501D01*
X615363Y-152834D01*
Y-151834D01*
X615030Y-151168D01*
X614696Y-150835D01*
X613696Y-150502D01*
X610697D01*
Y-157500D01*
X618929Y-150502D02*
X617929Y-150835D01*
X617262Y-151834D01*
X616929Y-153501D01*
Y-154501D01*
X617262Y-156167D01*
X617929Y-157167D01*
X618929Y-157500D01*
X619595D01*
X620595Y-157167D01*
X621262Y-156167D01*
X621595Y-154501D01*
Y-153501D01*
X621262Y-151834D01*
X620595Y-150835D01*
X619595Y-150502D01*
X618929D01*
X623161Y-151834D02*
X623828Y-151501D01*
X624827Y-150502D01*
Y-157500D01*
X630293Y-150502D02*
X629293Y-150835D01*
X628627Y-151834D01*
X628293Y-153501D01*
Y-154501D01*
X628627Y-156167D01*
X629293Y-157167D01*
X630293Y-157500D01*
X630960D01*
X631959Y-157167D01*
X632626Y-156167D01*
X632959Y-154501D01*
Y-153501D01*
X632626Y-151834D01*
X631959Y-150835D01*
X630960Y-150502D01*
X630293D01*
X636525D02*
X635525Y-150835D01*
X634859Y-151834D01*
X634525Y-153501D01*
Y-154501D01*
X634859Y-156167D01*
X635525Y-157167D01*
X636525Y-157500D01*
X637191D01*
X638191Y-157167D01*
X638858Y-156167D01*
X639191Y-154501D01*
Y-153501D01*
X638858Y-151834D01*
X638191Y-150835D01*
X637191Y-150502D01*
X636525D01*
X602499Y-182168D02*
X602166Y-181501D01*
X601499Y-180835D01*
X600833Y-180501D01*
X599500D01*
X598833Y-180835D01*
X598167Y-181501D01*
X597833Y-182168D01*
X597500Y-183168D01*
Y-184834D01*
X597833Y-185834D01*
X598167Y-186500D01*
X598833Y-187167D01*
X599500Y-187500D01*
X600833D01*
X601499Y-187167D01*
X602166Y-186500D01*
X602499Y-185834D01*
X609797Y-187500D02*
X607131Y-180501D01*
X604465Y-187500D01*
X605465Y-185167D02*
X608798D01*
X611430Y-180501D02*
Y-187500D01*
Y-180501D02*
X613763D01*
X614763Y-180835D01*
X615429Y-181501D01*
X615763Y-182168D01*
X616096Y-183168D01*
Y-184834D01*
X615763Y-185834D01*
X615429Y-186500D01*
X614763Y-187167D01*
X613763Y-187500D01*
X611430D01*
X619662Y-180501D02*
X618662Y-180835D01*
X617996Y-181834D01*
X617662Y-183501D01*
Y-184501D01*
X617996Y-186167D01*
X618662Y-187167D01*
X619662Y-187500D01*
X620328D01*
X621328Y-187167D01*
X621995Y-186167D01*
X622328Y-184501D01*
Y-183501D01*
X621995Y-181834D01*
X621328Y-180835D01*
X620328Y-180501D01*
X619662D01*
X623894Y-181834D02*
X624561Y-181501D01*
X625561Y-180501D01*
Y-187500D01*
X631026Y-180501D02*
X630026Y-180835D01*
X629360Y-181834D01*
X629027Y-183501D01*
Y-184501D01*
X629360Y-186167D01*
X630026Y-187167D01*
X631026Y-187500D01*
X631693D01*
X632692Y-187167D01*
X633359Y-186167D01*
X633692Y-184501D01*
Y-183501D01*
X633359Y-181834D01*
X632692Y-180835D01*
X631693Y-180501D01*
X631026D01*
X637258D02*
X636258Y-180835D01*
X635592Y-181834D01*
X635259Y-183501D01*
Y-184501D01*
X635592Y-186167D01*
X636258Y-187167D01*
X637258Y-187500D01*
X637925D01*
X638924Y-187167D01*
X639591Y-186167D01*
X639924Y-184501D01*
Y-183501D01*
X639591Y-181834D01*
X638924Y-180835D01*
X637925Y-180501D01*
X637258D01*
X810000Y-181334D02*
X810666Y-181001D01*
X811666Y-180001D01*
Y-187000D01*
X815466Y-182334D02*
X815132Y-182668D01*
X815466Y-183001D01*
X815799Y-182668D01*
X815466Y-182334D01*
Y-186334D02*
X815132Y-186667D01*
X815466Y-187000D01*
X815799Y-186667D01*
X815466Y-186334D01*
X817332Y-181334D02*
X817998Y-181001D01*
X818998Y-180001D01*
Y-187000D01*
X810000Y-152334D02*
X812000Y-157000D01*
X813999Y-152334D02*
X812000Y-157000D01*
X815132Y-151335D02*
X815799Y-151001D01*
X816798Y-150002D01*
Y-157000D01*
X820598Y-156333D02*
X820265Y-156667D01*
X820598Y-157000D01*
X820931Y-156667D01*
X820598Y-156333D01*
X824464Y-150002D02*
X823464Y-150335D01*
X822797Y-151335D01*
X822464Y-153001D01*
Y-154001D01*
X822797Y-155667D01*
X823464Y-156667D01*
X824464Y-157000D01*
X825130D01*
X826130Y-156667D01*
X826796Y-155667D01*
X827130Y-154001D01*
Y-153001D01*
X826796Y-151335D01*
X826130Y-150335D01*
X825130Y-150002D01*
X824464D01*
X453333Y-90001D02*
Y-95334D01*
X452999Y-96333D01*
X452666Y-96667D01*
X452000Y-97000D01*
X451333D01*
X450667Y-96667D01*
X450333Y-96333D01*
X450000Y-95334D01*
Y-94667D01*
X455466Y-96333D02*
X455132Y-96667D01*
X455466Y-97000D01*
X455799Y-96667D01*
X455466Y-96333D01*
X462831Y-90001D02*
Y-97000D01*
Y-90001D02*
X465830D01*
X466830Y-90335D01*
X467163Y-90668D01*
X467496Y-91335D01*
Y-92001D01*
X467163Y-92668D01*
X466830Y-93001D01*
X465830Y-93334D01*
X462831D01*
X465163D02*
X467496Y-97000D01*
X470729Y-92334D02*
X470062Y-92668D01*
X469396Y-93334D01*
X469063Y-94334D01*
Y-95000D01*
X469396Y-96000D01*
X470062Y-96667D01*
X470729Y-97000D01*
X471729D01*
X472395Y-96667D01*
X473062Y-96000D01*
X473395Y-95000D01*
Y-94334D01*
X473062Y-93334D01*
X472395Y-92668D01*
X471729Y-92334D01*
X470729D01*
X474928D02*
X476261Y-97000D01*
X477594Y-92334D02*
X476261Y-97000D01*
X477594Y-92334D02*
X478927Y-97000D01*
X480260Y-92334D02*
X478927Y-97000D01*
X481893Y-90001D02*
Y-97000D01*
X483359Y-94334D02*
X487359D01*
Y-93667D01*
X487025Y-93001D01*
X486692Y-92668D01*
X486026Y-92334D01*
X485026D01*
X484359Y-92668D01*
X483693Y-93334D01*
X483359Y-94334D01*
Y-95000D01*
X483693Y-96000D01*
X484359Y-96667D01*
X485026Y-97000D01*
X486026D01*
X486692Y-96667D01*
X487359Y-96000D01*
X489192Y-92334D02*
X491191Y-97000D01*
X493191Y-92334D02*
X491191Y-97000D01*
X490525Y-98333D01*
X489858Y-99000D01*
X489192Y-99333D01*
X488858D01*
X495024Y-96667D02*
X494690Y-97000D01*
X494357Y-96667D01*
X494690Y-96333D01*
X495024Y-96667D01*
Y-97333D01*
X494690Y-98000D01*
X494357Y-98333D01*
X502056Y-90001D02*
Y-97000D01*
Y-90001D02*
X504722Y-97000D01*
X507388Y-90001D02*
X504722Y-97000D01*
X507388Y-90001D02*
Y-97000D01*
X509721Y-96333D02*
X509387Y-96667D01*
X509721Y-97000D01*
X510054Y-96667D01*
X509721Y-96333D01*
X519085Y-90001D02*
X518419Y-90335D01*
X517752Y-91001D01*
X517419Y-91668D01*
X517086Y-92668D01*
Y-94334D01*
X517419Y-95334D01*
X517752Y-96000D01*
X518419Y-96667D01*
X519085Y-97000D01*
X520418D01*
X521085Y-96667D01*
X521751Y-96000D01*
X522085Y-95334D01*
X522418Y-94334D01*
Y-92668D01*
X522085Y-91668D01*
X521751Y-91001D01*
X521085Y-90335D01*
X520418Y-90001D01*
X519085D01*
X524051Y-92334D02*
Y-97000D01*
Y-93667D02*
X525051Y-92668D01*
X525717Y-92334D01*
X526717D01*
X527383Y-92668D01*
X527717Y-93667D01*
Y-97000D01*
Y-93667D02*
X528716Y-92668D01*
X529383Y-92334D01*
X530383D01*
X531049Y-92668D01*
X531383Y-93667D01*
Y-97000D01*
X535248Y-92334D02*
X534582Y-92668D01*
X533915Y-93334D01*
X533582Y-94334D01*
Y-95000D01*
X533915Y-96000D01*
X534582Y-96667D01*
X535248Y-97000D01*
X536248D01*
X536915Y-96667D01*
X537581Y-96000D01*
X537915Y-95000D01*
Y-94334D01*
X537581Y-93334D01*
X536915Y-92668D01*
X536248Y-92334D01*
X535248D01*
X450000Y-120001D02*
Y-127000D01*
X454666Y-120001D02*
X450000Y-124667D01*
X451666Y-123001D02*
X454666Y-127000D01*
X456232Y-124334D02*
X460231D01*
Y-123667D01*
X459898Y-123001D01*
X459565Y-122668D01*
X458898Y-122334D01*
X457898D01*
X457232Y-122668D01*
X456565Y-123334D01*
X456232Y-124334D01*
Y-125000D01*
X456565Y-126000D01*
X457232Y-126667D01*
X457898Y-127000D01*
X458898D01*
X459565Y-126667D01*
X460231Y-126000D01*
X461731Y-122334D02*
Y-127000D01*
Y-123667D02*
X462731Y-122668D01*
X463397Y-122334D01*
X464397D01*
X465063Y-122668D01*
X465397Y-123667D01*
Y-127000D01*
Y-123667D02*
X466397Y-122668D01*
X467063Y-122334D01*
X468063D01*
X468729Y-122668D01*
X469063Y-123667D01*
Y-127000D01*
X471262Y-122334D02*
Y-129333D01*
Y-123334D02*
X471929Y-122668D01*
X472595Y-122334D01*
X473595D01*
X474262Y-122668D01*
X474928Y-123334D01*
X475261Y-124334D01*
Y-125000D01*
X474928Y-126000D01*
X474262Y-126667D01*
X473595Y-127000D01*
X472595D01*
X471929Y-126667D01*
X471262Y-126000D01*
X477761Y-120001D02*
Y-125667D01*
X478094Y-126667D01*
X478760Y-127000D01*
X479427D01*
X476761Y-122334D02*
X479094D01*
X482093D02*
X481427Y-122668D01*
X480760Y-123334D01*
X480427Y-124334D01*
Y-125000D01*
X480760Y-126000D01*
X481427Y-126667D01*
X482093Y-127000D01*
X483093D01*
X483759Y-126667D01*
X484426Y-126000D01*
X484759Y-125000D01*
Y-124334D01*
X484426Y-123334D01*
X483759Y-122668D01*
X483093Y-122334D01*
X482093D01*
X486292D02*
Y-127000D01*
Y-123667D02*
X487292Y-122668D01*
X487958Y-122334D01*
X488958D01*
X489625Y-122668D01*
X489958Y-123667D01*
Y-127000D01*
X225000Y-165501D02*
Y-170500D01*
X225333Y-171500D01*
X226000Y-172167D01*
X227000Y-172500D01*
X227666D01*
X228666Y-172167D01*
X229332Y-171500D01*
X229666Y-170500D01*
Y-165501D01*
X231599Y-167834D02*
Y-172500D01*
Y-169167D02*
X232598Y-168168D01*
X233265Y-167834D01*
X234265D01*
X234931Y-168168D01*
X235264Y-169167D01*
Y-172500D01*
X237764Y-165501D02*
X238097Y-165835D01*
X238431Y-165501D01*
X238097Y-165168D01*
X237764Y-165501D01*
X238097Y-167834D02*
Y-172500D01*
X242330Y-165501D02*
X241663D01*
X240997Y-165835D01*
X240663Y-166834D01*
Y-172500D01*
X239664Y-167834D02*
X241996D01*
X243996Y-165501D02*
X244329Y-165835D01*
X244662Y-165501D01*
X244329Y-165168D01*
X243996Y-165501D01*
X244329Y-167834D02*
Y-172500D01*
X245896Y-169834D02*
X249895D01*
Y-169167D01*
X249561Y-168501D01*
X249228Y-168168D01*
X248562Y-167834D01*
X247562D01*
X246895Y-168168D01*
X246229Y-168834D01*
X245896Y-169834D01*
Y-170500D01*
X246229Y-171500D01*
X246895Y-172167D01*
X247562Y-172500D01*
X248562D01*
X249228Y-172167D01*
X249895Y-171500D01*
X255394Y-165501D02*
Y-172500D01*
Y-168834D02*
X254727Y-168168D01*
X254060Y-167834D01*
X253061D01*
X252394Y-168168D01*
X251728Y-168834D01*
X251394Y-169834D01*
Y-170500D01*
X251728Y-171500D01*
X252394Y-172167D01*
X253061Y-172500D01*
X254060D01*
X254727Y-172167D01*
X255394Y-171500D01*
X262759Y-165501D02*
Y-170500D01*
X263092Y-171500D01*
X263758Y-172167D01*
X264758Y-172500D01*
X265425D01*
X266424Y-172167D01*
X267091Y-171500D01*
X267424Y-170500D01*
Y-165501D01*
X274023Y-166501D02*
X273356Y-165835D01*
X272357Y-165501D01*
X271024D01*
X270024Y-165835D01*
X269357Y-166501D01*
Y-167168D01*
X269690Y-167834D01*
X270024Y-168168D01*
X270690Y-168501D01*
X272690Y-169167D01*
X273356Y-169501D01*
X273690Y-169834D01*
X274023Y-170500D01*
Y-171500D01*
X273356Y-172167D01*
X272357Y-172500D01*
X271024D01*
X270024Y-172167D01*
X269357Y-171500D01*
X275589Y-165501D02*
Y-172500D01*
Y-165501D02*
X278589D01*
X279588Y-165835D01*
X279922Y-166168D01*
X280255Y-166834D01*
Y-167501D01*
X279922Y-168168D01*
X279588Y-168501D01*
X278589Y-168834D01*
X275589D02*
X278589D01*
X279588Y-169167D01*
X279922Y-169501D01*
X280255Y-170167D01*
Y-171167D01*
X279922Y-171834D01*
X279588Y-172167D01*
X278589Y-172500D01*
X275589D01*
X289320Y-165501D02*
X288653Y-165835D01*
X287986Y-166501D01*
X287653Y-167168D01*
X287320Y-168168D01*
Y-169834D01*
X287653Y-170834D01*
X287986Y-171500D01*
X288653Y-172167D01*
X289320Y-172500D01*
X290653D01*
X291319Y-172167D01*
X291986Y-171500D01*
X292319Y-170834D01*
X292652Y-169834D01*
Y-168168D01*
X292319Y-167168D01*
X291986Y-166501D01*
X291319Y-165835D01*
X290653Y-165501D01*
X289320D01*
X297951Y-168834D02*
X297618Y-168168D01*
X296618Y-167834D01*
X295618D01*
X294618Y-168168D01*
X294285Y-168834D01*
X294618Y-169501D01*
X295285Y-169834D01*
X296951Y-170167D01*
X297618Y-170500D01*
X297951Y-171167D01*
Y-171500D01*
X297618Y-172167D01*
X296618Y-172500D01*
X295618D01*
X294618Y-172167D01*
X294285Y-171500D01*
X303416Y-168834D02*
X302750Y-168168D01*
X302083Y-167834D01*
X301084D01*
X300417Y-168168D01*
X299751Y-168834D01*
X299417Y-169834D01*
Y-170500D01*
X299751Y-171500D01*
X300417Y-172167D01*
X301084Y-172500D01*
X302083D01*
X302750Y-172167D01*
X303416Y-171500D01*
X305583Y-165501D02*
X305916Y-165835D01*
X306249Y-165501D01*
X305916Y-165168D01*
X305583Y-165501D01*
X305916Y-167834D02*
Y-172500D01*
X307482Y-165501D02*
Y-172500D01*
X308949Y-165501D02*
Y-172500D01*
X312081Y-167834D02*
X311415Y-168168D01*
X310748Y-168834D01*
X310415Y-169834D01*
Y-170500D01*
X310748Y-171500D01*
X311415Y-172167D01*
X312081Y-172500D01*
X313081D01*
X313748Y-172167D01*
X314414Y-171500D01*
X314747Y-170500D01*
Y-169834D01*
X314414Y-168834D01*
X313748Y-168168D01*
X313081Y-167834D01*
X312081D01*
X319946Y-168834D02*
X319613Y-168168D01*
X318613Y-167834D01*
X317614D01*
X316614Y-168168D01*
X316280Y-168834D01*
X316614Y-169501D01*
X317280Y-169834D01*
X318947Y-170167D01*
X319613Y-170500D01*
X319946Y-171167D01*
Y-171500D01*
X319613Y-172167D01*
X318613Y-172500D01*
X317614D01*
X316614Y-172167D01*
X316280Y-171500D01*
X325412Y-168834D02*
X324745Y-168168D01*
X324079Y-167834D01*
X323079D01*
X322412Y-168168D01*
X321746Y-168834D01*
X321413Y-169834D01*
Y-170500D01*
X321746Y-171500D01*
X322412Y-172167D01*
X323079Y-172500D01*
X324079D01*
X324745Y-172167D01*
X325412Y-171500D01*
X328578Y-167834D02*
X327911Y-168168D01*
X327245Y-168834D01*
X326911Y-169834D01*
Y-170500D01*
X327245Y-171500D01*
X327911Y-172167D01*
X328578Y-172500D01*
X329578D01*
X330244Y-172167D01*
X330911Y-171500D01*
X331244Y-170500D01*
Y-169834D01*
X330911Y-168834D01*
X330244Y-168168D01*
X329578Y-167834D01*
X328578D01*
X332777D02*
Y-174833D01*
Y-168834D02*
X333443Y-168168D01*
X334110Y-167834D01*
X335110D01*
X335776Y-168168D01*
X336443Y-168834D01*
X336776Y-169834D01*
Y-170500D01*
X336443Y-171500D01*
X335776Y-172167D01*
X335110Y-172500D01*
X334110D01*
X333443Y-172167D01*
X332777Y-171500D01*
X338276Y-169834D02*
X342275D01*
Y-169167D01*
X341942Y-168501D01*
X341608Y-168168D01*
X340942Y-167834D01*
X339942D01*
X339276Y-168168D01*
X338609Y-168834D01*
X338276Y-169834D01*
Y-170500D01*
X338609Y-171500D01*
X339276Y-172167D01*
X339942Y-172500D01*
X340942D01*
X341608Y-172167D01*
X342275Y-171500D01*
X349273Y-169167D02*
X352273D01*
X353273Y-168834D01*
X353606Y-168501D01*
X353939Y-167834D01*
Y-166834D01*
X353606Y-166168D01*
X353273Y-165835D01*
X352273Y-165501D01*
X349273D01*
Y-172500D01*
X355505Y-167834D02*
Y-172500D01*
Y-169834D02*
X355839Y-168834D01*
X356505Y-168168D01*
X357172Y-167834D01*
X358172D01*
X360471D02*
X359804Y-168168D01*
X359138Y-168834D01*
X358805Y-169834D01*
Y-170500D01*
X359138Y-171500D01*
X359804Y-172167D01*
X360471Y-172500D01*
X361471D01*
X362137Y-172167D01*
X362804Y-171500D01*
X363137Y-170500D01*
Y-169834D01*
X362804Y-168834D01*
X362137Y-168168D01*
X361471Y-167834D01*
X360471D01*
X364670Y-165501D02*
Y-172500D01*
Y-168834D02*
X365337Y-168168D01*
X366003Y-167834D01*
X367003D01*
X367669Y-168168D01*
X368336Y-168834D01*
X368669Y-169834D01*
Y-170500D01*
X368336Y-171500D01*
X367669Y-172167D01*
X367003Y-172500D01*
X366003D01*
X365337Y-172167D01*
X364670Y-171500D01*
X370169Y-169834D02*
X374168D01*
Y-169167D01*
X373835Y-168501D01*
X373501Y-168168D01*
X372835Y-167834D01*
X371835D01*
X371169Y-168168D01*
X370502Y-168834D01*
X370169Y-169834D01*
Y-170500D01*
X370502Y-171500D01*
X371169Y-172167D01*
X371835Y-172500D01*
X372835D01*
X373501Y-172167D01*
X374168Y-171500D01*
X454666Y-150002D02*
X451333Y-157000D01*
X450000Y-150002D02*
X454666D01*
X456232Y-158000D02*
X460898Y-150002D01*
X461697Y-151668D02*
Y-151335D01*
X462031Y-150668D01*
X462364Y-150335D01*
X463030Y-150002D01*
X464364D01*
X465030Y-150335D01*
X465363Y-150668D01*
X465697Y-151335D01*
Y-152001D01*
X465363Y-152668D01*
X464697Y-153667D01*
X461364Y-157000D01*
X466030D01*
X467596Y-151335D02*
X468263Y-151001D01*
X469263Y-150002D01*
Y-157000D01*
X472728Y-158000D02*
X477394Y-150002D01*
X478194Y-151668D02*
Y-151335D01*
X478527Y-150668D01*
X478861Y-150335D01*
X479527Y-150002D01*
X480860D01*
X481527Y-150335D01*
X481860Y-150668D01*
X482193Y-151335D01*
Y-152001D01*
X481860Y-152668D01*
X481193Y-153667D01*
X477861Y-157000D01*
X482526D01*
X486092Y-150002D02*
X485092Y-150335D01*
X484426Y-151335D01*
X484093Y-153001D01*
Y-154001D01*
X484426Y-155667D01*
X485092Y-156667D01*
X486092Y-157000D01*
X486759D01*
X487759Y-156667D01*
X488425Y-155667D01*
X488758Y-154001D01*
Y-153001D01*
X488425Y-151335D01*
X487759Y-150335D01*
X486759Y-150002D01*
X486092D01*
X490325Y-151335D02*
X490991Y-151001D01*
X491991Y-150002D01*
Y-157000D01*
X499789Y-152334D02*
X499456Y-153334D01*
X498790Y-154001D01*
X497790Y-154334D01*
X497457D01*
X496457Y-154001D01*
X495790Y-153334D01*
X495457Y-152334D01*
Y-152001D01*
X495790Y-151001D01*
X496457Y-150335D01*
X497457Y-150002D01*
X497790D01*
X498790Y-150335D01*
X499456Y-151001D01*
X499789Y-152334D01*
Y-154001D01*
X499456Y-155667D01*
X498790Y-156667D01*
X497790Y-157000D01*
X497123D01*
X496123Y-156667D01*
X495790Y-156000D01*
X447500Y-180501D02*
Y-187500D01*
X451499D01*
X456598Y-180501D02*
X452266D01*
Y-187500D01*
X456598D01*
X452266Y-183834D02*
X454932D01*
X460097Y-180501D02*
Y-187500D01*
X457764Y-180501D02*
X462430D01*
X465596D02*
Y-187500D01*
X463263Y-180501D02*
X467929D01*
X473095D02*
X468762D01*
Y-187500D01*
X473095D01*
X468762Y-183834D02*
X471428D01*
X474261Y-180501D02*
Y-187500D01*
Y-180501D02*
X477260D01*
X478260Y-180835D01*
X478593Y-181168D01*
X478927Y-181834D01*
Y-182501D01*
X478593Y-183168D01*
X478260Y-183501D01*
X477260Y-183834D01*
X474261D01*
X476594D02*
X478927Y-187500D01*
X-177168Y509700D02*
X-179834Y516699D01*
X-182500Y509700D01*
X-181500Y512033D02*
X-178168D01*
X-182500Y304199D02*
Y297200D01*
Y304199D02*
X-179501D01*
X-178501Y303865D01*
X-178168Y303532D01*
X-177834Y302866D01*
Y302199D01*
X-178168Y301532D01*
X-178501Y301199D01*
X-179501Y300866D01*
X-182500D02*
X-179501D01*
X-178501Y300533D01*
X-178168Y300199D01*
X-177834Y299533D01*
Y298533D01*
X-178168Y297867D01*
X-178501Y297533D01*
X-179501Y297200D01*
X-182500D01*
X-177501Y90032D02*
X-177834Y90699D01*
X-178501Y91365D01*
X-179167Y91698D01*
X-180500D01*
X-181167Y91365D01*
X-181834Y90699D01*
X-182167Y90032D01*
X-182500Y89032D01*
Y87366D01*
X-182167Y86366D01*
X-181834Y85700D01*
X-181167Y85033D01*
X-180500Y84700D01*
X-179167D01*
X-178501Y85033D01*
X-177834Y85700D01*
X-177501Y86366D01*
X-182500Y-120301D02*
Y-127300D01*
Y-120301D02*
X-180167D01*
X-179167Y-120635D01*
X-178501Y-121301D01*
X-178168Y-121968D01*
X-177834Y-122968D01*
Y-124634D01*
X-178168Y-125634D01*
X-178501Y-126300D01*
X-179167Y-126967D01*
X-180167Y-127300D01*
X-182500D01*
X-54866Y-212835D02*
X-54200Y-212501D01*
X-53200Y-211502D01*
Y-218500D01*
X220533Y-213168D02*
Y-212835D01*
X220866Y-212168D01*
X221200Y-211835D01*
X221866Y-211502D01*
X223199D01*
X223866Y-211835D01*
X224199Y-212168D01*
X224532Y-212835D01*
Y-213501D01*
X224199Y-214168D01*
X223533Y-215167D01*
X220200Y-218500D01*
X224866D01*
X495366Y-211502D02*
X499032D01*
X497033Y-214168D01*
X498033D01*
X498699Y-214501D01*
X499032Y-214834D01*
X499366Y-215834D01*
Y-216500D01*
X499032Y-217500D01*
X498366Y-218167D01*
X497366Y-218500D01*
X496366D01*
X495366Y-218167D01*
X495033Y-217833D01*
X494700Y-217167D01*
X773134Y-211502D02*
X769801Y-216167D01*
X774800D01*
X773134Y-211502D02*
Y-218500D01*
X-54866Y617165D02*
X-54200Y617499D01*
X-53200Y618499D01*
Y611500D01*
X220533Y616832D02*
Y617165D01*
X220866Y617832D01*
X221200Y618165D01*
X221866Y618499D01*
X223199D01*
X223866Y618165D01*
X224199Y617832D01*
X224532Y617165D01*
Y616499D01*
X224199Y615832D01*
X223533Y614833D01*
X220200Y611500D01*
X224866D01*
X495366Y618499D02*
X499032D01*
X497033Y615832D01*
X498033D01*
X498699Y615499D01*
X499032Y615166D01*
X499366Y614166D01*
Y613500D01*
X499032Y612500D01*
X498366Y611833D01*
X497366Y611500D01*
X496366D01*
X495366Y611833D01*
X495033Y612167D01*
X494700Y612833D01*
X773134Y618499D02*
X769801Y613833D01*
X774800D01*
X773134Y618499D02*
Y611500D01*
X902832Y509700D02*
X900166Y516699D01*
X897500Y509700D01*
X898500Y512033D02*
X901832D01*
X897500Y304199D02*
Y297200D01*
Y304199D02*
X900499D01*
X901499Y303865D01*
X901832Y303532D01*
X902166Y302866D01*
Y302199D01*
X901832Y301532D01*
X901499Y301199D01*
X900499Y300866D01*
X897500D02*
X900499D01*
X901499Y300533D01*
X901832Y300199D01*
X902166Y299533D01*
Y298533D01*
X901832Y297867D01*
X901499Y297533D01*
X900499Y297200D01*
X897500D01*
X902499Y90032D02*
X902166Y90699D01*
X901499Y91365D01*
X900833Y91698D01*
X899500D01*
X898833Y91365D01*
X898166Y90699D01*
X897833Y90032D01*
X897500Y89032D01*
Y87366D01*
X897833Y86366D01*
X898166Y85700D01*
X898833Y85033D01*
X899500Y84700D01*
X900833D01*
X901499Y85033D01*
X902166Y85700D01*
X902499Y86366D01*
X897500Y-120301D02*
Y-127300D01*
Y-120301D02*
X899833D01*
X900833Y-120635D01*
X901499Y-121301D01*
X901832Y-121968D01*
X902166Y-122968D01*
Y-124634D01*
X901832Y-125634D01*
X901499Y-126300D01*
X900833Y-126967D01*
X899833Y-127300D01*
X897500D01*
M02*
