G04 Layer_Physical_Order=1*
G04 Layer_Color=255*
%FSLAX25Y25*%
%MOIN*%
G70*
G01*
G75*
%ADD10C,0.02165*%
%ADD11R,0.16535X0.05315*%
%ADD12R,0.14173X0.05000*%
%ADD13C,0.01181*%
%ADD14O,0.00984X0.04724*%
%ADD15O,0.04724X0.00984*%
%ADD16R,0.02362X0.04331*%
%ADD17R,0.03937X0.02362*%
%ADD18R,0.12992X0.12992*%
%ADD19O,0.00984X0.03347*%
%ADD20O,0.03347X0.00984*%
%ADD21R,0.04724X0.01181*%
%ADD22R,0.05118X0.05118*%
%ADD23R,0.02165X0.03347*%
%ADD24R,0.03543X0.03937*%
%ADD25R,0.03150X0.02756*%
%ADD26R,0.02756X0.03150*%
%ADD27R,0.03937X0.03543*%
%ADD28R,0.05512X0.04724*%
G04:AMPARAMS|DCode=29|XSize=29.53mil|YSize=33.47mil|CornerRadius=2.21mil|HoleSize=0mil|Usage=FLASHONLY|Rotation=0.000|XOffset=0mil|YOffset=0mil|HoleType=Round|Shape=RoundedRectangle|*
%AMROUNDEDRECTD29*
21,1,0.02953,0.02904,0,0,0.0*
21,1,0.02510,0.03347,0,0,0.0*
1,1,0.00443,0.01255,-0.01452*
1,1,0.00443,-0.01255,-0.01452*
1,1,0.00443,-0.01255,0.01452*
1,1,0.00443,0.01255,0.01452*
%
%ADD29ROUNDEDRECTD29*%
%ADD30R,0.06299X0.08268*%
%ADD31R,0.07480X0.07087*%
%ADD32R,0.05315X0.01575*%
%ADD33R,0.03937X0.01181*%
%ADD34R,0.02362X0.01181*%
%ADD35R,0.03937X0.01575*%
%ADD36R,0.02920X0.02126*%
%ADD37R,0.00984X0.02559*%
%ADD38R,0.04724X0.02362*%
%ADD39R,0.02362X0.03347*%
%ADD40R,0.03937X0.03347*%
%ADD41R,0.05800X0.02000*%
%ADD42R,0.02000X0.05800*%
%ADD43R,0.05512X0.04232*%
%ADD44C,0.07874*%
%ADD45C,0.00300*%
%ADD46C,0.01000*%
%ADD47C,0.00600*%
%ADD48C,0.00800*%
%ADD49C,0.00500*%
%ADD50C,0.02000*%
%ADD51R,0.03543X0.04331*%
%ADD52O,0.03543X0.04331*%
%ADD53C,0.02400*%
%ADD54C,0.01200*%
%ADD55C,0.03500*%
D10*
X142811Y137811D02*
D03*
X142811Y133874D02*
D03*
Y129937D02*
D03*
X142811Y126000D02*
D03*
Y122063D02*
D03*
X138874Y137811D02*
D03*
Y133874D02*
D03*
Y129937D02*
D03*
Y126000D02*
D03*
Y122063D02*
D03*
X134937Y137811D02*
D03*
X134937Y133874D02*
D03*
Y129937D02*
D03*
X134937Y126000D02*
D03*
Y122063D02*
D03*
X131000Y137811D02*
D03*
Y133874D02*
D03*
Y129937D02*
D03*
Y126000D02*
D03*
Y122063D02*
D03*
X127063Y137811D02*
D03*
Y133874D02*
D03*
Y129937D02*
D03*
X127063Y126000D02*
D03*
X127063Y122063D02*
D03*
D11*
X261713Y111122D02*
D03*
Y88878D02*
D03*
D12*
X262500Y100000D02*
D03*
D13*
X122205Y84705D02*
D03*
Y86673D02*
D03*
Y88642D02*
D03*
Y90610D02*
D03*
Y92579D02*
D03*
Y94547D02*
D03*
Y96516D02*
D03*
Y98484D02*
D03*
Y100453D02*
D03*
Y102421D02*
D03*
Y104390D02*
D03*
X122205Y106358D02*
D03*
X122205Y108327D02*
D03*
Y110295D02*
D03*
X124173Y84705D02*
D03*
Y86673D02*
D03*
Y88642D02*
D03*
Y90610D02*
D03*
Y92579D02*
D03*
Y94547D02*
D03*
Y96516D02*
D03*
Y98484D02*
D03*
Y100453D02*
D03*
Y102421D02*
D03*
Y104390D02*
D03*
Y106358D02*
D03*
Y108327D02*
D03*
Y110295D02*
D03*
X126142Y84705D02*
D03*
Y86673D02*
D03*
Y88642D02*
D03*
Y90610D02*
D03*
Y92579D02*
D03*
Y94547D02*
D03*
Y96516D02*
D03*
Y98484D02*
D03*
Y100453D02*
D03*
Y102421D02*
D03*
Y104390D02*
D03*
Y106358D02*
D03*
Y108327D02*
D03*
Y110295D02*
D03*
X128110Y84705D02*
D03*
Y86673D02*
D03*
Y88642D02*
D03*
Y106358D02*
D03*
Y108327D02*
D03*
Y110295D02*
D03*
X130079Y84705D02*
D03*
Y86673D02*
D03*
X130079Y88642D02*
D03*
Y106358D02*
D03*
Y108327D02*
D03*
Y110295D02*
D03*
X132047Y84705D02*
D03*
Y86673D02*
D03*
Y88642D02*
D03*
Y106358D02*
D03*
Y108327D02*
D03*
Y110295D02*
D03*
X134016Y84705D02*
D03*
Y86673D02*
D03*
Y88642D02*
D03*
Y106358D02*
D03*
Y108327D02*
D03*
Y110295D02*
D03*
X135984Y84705D02*
D03*
Y86673D02*
D03*
Y88642D02*
D03*
Y106358D02*
D03*
Y108327D02*
D03*
Y110295D02*
D03*
X137953Y84705D02*
D03*
Y86673D02*
D03*
Y88642D02*
D03*
Y106358D02*
D03*
Y108327D02*
D03*
Y110295D02*
D03*
X139921Y84705D02*
D03*
Y86673D02*
D03*
X139921Y88642D02*
D03*
Y106358D02*
D03*
Y108327D02*
D03*
Y110295D02*
D03*
X141890Y84705D02*
D03*
Y86673D02*
D03*
X141890Y88642D02*
D03*
Y106358D02*
D03*
Y108327D02*
D03*
Y110295D02*
D03*
X143858Y84705D02*
D03*
X143858Y86673D02*
D03*
X143858Y88642D02*
D03*
Y90610D02*
D03*
Y92579D02*
D03*
Y94547D02*
D03*
Y96516D02*
D03*
X143858Y98484D02*
D03*
Y100453D02*
D03*
X143858Y102421D02*
D03*
Y104390D02*
D03*
Y106358D02*
D03*
Y108327D02*
D03*
Y110295D02*
D03*
X145827Y84705D02*
D03*
Y86673D02*
D03*
Y88642D02*
D03*
Y90610D02*
D03*
Y92579D02*
D03*
Y94547D02*
D03*
Y96516D02*
D03*
Y98484D02*
D03*
Y100453D02*
D03*
Y102421D02*
D03*
Y104390D02*
D03*
Y106358D02*
D03*
Y108327D02*
D03*
Y110295D02*
D03*
X147795Y84705D02*
D03*
Y86673D02*
D03*
Y88642D02*
D03*
Y90610D02*
D03*
Y92579D02*
D03*
Y94547D02*
D03*
Y96516D02*
D03*
Y98484D02*
D03*
Y100453D02*
D03*
Y102421D02*
D03*
Y104390D02*
D03*
Y106358D02*
D03*
Y108327D02*
D03*
Y110295D02*
D03*
D14*
X92044Y77953D02*
D03*
X90075D02*
D03*
X88107D02*
D03*
X86138D02*
D03*
X84170D02*
D03*
X82201D02*
D03*
X80233D02*
D03*
X78264D02*
D03*
X76296D02*
D03*
X74327D02*
D03*
X72359D02*
D03*
X70390D02*
D03*
X68422D02*
D03*
X66453D02*
D03*
X64485D02*
D03*
X62516D02*
D03*
Y122047D02*
D03*
X64485D02*
D03*
X66453D02*
D03*
X68422D02*
D03*
X70390D02*
D03*
X72359D02*
D03*
X74327D02*
D03*
X76296D02*
D03*
X78264D02*
D03*
X80233D02*
D03*
X82201D02*
D03*
X84170D02*
D03*
X86138D02*
D03*
X88107D02*
D03*
X90075D02*
D03*
X92044D02*
D03*
D15*
X55233Y85236D02*
D03*
Y87205D02*
D03*
Y89173D02*
D03*
Y91142D02*
D03*
Y93110D02*
D03*
Y95079D02*
D03*
Y97047D02*
D03*
Y99016D02*
D03*
Y100984D02*
D03*
Y102953D02*
D03*
Y104921D02*
D03*
Y106890D02*
D03*
Y108858D02*
D03*
Y110827D02*
D03*
Y112795D02*
D03*
Y114764D02*
D03*
X99327D02*
D03*
Y112795D02*
D03*
Y110827D02*
D03*
Y108858D02*
D03*
Y106890D02*
D03*
Y104921D02*
D03*
Y102953D02*
D03*
Y100984D02*
D03*
Y99016D02*
D03*
Y97047D02*
D03*
Y95079D02*
D03*
Y93110D02*
D03*
Y91142D02*
D03*
Y89173D02*
D03*
Y87205D02*
D03*
Y85236D02*
D03*
D16*
X156260Y132618D02*
D03*
X163740D02*
D03*
Y122382D02*
D03*
X160000D02*
D03*
X156260D02*
D03*
X242740Y120882D02*
D03*
X235260D02*
D03*
Y131118D02*
D03*
X239000D02*
D03*
X242740D02*
D03*
D17*
X263413Y128240D02*
D03*
Y124500D02*
D03*
Y120760D02*
D03*
X252587D02*
D03*
Y124500D02*
D03*
Y128240D02*
D03*
D18*
X212000Y127500D02*
D03*
D19*
X218890Y118347D02*
D03*
X216921D02*
D03*
X214953D02*
D03*
X212984D02*
D03*
X211016D02*
D03*
X209047D02*
D03*
X207079D02*
D03*
X205110D02*
D03*
Y136653D02*
D03*
X207079D02*
D03*
X209047D02*
D03*
X211016D02*
D03*
X212984D02*
D03*
X214953D02*
D03*
X216921D02*
D03*
X218890D02*
D03*
X214547Y99783D02*
D03*
X216516D02*
D03*
X218484D02*
D03*
X220453D02*
D03*
X220453Y110216D02*
D03*
X218484D02*
D03*
X216516D02*
D03*
X214547D02*
D03*
D20*
X202847Y120610D02*
D03*
Y122579D02*
D03*
X202847Y124547D02*
D03*
Y126516D02*
D03*
X202847Y128484D02*
D03*
Y130453D02*
D03*
X202847Y132421D02*
D03*
X202847Y134390D02*
D03*
X221153Y134390D02*
D03*
Y132421D02*
D03*
Y130453D02*
D03*
Y128484D02*
D03*
Y126516D02*
D03*
Y124547D02*
D03*
Y122579D02*
D03*
Y120610D02*
D03*
X222716Y102047D02*
D03*
Y104016D02*
D03*
X222716Y105984D02*
D03*
Y107953D02*
D03*
X212283D02*
D03*
Y105984D02*
D03*
Y104016D02*
D03*
Y102047D02*
D03*
D21*
X176732Y136437D02*
D03*
Y134468D02*
D03*
Y132500D02*
D03*
Y130532D02*
D03*
Y128563D02*
D03*
X193268Y136437D02*
D03*
Y134468D02*
D03*
X193268Y132500D02*
D03*
Y130532D02*
D03*
X193268Y128563D02*
D03*
D22*
X217500Y105000D02*
D03*
D23*
X231260Y104823D02*
D03*
X238740D02*
D03*
Y95177D02*
D03*
X235000Y95177D02*
D03*
X231260Y95177D02*
D03*
D24*
X261347Y136500D02*
D03*
X254654D02*
D03*
X236347Y139000D02*
D03*
X229654D02*
D03*
D25*
X157638Y115000D02*
D03*
X162362D02*
D03*
X241638Y138500D02*
D03*
X246362D02*
D03*
X239724Y114500D02*
D03*
X235000D02*
D03*
X224862Y92500D02*
D03*
X220138Y92500D02*
D03*
X235138Y109500D02*
D03*
X239862D02*
D03*
X220138Y87500D02*
D03*
X224862Y87500D02*
D03*
X237638Y90000D02*
D03*
X242362Y90000D02*
D03*
X237638Y85000D02*
D03*
X242362D02*
D03*
D26*
X169000Y122362D02*
D03*
Y117638D02*
D03*
X52500Y68862D02*
D03*
Y64138D02*
D03*
X80000Y68724D02*
D03*
Y64000D02*
D03*
X31000Y135862D02*
D03*
Y131138D02*
D03*
X109500Y122638D02*
D03*
Y127362D02*
D03*
X113500Y122638D02*
D03*
Y127362D02*
D03*
X46000Y114638D02*
D03*
Y119362D02*
D03*
X42000Y114638D02*
D03*
Y119362D02*
D03*
X231500Y126638D02*
D03*
Y131362D02*
D03*
X215000Y92362D02*
D03*
Y87638D02*
D03*
X192500Y116638D02*
D03*
Y121362D02*
D03*
X219500Y67862D02*
D03*
X219500Y63138D02*
D03*
X247500Y85138D02*
D03*
Y89862D02*
D03*
X250000Y95138D02*
D03*
Y99862D02*
D03*
X245000Y95138D02*
D03*
Y99862D02*
D03*
D27*
X67500Y63153D02*
D03*
Y69846D02*
D03*
X95000Y63153D02*
D03*
Y69846D02*
D03*
X75000Y63153D02*
D03*
Y69846D02*
D03*
X102500Y63153D02*
D03*
Y69846D02*
D03*
X43740Y129866D02*
D03*
X36260D02*
D03*
Y138134D02*
D03*
X43740D02*
D03*
X213500Y68846D02*
D03*
Y62154D02*
D03*
D28*
X110000Y62457D02*
D03*
Y69543D02*
D03*
D29*
X27453Y76000D02*
D03*
X21547D02*
D03*
X27453Y69000D02*
D03*
X21547Y69000D02*
D03*
X27453Y62000D02*
D03*
X21547D02*
D03*
X44453D02*
D03*
X38547D02*
D03*
X44453Y69000D02*
D03*
X38547D02*
D03*
X44453Y76000D02*
D03*
X38547D02*
D03*
D30*
X30008Y87795D02*
D03*
Y112205D02*
D03*
D31*
X19969Y85039D02*
D03*
Y114961D02*
D03*
D32*
X30500Y97441D02*
D03*
Y102559D02*
D03*
Y100000D02*
D03*
Y94882D02*
D03*
Y105118D02*
D03*
D33*
X47059Y104984D02*
D03*
X47059Y106953D02*
D03*
X41941Y104984D02*
D03*
D34*
X41154Y103016D02*
D03*
X41154Y101047D02*
D03*
X47846D02*
D03*
X47846Y103016D02*
D03*
D35*
X41941Y107150D02*
D03*
D36*
X44500Y101520D02*
D03*
D37*
X62953Y70102D02*
D03*
X60984D02*
D03*
X59016D02*
D03*
X57047D02*
D03*
X62953Y62898D02*
D03*
X60984D02*
D03*
X59016D02*
D03*
X57047D02*
D03*
X90453Y70102D02*
D03*
X88484D02*
D03*
X86516D02*
D03*
X84547D02*
D03*
X90453Y62898D02*
D03*
X88484D02*
D03*
X86516D02*
D03*
X84547D02*
D03*
D38*
X60000Y66500D02*
D03*
X87500D02*
D03*
D39*
X182500Y122150D02*
D03*
Y115850D02*
D03*
D40*
X178366Y122150D02*
D03*
X186634D02*
D03*
Y115850D02*
D03*
X178366D02*
D03*
D41*
X204600Y100700D02*
D03*
Y97600D02*
D03*
Y94400D02*
D03*
Y91300D02*
D03*
Y88100D02*
D03*
Y85000D02*
D03*
Y81900D02*
D03*
Y78700D02*
D03*
Y75600D02*
D03*
Y72400D02*
D03*
Y69300D02*
D03*
X160400D02*
D03*
Y72400D02*
D03*
Y75600D02*
D03*
Y78700D02*
D03*
Y81900D02*
D03*
Y85000D02*
D03*
Y88100D02*
D03*
Y91300D02*
D03*
Y94400D02*
D03*
Y97600D02*
D03*
Y100700D02*
D03*
D42*
X198200Y62900D02*
D03*
X195100D02*
D03*
X191900D02*
D03*
X188800D02*
D03*
X185600D02*
D03*
X182500D02*
D03*
X179400D02*
D03*
X176200D02*
D03*
X173100D02*
D03*
X169900D02*
D03*
X166800D02*
D03*
Y107100D02*
D03*
X169900D02*
D03*
X173100D02*
D03*
X176200D02*
D03*
X179400D02*
D03*
X182500D02*
D03*
X185600D02*
D03*
X188800D02*
D03*
X191900D02*
D03*
X195100D02*
D03*
X198200D02*
D03*
D43*
X250000Y65266D02*
D03*
Y79734D02*
D03*
X235000Y65266D02*
D03*
Y79734D02*
D03*
D44*
X110000Y100000D02*
D03*
Y90000D02*
D03*
Y110000D02*
D03*
D45*
X180937Y136437D02*
X181000Y136500D01*
X160300Y88000D02*
X160400Y88100D01*
X157500Y88000D02*
X160300D01*
X157000Y87500D02*
X157500Y88000D01*
X151000Y90000D02*
X151500D01*
X152000Y89500D01*
Y76000D02*
Y89500D01*
X150500D02*
X151000Y90000D01*
X150500Y80000D02*
Y89500D01*
X153500Y84500D02*
X154000D01*
X154500Y85000D01*
Y93000D01*
X153000Y85000D02*
X153500Y84500D01*
X153000Y85000D02*
Y93000D01*
X157000Y87000D02*
Y87500D01*
X156500Y86500D02*
X157000Y87000D01*
X156000Y86500D02*
X156500D01*
X155500Y87000D02*
X156000Y86500D01*
X155500Y87000D02*
Y95000D01*
X153500Y76000D02*
Y77500D01*
X153000Y75500D02*
X153500Y76000D01*
X152500Y75500D02*
X153000D01*
X152000Y76000D02*
X152500Y75500D01*
X149000Y80000D02*
Y89406D01*
Y80000D02*
X149500Y79500D01*
X150000D01*
X153500Y77500D02*
X154700Y78700D01*
X150000Y79500D02*
X150500Y80000D01*
X154700Y78700D02*
X160400D01*
X154500Y96000D02*
X155500Y95000D01*
X153500Y96000D02*
X154500D01*
X153000Y95500D02*
X153500Y96000D01*
X153000Y94500D02*
Y95500D01*
Y94500D02*
X154500Y93000D01*
X151453Y94547D02*
X153000Y93000D01*
X147795Y90610D02*
X149000Y89406D01*
X156500Y85000D02*
X160400D01*
X157500Y107500D02*
X164500D01*
X156700Y106700D02*
X157500Y107500D01*
X165000Y106000D02*
Y107000D01*
X164500Y107500D02*
X165000Y107000D01*
Y101500D02*
Y102500D01*
X164000Y103500D02*
X165000Y102500D01*
X158000Y103500D02*
X164000D01*
X164500Y105500D02*
X165000Y106000D01*
X158000Y105500D02*
X164500D01*
X157500Y105000D02*
X158000Y105500D01*
X157500Y104000D02*
Y105000D01*
Y104000D02*
X158000Y103500D01*
X160400Y100700D02*
X164200D01*
X165000Y101500D01*
X162500Y111500D02*
X165500D01*
X162000Y111000D02*
X162500Y111500D01*
X162000Y110000D02*
Y111000D01*
X161500Y109500D02*
X162000Y110000D01*
X161000Y109500D02*
X161500D01*
X160500Y110000D02*
X161000Y109500D01*
X160500Y110000D02*
Y111000D01*
X160000Y111500D02*
X160500Y111000D01*
X159500Y111500D02*
X160000D01*
X159000Y111000D02*
X159500Y111500D01*
X159000Y110000D02*
Y111000D01*
X158500Y109500D02*
X159000Y110000D01*
X158000Y109500D02*
X158500D01*
X157500Y110000D02*
X158000Y109500D01*
X157500Y110000D02*
Y111000D01*
X157000Y111500D02*
X157500Y111000D01*
X151500Y111500D02*
X157000D01*
X151000Y111000D02*
X151500Y111500D01*
X151000Y110000D02*
Y111000D01*
Y110000D02*
X151500Y109500D01*
X154000D01*
X155500Y108000D01*
X167500Y112500D02*
X169900Y110100D01*
X150500Y112500D02*
X167500D01*
X149500Y111500D02*
X150500Y112500D01*
X149500Y109500D02*
Y111500D01*
Y109500D02*
X150500Y108500D01*
X153500D01*
X154500Y107500D01*
X134941Y129921D02*
Y129941D01*
X132953Y135827D02*
X135000Y137874D01*
X126000Y117500D02*
X128500D01*
X125500Y117000D02*
X126000Y117500D01*
X125500Y116500D02*
Y117000D01*
Y116500D02*
X126000Y116000D01*
X126913D01*
X138937Y133937D02*
X141000Y131874D01*
Y121000D02*
Y131874D01*
X140000Y120000D02*
X141000Y121000D01*
X140000Y119500D02*
Y120000D01*
Y119500D02*
X140500Y119000D01*
X143000D01*
X143500Y118500D01*
Y118000D02*
Y118500D01*
X143000Y117500D02*
X143500Y118000D01*
X141500Y117500D02*
X143000D01*
X139324Y115324D02*
X141500Y117500D01*
X138937Y124764D02*
Y126063D01*
X134500Y116000D02*
X136000D01*
X132500Y114000D02*
X134500Y116000D01*
X131000Y114000D02*
X132500D01*
X130500Y114500D02*
X131000Y114000D01*
X130500Y114500D02*
Y115000D01*
X131000Y115500D01*
X133000D01*
X133500Y116000D01*
Y116500D01*
X133000Y117000D02*
X133500Y116500D01*
X131000Y117000D02*
X133000D01*
X130500Y117500D02*
X131000Y117000D01*
X130500Y117500D02*
Y118000D01*
X131000Y118500D01*
X133000D01*
X133500Y119000D01*
Y119500D01*
X133000Y120000D02*
X133500Y119500D01*
X130500Y120000D02*
X133000D01*
X130000Y119500D02*
X130500Y120000D01*
X142874Y130000D02*
X144500Y128374D01*
Y112000D02*
Y128374D01*
X144000Y111500D02*
X144500Y112000D01*
X143000Y111500D02*
X144000D01*
X142500Y112000D02*
X143000Y111500D01*
X142500Y112000D02*
Y116000D01*
X142000Y116500D02*
X142500Y116000D01*
X141500Y116500D02*
X142000D01*
X141000Y116000D02*
X141500Y116500D01*
X141000Y112000D02*
Y116000D01*
X140500Y111500D02*
X141000Y112000D01*
X140000Y111500D02*
X140500D01*
X139500Y112000D02*
X140000Y111500D01*
X139500Y112000D02*
Y114000D01*
X139000Y114500D02*
X139500Y114000D01*
X138500Y114500D02*
X139000D01*
X137953Y113953D02*
X138500Y114500D01*
X137953Y110295D02*
Y113953D01*
X137000Y122827D02*
X138937Y124764D01*
X137000Y117000D02*
Y122827D01*
X136000Y116000D02*
X137000Y117000D01*
X130000Y114000D02*
Y119500D01*
Y114000D02*
X131000Y113000D01*
Y111343D02*
Y113000D01*
Y111343D02*
X132047Y110295D01*
X133500Y114000D02*
X134824Y115324D01*
X133500Y110811D02*
Y114000D01*
Y110811D02*
X134016Y110295D01*
X134824Y115324D02*
X139324D01*
X166800Y107100D02*
Y110200D01*
X165500Y111500D02*
X166800Y110200D01*
X169900Y107100D02*
Y110100D01*
X45516Y104984D02*
X47059D01*
X163900Y97600D02*
X164000Y97500D01*
X160400Y97600D02*
X163900D01*
X147795Y94547D02*
X151453D01*
X155500Y101000D02*
Y108000D01*
X154500Y101500D02*
Y107500D01*
X153453Y100453D02*
X154500Y101500D01*
X152984Y98484D02*
X155500Y101000D01*
X147795Y98484D02*
X152984D01*
X164900Y94400D02*
X165000Y94500D01*
X160400Y94400D02*
X164900D01*
X147795Y100453D02*
X153453D01*
X156000Y75500D02*
X156100Y75600D01*
X160400D01*
X156000Y72500D02*
X156100Y72400D01*
X160400D01*
X156000Y69500D02*
X156200Y69300D01*
X160400D01*
X179400Y102600D02*
X179500Y102500D01*
X179400Y102600D02*
Y107100D01*
X176000Y102500D02*
X176200Y102700D01*
Y107100D01*
X173000Y102500D02*
X173100Y102600D01*
Y107100D01*
X166800Y62900D02*
Y67500D01*
X169900Y62900D02*
Y67500D01*
X173100Y62900D02*
Y67500D01*
X176200Y62900D02*
Y67500D01*
X134937Y129937D02*
X134941Y129941D01*
X133071Y124803D02*
Y132008D01*
X134937Y133874D01*
X130079Y110295D02*
Y112835D01*
X126913Y116000D02*
X130079Y112835D01*
X130315Y135827D02*
X132953D01*
X137008Y124803D02*
Y135945D01*
X138874Y137811D01*
X156700Y100700D02*
Y106700D01*
X147795Y96516D02*
X152516D01*
X156700Y100700D01*
X128500Y117500D02*
X129000Y118000D01*
Y134512D01*
X130315Y135827D01*
D46*
X176732Y136437D02*
X180937D01*
X110000Y62457D02*
X110043Y62500D01*
X114500D01*
X110000Y69543D02*
X110543Y69000D01*
X42000Y111000D02*
Y112000D01*
X42000Y112000D01*
X46000Y111000D02*
Y112000D01*
X46000Y112000D01*
Y114638D01*
X42000Y112000D02*
Y114638D01*
X60000Y66500D02*
X61500D01*
X62953Y65047D01*
Y62898D02*
Y65047D01*
X59016Y65516D02*
X60000Y66500D01*
X59016Y62898D02*
Y65516D01*
X44453Y62000D02*
X48000D01*
X44453Y69000D02*
X48000D01*
X44453Y76000D02*
X48000D01*
X31000Y76000D02*
X31000Y76000D01*
X27453Y76000D02*
X31000D01*
X27453Y69000D02*
X31000D01*
X27453Y62000D02*
X31000D01*
X197437Y136437D02*
X198000Y137000D01*
X193268Y136437D02*
X197437D01*
X212000Y128500D02*
X218890Y135390D01*
X212000Y127500D02*
Y128500D01*
X218890Y135390D02*
Y136653D01*
X212000Y127500D02*
X216921Y122579D01*
X221153D01*
X202847Y124547D02*
X209047D01*
X212000Y127500D01*
X202847Y130453D02*
X209047D01*
X212000Y127500D01*
X208900Y81900D02*
X209000Y82000D01*
X204600Y81900D02*
X208900D01*
X204600Y85000D02*
X209000D01*
X214484Y67862D02*
X219500D01*
X213500Y68846D02*
X214484Y67862D01*
X213047Y69300D02*
X213500Y68846D01*
X204600Y69300D02*
X213047D01*
X42500Y83500D02*
X44236Y85236D01*
X55233D01*
X40000Y85000D02*
X42205Y87205D01*
X55233D01*
X31618Y94882D02*
X36500Y90000D01*
X30500Y94882D02*
X31618D01*
X36500Y109500D02*
Y110000D01*
X32118Y105118D02*
X36500Y109500D01*
X30500Y105118D02*
X32118D01*
X110543Y69000D02*
X114500D01*
X116500Y110000D02*
X117000Y110500D01*
D47*
X147874Y92500D02*
X151000D01*
X148374Y103000D02*
X152500D01*
X147795Y102421D02*
X148374Y103000D01*
X112500Y75500D02*
Y83500D01*
Y75500D02*
X117000Y71000D01*
Y63000D02*
Y71000D01*
Y63000D02*
X118500Y61500D01*
X113500Y77000D02*
Y82500D01*
Y77000D02*
X118500Y72000D01*
Y64500D02*
Y72000D01*
Y64500D02*
X119500Y63500D01*
X241138Y138500D02*
X241638Y138000D01*
X236347Y138500D02*
X241138D01*
X239000Y131118D02*
Y135000D01*
X122205Y92579D02*
X122283Y92500D01*
X114500Y95500D02*
X115500D01*
X116000Y96000D01*
X117000Y93000D02*
X118547Y94547D01*
X117000Y88000D02*
Y93000D01*
X112500Y83500D02*
X117000Y88000D01*
X118547Y94547D02*
X122205D01*
X123500Y114500D02*
X125917D01*
X125984Y114567D01*
X120500Y111882D02*
Y112000D01*
X142953Y94547D02*
X143858D01*
X141534Y95967D02*
X142953Y94547D01*
X128000Y88752D02*
X128110Y88642D01*
X128000Y88752D02*
Y90000D01*
X128500Y90500D01*
Y92579D01*
X126142D02*
X128500D01*
X113500Y119000D02*
X113500Y119000D01*
Y122638D01*
X109500Y119000D02*
X109500Y119000D01*
Y122638D01*
X236347Y138500D02*
Y139000D01*
X220453Y110216D02*
X220500Y110264D01*
Y113000D01*
X225547Y107953D02*
X226500Y107000D01*
X222716Y107953D02*
X225547D01*
X225484Y105984D02*
X226500Y107000D01*
X222716Y105984D02*
X225484D01*
X225484Y104016D02*
X226500Y103000D01*
X222716Y104016D02*
X225484D01*
X225547Y102047D02*
X226500Y103000D01*
X222716Y102047D02*
X225547D01*
X208500Y108000D02*
X210516Y105984D01*
X212283D01*
X208500Y104000D02*
X210453Y102047D01*
X212283D01*
X174000Y122000D02*
X178217D01*
X174000Y115500D02*
X178016D01*
X187000Y112500D02*
Y115484D01*
X186634Y115850D02*
X187000Y115484D01*
X169000Y114000D02*
Y117638D01*
X157638Y115000D02*
X157638Y115000D01*
X154000Y115000D02*
X157638D01*
X160000Y118500D02*
Y122382D01*
X153000Y131500D02*
X154118Y132618D01*
X156260D01*
X162362Y118362D02*
X163740Y119740D01*
X162362Y116500D02*
Y118362D01*
X178016Y115500D02*
X178366Y115850D01*
X178217Y122000D02*
X178366Y122150D01*
X236000Y85000D02*
X237638D01*
X235000Y84000D02*
X236000Y85000D01*
X235000Y79734D02*
Y84000D01*
X209500Y62000D02*
X213347D01*
X222862Y63138D02*
X223000Y63000D01*
X219500Y63138D02*
X222862D01*
X213347Y62000D02*
X213500Y62154D01*
X250000Y61000D02*
Y65266D01*
X235000Y61000D02*
Y65266D01*
X267260Y120760D02*
X267500Y121000D01*
X263413Y120760D02*
X267260D01*
X263413Y124500D02*
X267500D01*
X250000Y138500D02*
X250000Y138500D01*
X246362Y138500D02*
X250000D01*
X248500Y128000D02*
X248740Y128240D01*
X252587D01*
X248500Y124500D02*
X252587D01*
X245882Y120882D02*
X246000Y121000D01*
X242740Y120882D02*
X245882D01*
X231500Y134500D02*
X231500Y134500D01*
Y131362D02*
Y134500D01*
X212283Y110216D02*
X214547D01*
X230000Y108500D02*
X231260Y107240D01*
Y104823D02*
Y107240D01*
X234000Y88500D02*
X235500Y90000D01*
X237638D01*
X234000Y91500D02*
X235000Y92500D01*
Y95177D01*
X245000Y99862D02*
X262362D01*
X208500Y108000D02*
X210000D01*
X210047Y107953D01*
X208500Y104000D02*
X210000D01*
X210016Y104016D01*
X204600Y100700D02*
X204800D01*
X205000Y100500D01*
X208500Y97500D02*
X209500D01*
X208400Y97600D02*
X208500Y97500D01*
Y94500D02*
X209500D01*
X208400Y94400D02*
X208500Y94500D01*
X208600Y91000D02*
X209500D01*
X208300Y91300D02*
X208600Y91000D01*
X209500Y88000D02*
Y88200D01*
X209000Y88700D02*
X209500Y88200D01*
X204400Y78500D02*
X209500D01*
X209400Y75600D02*
X209500Y75500D01*
X204600Y75600D02*
X209400D01*
X204700Y72500D02*
X209500D01*
X204600Y72400D02*
X204700Y72500D01*
X198000Y66500D02*
Y68000D01*
Y66500D02*
X198200Y66300D01*
X195000Y66500D02*
Y68000D01*
Y66500D02*
X195100Y66400D01*
X192000Y66500D02*
Y68000D01*
X191900Y66400D02*
X192000Y66500D01*
X188500D02*
Y68000D01*
Y66500D02*
X188800Y66200D01*
X185500Y66500D02*
Y68000D01*
X182500Y62900D02*
Y68000D01*
X185500Y66500D02*
X185600Y66400D01*
X179500Y66500D02*
Y68000D01*
X179400Y66400D02*
X179500Y66500D01*
X191900Y103600D02*
X192500Y103000D01*
X189000Y102000D02*
Y103500D01*
X182500Y102000D02*
Y107100D01*
X185500Y102000D02*
Y103500D01*
X185600Y103600D01*
X188800Y103700D02*
X189000Y103500D01*
X210047Y107953D02*
X212283D01*
X210016Y104016D02*
X212283D01*
X204600Y97600D02*
X208400D01*
X204600Y94400D02*
X208400D01*
X204600Y91300D02*
X208300D01*
X204600Y88100D02*
X208400D01*
X204400Y78500D02*
X204600Y78700D01*
X198200Y62900D02*
Y66300D01*
X195100Y62900D02*
Y66400D01*
X191900Y62900D02*
Y66400D01*
X188800Y62900D02*
Y66200D01*
X185600Y62900D02*
Y66400D01*
X179400Y62900D02*
Y66400D01*
X191900Y103600D02*
Y107100D01*
X188800Y103700D02*
Y107100D01*
X185600Y103600D02*
Y107100D01*
X166800Y91300D02*
X167000Y91500D01*
X160400Y91300D02*
X166800D01*
X162600Y81900D02*
X165500Y79000D01*
X160400Y81900D02*
X162600D01*
X94000Y99500D02*
X94484Y99016D01*
X99327D01*
X94000Y96500D02*
X94547Y97047D01*
X99327D01*
X88107Y124607D02*
X90000Y126500D01*
X88107Y122047D02*
Y124607D01*
X86138Y126139D02*
X86500Y126500D01*
X86138Y122047D02*
Y126139D01*
X76296Y126296D02*
X76500Y126500D01*
X76296Y122047D02*
Y126296D01*
X73500Y126500D02*
X74327Y125672D01*
Y122047D02*
Y125672D01*
X41154Y97347D02*
Y103016D01*
X41154Y101047D02*
X47846D01*
X47500Y97000D02*
X47846Y97347D01*
Y101047D01*
X41154Y97347D02*
X41500Y97000D01*
X46000Y119362D02*
Y123000D01*
X42000Y119362D02*
Y123000D01*
X32272Y129866D02*
X36260D01*
X31000Y131138D02*
X32272Y129866D01*
X36260Y138134D02*
X43740D01*
X33272D02*
X36260D01*
X31000Y135862D02*
X33272Y138134D01*
X46000Y119362D02*
X46000Y119362D01*
X42000Y119362D02*
X42000Y119362D01*
X53000Y118000D02*
X55233Y115767D01*
Y114764D02*
Y115767D01*
X50500Y115000D02*
X52705Y112795D01*
X55233D01*
X50500Y112000D02*
X51673Y110827D01*
X55233D01*
X58953Y102953D02*
X60000Y104000D01*
X55233Y102953D02*
X58953D01*
X59984Y100984D02*
X60000Y101000D01*
X55233Y100984D02*
X59984D01*
X102500Y69846D02*
Y73500D01*
Y59500D02*
Y63153D01*
X95000Y59500D02*
Y63153D01*
X88484Y59516D02*
X88500Y59500D01*
X88484Y59516D02*
Y62898D01*
X87500Y66500D02*
X89000D01*
X90453Y65047D01*
Y62898D02*
Y65047D01*
X86516Y65516D02*
X87500Y66500D01*
X86516Y62898D02*
Y65516D01*
X88484Y70102D02*
X88500Y70118D01*
Y73500D01*
X84547Y70102D02*
Y73047D01*
X85000Y73500D01*
X84170Y74330D02*
X85000Y73500D01*
X84170Y74330D02*
Y77953D01*
X82000Y73500D02*
X82201Y73702D01*
Y77953D01*
X80000Y68724D02*
Y71500D01*
X79000Y72500D02*
X80000Y71500D01*
X75000Y69846D02*
Y73500D01*
X74327Y74173D02*
X75000Y73500D01*
X74327Y74173D02*
Y77953D01*
X71500Y73500D02*
X72359Y74359D01*
Y77953D01*
X60984Y59516D02*
X61000Y59500D01*
X60984Y59516D02*
Y62898D01*
Y73484D02*
X61000Y73500D01*
X60984Y70102D02*
Y73484D01*
X21547Y76000D02*
X21547Y76000D01*
X18000Y76000D02*
X21547D01*
Y69000D02*
X21547Y69000D01*
X18000Y69000D02*
X21547D01*
X18000Y62000D02*
X21547D01*
X35000D02*
X38547D01*
X35000Y76000D02*
X38547D01*
X35000Y69000D02*
X38547D01*
X55233Y97047D02*
X64500D01*
X211500Y140500D02*
X212984Y139016D01*
X199000Y133500D02*
X199220D01*
X200110Y134390D01*
X199000Y131500D02*
X199158D01*
X200079Y132421D01*
X201000Y137000D02*
X203000D01*
X203346Y136653D01*
X212984D02*
Y139016D01*
X203346Y136653D02*
X205110D01*
X223390Y134390D02*
X224500Y135500D01*
X221153Y134390D02*
X223390D01*
X219236Y118000D02*
X221500D01*
X218890Y118347D02*
X219236Y118000D01*
X221500D02*
Y120264D01*
X221153Y120610D02*
X221500Y120264D01*
X212984Y115016D02*
X213000Y115000D01*
X212984Y115016D02*
Y118347D01*
X203000Y118500D02*
X203153Y118347D01*
X205110D01*
X202831Y128500D02*
X202847Y128484D01*
X200000Y128500D02*
X202831D01*
X199484Y126516D02*
X202847D01*
X197500Y128500D02*
X199484Y126516D01*
X197500Y128500D02*
Y131000D01*
X196000Y132500D02*
X197500Y131000D01*
X193268Y132500D02*
X196000D01*
X207000Y114000D02*
X209047Y116047D01*
X204000Y114000D02*
X207000D01*
X198000Y120000D02*
X204000Y114000D01*
X209047Y116047D02*
Y118347D01*
X198000Y120000D02*
Y126500D01*
X263413Y128240D02*
Y131587D01*
X261347Y133653D02*
X263413Y131587D01*
X261347Y133653D02*
Y136500D01*
X254654Y133846D02*
Y136500D01*
Y133846D02*
X257000Y131500D01*
Y122500D02*
Y131500D01*
X255260Y120760D02*
X257000Y122500D01*
X252587Y120760D02*
X255260D01*
X164000Y132878D02*
Y136500D01*
X163740Y132618D02*
X164000Y132878D01*
X168980Y122382D02*
X169000Y122362D01*
X163740Y122382D02*
X168980D01*
X163740Y119740D02*
Y122382D01*
X156260D02*
Y126260D01*
X157500Y127500D01*
X160500D01*
X163740Y130740D01*
Y132618D01*
X232500Y109500D02*
X232500Y109500D01*
X235138D01*
X247500Y95138D02*
X250000D01*
X245000D02*
X247500D01*
Y89862D02*
Y95138D01*
X262362Y99862D02*
X262500Y100000D01*
X242362Y85000D02*
Y91555D01*
X250000Y79734D02*
Y82638D01*
X247500Y85138D02*
X250000Y82638D01*
X247362Y85000D02*
X247500Y85138D01*
X242362Y85000D02*
X247362D01*
X238740Y95177D02*
X242362Y91555D01*
X238740Y101240D02*
Y104823D01*
X231260Y95177D02*
Y97760D01*
Y89760D02*
Y95177D01*
X229000Y87500D02*
X231260Y89760D01*
X224862Y87500D02*
X229000D01*
X217500Y87638D02*
Y94500D01*
Y87638D02*
X220000D01*
X215000D02*
X217500D01*
X220000D02*
X220138Y87500D01*
X216516Y95484D02*
X217500Y94500D01*
X216516Y95484D02*
Y99783D01*
X215000Y92362D02*
Y95000D01*
X214547Y95453D02*
X215000Y95000D01*
X214547Y95453D02*
Y99783D01*
X239724Y109638D02*
X239862Y109500D01*
X239724Y109638D02*
Y114500D01*
X235000D02*
X235260Y114760D01*
Y120882D01*
Y137913D02*
X236347Y139000D01*
X226500D02*
X229654D01*
X200079Y132421D02*
X202847D01*
X200110Y134390D02*
X202847D01*
X196968Y134468D02*
X197000Y134500D01*
X193268Y134468D02*
X196968D01*
X199500Y120500D02*
X199610Y120610D01*
X202847D01*
X199579Y122579D02*
X202847D01*
X199500Y122500D02*
X199579Y122579D01*
X216921Y139421D02*
X217000Y139500D01*
X216921Y136653D02*
Y139421D01*
X214953Y139453D02*
X215000Y139500D01*
X214953Y136653D02*
Y139453D01*
X218484Y110216D02*
Y114016D01*
X216921Y115579D02*
X218484Y114016D01*
X216921Y115579D02*
Y118347D01*
X216516Y110216D02*
Y113984D01*
X214953Y115547D02*
X216516Y113984D01*
X214953Y115547D02*
Y118347D01*
X221153Y132421D02*
X223500D01*
X193268Y128563D02*
X195937D01*
X198000Y126500D01*
X189469Y130532D02*
X193268D01*
X188500Y131500D02*
X189469Y130532D01*
X188500Y131500D02*
Y138000D01*
X190500Y140000D01*
X208000D01*
X209047Y138953D01*
Y136653D02*
Y138953D01*
X226000Y122000D02*
X226500D01*
X223453Y124547D02*
X226000Y122000D01*
X221153Y124547D02*
X223453D01*
X78264Y110500D02*
Y122047D01*
X91500Y103000D02*
Y104500D01*
X95858Y108858D01*
X97047Y102953D02*
X99327D01*
X95000Y105000D02*
X97047Y102953D01*
X94000Y105000D02*
X95000D01*
X96000Y94500D02*
X96579Y95079D01*
X91000Y94500D02*
X96000D01*
X86500Y99000D02*
X91000Y94500D01*
X96579Y95079D02*
X99327D01*
X94744Y70102D02*
X95000Y69846D01*
X90453Y70102D02*
X94744D01*
X82602Y62898D02*
X84547D01*
X81500Y64000D02*
X82602Y62898D01*
X80000Y64000D02*
X81500D01*
X67244Y70102D02*
X67500Y69846D01*
X62953Y70102D02*
X67244D01*
X52500Y64138D02*
X54362D01*
X55602Y62898D01*
X57047D01*
X119500Y63500D02*
X121000D01*
X131461Y64000D02*
X134961Y67500D01*
X130000Y64000D02*
X131461D01*
X127500Y61500D02*
X130000Y64000D01*
X115500Y79000D02*
Y82500D01*
X121642Y88642D01*
X113500Y82500D02*
X121610Y90610D01*
X117500Y76500D02*
Y83000D01*
X121000Y75500D02*
Y80000D01*
X113500Y127362D02*
X113500Y127362D01*
X113500Y127362D02*
Y130000D01*
X109500Y127362D02*
X109500Y127362D01*
X109500Y127362D02*
Y130000D01*
X225500Y131500D02*
X228000D01*
X224453Y130453D02*
X225500Y131500D01*
X225016Y128484D02*
X226000Y127500D01*
X225500Y125000D02*
X228000D01*
X58000Y120500D02*
X60000Y118500D01*
Y109500D02*
Y118500D01*
Y109500D02*
X68000Y101500D01*
X58000Y120500D02*
Y123000D01*
X39650Y107150D02*
X41941D01*
X39000Y106500D02*
X39650Y107150D01*
X39000Y102500D02*
Y106500D01*
X36500Y100000D02*
X39000Y102500D01*
X30500Y100000D02*
X36500D01*
X34059Y102559D02*
X36500Y105000D01*
X30500Y102559D02*
X34059D01*
X36500Y95000D02*
X48500D01*
X35500D02*
X36500D01*
X33059Y97441D02*
X35500Y95000D01*
X30500Y97441D02*
X33059D01*
X48500Y95000D02*
X50016Y96516D01*
Y103016D01*
X51921Y104921D02*
X55233D01*
X50016Y103016D02*
X51921Y104921D01*
X47846Y103016D02*
X50016D01*
X51858Y108858D02*
X55233D01*
X50500Y107500D02*
X51858Y108858D01*
X50500Y106000D02*
Y107500D01*
X49484Y104984D02*
X50500Y106000D01*
X47059Y104984D02*
X49484D01*
X61516Y99016D02*
X62000Y99500D01*
X84170Y122047D02*
Y124330D01*
X82000Y126500D02*
X84170Y124330D01*
X55233Y99016D02*
X61516D01*
X75000Y94500D02*
Y95500D01*
X66453Y85953D02*
X75000Y94500D01*
X59500Y93000D02*
X63500D01*
X59390Y93110D02*
X59500Y93000D01*
Y95000D02*
X61500D01*
X59421Y95079D02*
X59500Y95000D01*
X68000Y92000D02*
Y101500D01*
X62516Y86516D02*
X68000Y92000D01*
X66453Y77953D02*
Y85953D01*
X55233Y93110D02*
X59390D01*
X90075Y117924D02*
X90500Y117500D01*
X90075Y117924D02*
Y122047D01*
X85000Y117000D02*
X86500Y115500D01*
Y99000D02*
Y115500D01*
X81500Y117000D02*
X85000D01*
X68422Y109578D02*
X68500Y109500D01*
X68422Y109578D02*
Y122047D01*
X78264Y81765D02*
X78500Y82000D01*
X78264Y77953D02*
Y81765D01*
X85500Y91000D02*
X87000D01*
X88827Y89173D01*
X82500Y84500D02*
X84000Y86000D01*
X80500Y84500D02*
X83205Y87205D01*
X99327D01*
X82500Y83000D02*
Y84500D01*
X80233Y80733D02*
X82500Y83000D01*
X80233Y77953D02*
Y80733D01*
X90075Y77953D02*
Y84425D01*
X89000Y85500D02*
X90075Y84425D01*
X86000Y85500D02*
X89000D01*
X84000Y83500D02*
X86000Y85500D01*
X88500Y82286D02*
Y83500D01*
X88107Y81893D02*
X88500Y82286D01*
X92000Y85236D02*
X99327D01*
X55233Y95079D02*
X59421D01*
X61358Y91142D02*
X61500Y91000D01*
X55233Y91142D02*
X61358D01*
X62516Y77953D02*
Y86516D01*
X68422Y85922D02*
X70500Y88000D01*
X68422Y77953D02*
Y85922D01*
X70390Y77953D02*
Y85391D01*
X70500Y85500D01*
X76296Y77953D02*
X76500Y78157D01*
Y84500D01*
X86138Y77953D02*
Y83639D01*
X88107Y77953D02*
Y81893D01*
X91500Y82000D02*
X92044Y81456D01*
Y77953D02*
Y81456D01*
X88827Y89173D02*
X99327D01*
X95858Y108858D02*
X99327D01*
X95327Y110827D02*
X99327D01*
X93000Y108500D02*
X95327Y110827D01*
X89890Y93110D02*
X99327D01*
X84500Y98500D02*
X89890Y93110D01*
X84500Y98500D02*
Y115500D01*
X72359Y117141D02*
X72500Y117000D01*
X72359Y117141D02*
Y122047D01*
X118500Y61500D02*
X127500D01*
X123500Y73000D02*
X128000D01*
X121000Y75500D02*
X123500Y73000D01*
X128000D02*
X130039Y70961D01*
X130000Y73500D02*
X138000D01*
X126000Y77500D02*
X130000Y73500D01*
X126000Y77500D02*
Y80000D01*
X130039Y67500D02*
Y70961D01*
X139882Y67500D02*
Y71618D01*
X138000Y73500D02*
X139882Y71618D01*
X104000Y107000D02*
X105000D01*
X103500D02*
X104000D01*
X99500D02*
X103500D01*
X105000D02*
X107000Y105000D01*
X112000D01*
X115327Y108327D01*
X120390Y104390D02*
X122205D01*
X116000Y100000D02*
X120390Y104390D01*
X116000Y96000D02*
Y100000D01*
X121610Y90610D02*
X122205D01*
X121642Y88642D02*
X122205D01*
X121173Y86673D02*
X122205D01*
X117500Y83000D02*
X121173Y86673D01*
X223984Y126516D02*
X225500Y125000D01*
X221153Y126516D02*
X223984D01*
X221153Y130453D02*
X224453D01*
X221153Y128484D02*
X225016D01*
X169000Y135500D02*
X172500D01*
X173531Y134468D02*
X176732D01*
X172500Y135500D02*
X173531Y134468D01*
X172000Y133000D02*
X172500Y132500D01*
X176732D01*
X169032Y130532D02*
X176732D01*
X169000Y130500D02*
X169032Y130532D01*
X172063Y128563D02*
X176732D01*
X172000Y128500D02*
X172063Y128563D01*
X135984Y78484D02*
Y84705D01*
X135000Y77500D02*
X135984Y78484D01*
X134000Y77500D02*
X135000D01*
X137953Y77953D02*
Y84705D01*
X135500Y75500D02*
X137953Y77953D01*
X134000Y75500D02*
X135500D01*
X130079Y81079D02*
Y84705D01*
X129000Y80000D02*
X130079Y81079D01*
X128000Y80000D02*
X129000D01*
X132047Y81047D02*
Y84705D01*
X129000Y78000D02*
X132047Y81047D01*
X128000Y78000D02*
X129000D01*
X128000Y100500D02*
Y102000D01*
X127579Y102421D02*
X128000Y102000D01*
X126142Y102421D02*
X127579D01*
X119500Y82000D02*
X122205Y84705D01*
X120500Y96000D02*
X121016Y96516D01*
X122205D01*
X147795Y92579D02*
X147874Y92500D01*
X138874Y118213D02*
X138976Y118110D01*
X138874Y118213D02*
Y122063D01*
X134937Y118213D02*
X135039Y118110D01*
X134937Y118213D02*
Y122063D01*
X134016Y80000D02*
Y84705D01*
X147795Y112362D02*
X148819Y113386D01*
X147795Y110295D02*
Y112362D01*
X122146Y110236D02*
X122205Y110295D01*
X125984Y114567D02*
X128110Y112441D01*
Y110295D02*
Y112441D01*
X118110Y98484D02*
X122205D01*
X141890Y81653D02*
X141890Y81653D01*
Y84705D01*
X147795Y81653D02*
Y84705D01*
X145827Y81653D02*
Y84705D01*
X192500Y102000D02*
Y103000D01*
X208400Y88100D02*
X209000Y88700D01*
X205000Y100500D02*
Y104000D01*
X220453Y99783D02*
X222217D01*
X224862Y97138D01*
Y92500D02*
Y97138D01*
X220000Y92500D02*
Y94954D01*
X218484Y96470D02*
X220000Y94954D01*
X218484Y96470D02*
Y99783D01*
X231260Y97760D02*
X232000Y98500D01*
X236000D01*
X238740Y101240D01*
X231500Y126638D02*
X232638Y125500D01*
X233500D01*
X235260Y123740D01*
Y120882D02*
Y123740D01*
Y131118D02*
Y132260D01*
X237000Y134000D01*
Y137847D01*
X236347Y138500D02*
X237000Y137847D01*
X117500Y76500D02*
X121000Y73000D01*
Y69000D02*
Y73000D01*
X211500Y111000D02*
X212283Y110216D01*
X242740Y128286D02*
Y131118D01*
X239000Y115224D02*
X239724Y114500D01*
X239000Y115224D02*
Y124546D01*
X242740Y128286D01*
X141890Y81653D02*
X147795D01*
X119500Y92500D02*
X122283D01*
X120500Y111882D02*
X122146Y110236D01*
X115327Y108327D02*
X122205D01*
X27638Y135862D02*
X31000D01*
X27500Y136000D02*
X27638Y135862D01*
X27638Y131138D02*
X31000D01*
X27500Y131000D02*
X27638Y131138D01*
D48*
X135500Y113500D02*
X135984Y113016D01*
Y110295D02*
Y113016D01*
X137000Y103500D02*
X139032D01*
X141890Y106358D01*
X198200Y107100D02*
Y117300D01*
X194138Y121362D02*
X198200Y117300D01*
X192500Y121362D02*
X194138D01*
X75000Y59500D02*
Y63153D01*
X67500Y59500D02*
Y63153D01*
X57000Y70150D02*
X57047Y70102D01*
X57000Y70150D02*
Y73500D01*
X52500Y72500D02*
X52500Y72500D01*
X52500Y68862D02*
Y72500D01*
X187421Y121362D02*
X192500D01*
X186634Y122150D02*
X187421Y121362D01*
X182500Y120000D02*
Y122150D01*
Y120000D02*
X183500Y119000D01*
X190138D01*
X192500Y116638D01*
X195100Y114038D01*
Y107100D02*
Y114000D01*
X91000Y101500D02*
X95500D01*
X89984Y102516D02*
X91000Y101500D01*
X89984Y102516D02*
Y110984D01*
X95500Y101500D02*
X96016Y100984D01*
X99327D01*
X89984Y110984D02*
X94500Y115500D01*
X62500Y116000D02*
X62516Y116016D01*
Y122047D01*
X55000Y120000D02*
X59000Y116000D01*
Y108500D02*
Y116000D01*
Y108500D02*
X66500Y101000D01*
X64485Y122047D02*
Y125515D01*
X64000Y126000D02*
X64485Y125515D01*
X47606Y126000D02*
X64000D01*
X43740Y129866D02*
X47606Y126000D01*
X55000Y120000D02*
Y123000D01*
X94500Y115500D02*
Y126000D01*
X92000Y128500D02*
X94500Y126000D01*
X84000Y128500D02*
X92000D01*
X80000Y132500D02*
X84000Y128500D01*
X66500Y92500D02*
Y101000D01*
X63173Y89173D02*
X66500Y92500D01*
X55233Y89173D02*
X63173D01*
X66500Y107500D02*
X69500Y104500D01*
Y91500D02*
Y104500D01*
X64485Y86485D02*
X69500Y91500D01*
X99685Y132500D02*
X103000Y129185D01*
Y114000D02*
Y129185D01*
X101795Y112795D02*
X103000Y114000D01*
X99327Y112795D02*
X101795D01*
X99327Y114764D02*
Y123672D01*
X94764Y128236D02*
X99327Y123672D01*
X94764Y128236D02*
Y132500D01*
X64500Y113000D02*
Y117000D01*
X66453Y118954D01*
Y122047D01*
X66500Y107500D02*
Y116000D01*
X94500Y91500D02*
X96000D01*
X96358Y91142D01*
X64485Y77953D02*
Y86485D01*
X96358Y91142D02*
X99327D01*
X104500Y103000D02*
X105000Y103500D01*
X104500Y95500D02*
Y103000D01*
Y95500D02*
X110000Y90000D01*
D49*
Y110000D02*
X115000Y115000D01*
D50*
X725945Y203784D02*
X732609D01*
X729277D01*
Y193787D01*
X737608D02*
X740940D01*
X742606Y195454D01*
Y198786D01*
X740940Y200452D01*
X737608D01*
X735942Y198786D01*
Y195454D01*
X737608Y193787D01*
X745938Y190455D02*
Y200452D01*
X750937D01*
X752603Y198786D01*
Y195454D01*
X750937Y193787D01*
X745938D01*
X765932Y203784D02*
Y193787D01*
X772597D01*
X777595Y200452D02*
X780927D01*
X782593Y198786D01*
Y193787D01*
X777595D01*
X775929Y195454D01*
X777595Y197120D01*
X782593D01*
X785925Y200452D02*
Y195454D01*
X787592Y193787D01*
X792590D01*
Y192121D01*
X790924Y190455D01*
X789258D01*
X792590Y193787D02*
Y200452D01*
X800921Y193787D02*
X797588D01*
X795922Y195454D01*
Y198786D01*
X797588Y200452D01*
X800921D01*
X802587Y198786D01*
Y197120D01*
X795922D01*
X805919Y200452D02*
Y193787D01*
Y197120D01*
X807585Y198786D01*
X809251Y200452D01*
X810917D01*
D51*
X55158Y132500D02*
D03*
X80000D02*
D03*
X144803Y67500D02*
D03*
D52*
X60079Y132500D02*
D03*
X65000D02*
D03*
X89842D02*
D03*
X94764D02*
D03*
X84921D02*
D03*
X99685D02*
D03*
X134961Y67500D02*
D03*
X130039D02*
D03*
X139882D02*
D03*
X125118D02*
D03*
D53*
X181000Y136500D02*
D03*
X117000Y106000D02*
D03*
X151000Y92500D02*
D03*
X152500Y103000D02*
D03*
X114500Y62500D02*
D03*
X239000Y135000D02*
D03*
X114500Y95500D02*
D03*
X119500Y92500D02*
D03*
X137500D02*
D03*
X133500D02*
D03*
X123500Y114500D02*
D03*
X120500Y112000D02*
D03*
X141000Y96500D02*
D03*
X130500Y103000D02*
D03*
Y100000D02*
D03*
X128500Y92500D02*
D03*
X135500Y113500D02*
D03*
X136976Y103610D02*
D03*
X226500Y103000D02*
D03*
Y107000D02*
D03*
X174000Y122000D02*
D03*
Y115500D02*
D03*
X187000Y112500D02*
D03*
X153000Y131500D02*
D03*
X160000Y118500D02*
D03*
X154000Y115000D02*
D03*
X169000Y114000D02*
D03*
X209500Y62000D02*
D03*
X223000Y63000D02*
D03*
X250000Y61000D02*
D03*
X235000D02*
D03*
X234000Y91500D02*
D03*
Y88500D02*
D03*
X230000Y108500D02*
D03*
X267500Y121000D02*
D03*
Y124500D02*
D03*
X248500D02*
D03*
Y128000D02*
D03*
X246000Y121000D02*
D03*
X250000Y138500D02*
D03*
X231500Y134500D02*
D03*
X208500Y108000D02*
D03*
Y104000D02*
D03*
X205000D02*
D03*
X209500Y97500D02*
D03*
Y94500D02*
D03*
Y91000D02*
D03*
Y88000D02*
D03*
Y78500D02*
D03*
Y75500D02*
D03*
Y72500D02*
D03*
X198000Y68000D02*
D03*
X195000D02*
D03*
X192000D02*
D03*
X188500D02*
D03*
X185500D02*
D03*
X182500D02*
D03*
X179500D02*
D03*
X189000Y102000D02*
D03*
X182500D02*
D03*
X185500D02*
D03*
X41500Y97000D02*
D03*
X42000Y111000D02*
D03*
X46000D02*
D03*
Y123000D02*
D03*
X42000D02*
D03*
X27500Y136000D02*
D03*
Y131000D02*
D03*
X48000Y62000D02*
D03*
Y69000D02*
D03*
Y76000D02*
D03*
X31000D02*
D03*
Y62000D02*
D03*
Y69000D02*
D03*
X35000Y76000D02*
D03*
Y69000D02*
D03*
Y62000D02*
D03*
X18000D02*
D03*
Y69000D02*
D03*
Y76000D02*
D03*
X113500Y119000D02*
D03*
X109500D02*
D03*
X267500Y114000D02*
D03*
X261500D02*
D03*
X255000D02*
D03*
X262000Y86000D02*
D03*
X268000D02*
D03*
X254500D02*
D03*
X165500Y79000D02*
D03*
X167000Y91500D02*
D03*
X217000Y122500D02*
D03*
X207000D02*
D03*
Y132500D02*
D03*
X217000D02*
D03*
X211500Y140500D02*
D03*
X198000Y137000D02*
D03*
X201000D02*
D03*
X213000Y115000D02*
D03*
X203000Y118500D02*
D03*
X224500Y135500D02*
D03*
X212000Y127500D02*
D03*
X221500Y118000D02*
D03*
X94000Y99500D02*
D03*
Y96500D02*
D03*
X60000Y101000D02*
D03*
X71500Y73500D02*
D03*
X82000D02*
D03*
X52500Y72500D02*
D03*
X102500Y59500D02*
D03*
Y73500D02*
D03*
X95000Y59500D02*
D03*
X67500D02*
D03*
X61000D02*
D03*
X75000D02*
D03*
Y73500D02*
D03*
X79000Y72500D02*
D03*
X88500Y59500D02*
D03*
Y73500D02*
D03*
X85000D02*
D03*
X61000D02*
D03*
X57000D02*
D03*
X87500Y66500D02*
D03*
X60000D02*
D03*
X153500Y62000D02*
D03*
X131500D02*
D03*
X121000Y63500D02*
D03*
X115500Y79000D02*
D03*
X123500Y79500D02*
D03*
X228000Y131500D02*
D03*
X226000Y127500D02*
D03*
X228000Y125000D02*
D03*
X226500Y122000D02*
D03*
X42500Y83500D02*
D03*
X40000Y85000D02*
D03*
X62500Y116000D02*
D03*
X58000Y123000D02*
D03*
X55000D02*
D03*
X31500Y114500D02*
D03*
X28500D02*
D03*
X31500Y110000D02*
D03*
X28500D02*
D03*
X31500Y90000D02*
D03*
X28500D02*
D03*
X31500Y85500D02*
D03*
X28500D02*
D03*
X22000Y83000D02*
D03*
X18000D02*
D03*
X22000Y86500D02*
D03*
X18000D02*
D03*
X22000Y116500D02*
D03*
Y113000D02*
D03*
X18000D02*
D03*
Y116500D02*
D03*
X47500Y97000D02*
D03*
X60000Y104000D02*
D03*
X53000Y118000D02*
D03*
X50500Y115000D02*
D03*
Y112000D02*
D03*
X90000Y126500D02*
D03*
X86500D02*
D03*
X82000D02*
D03*
X76500D02*
D03*
X73500D02*
D03*
X75000Y95500D02*
D03*
X64500Y97000D02*
D03*
X63500Y93000D02*
D03*
X147516Y75000D02*
D03*
X146500Y132500D02*
D03*
X148500Y135500D02*
D03*
X172000Y128500D02*
D03*
X169000Y130500D02*
D03*
X172000Y133000D02*
D03*
X169000Y135500D02*
D03*
X119500Y82000D02*
D03*
X134016Y80000D02*
D03*
X146457Y129134D02*
D03*
X138976Y118110D02*
D03*
X135039D02*
D03*
X145827Y81653D02*
D03*
X148819Y113386D02*
D03*
X118110Y98484D02*
D03*
X192500Y102000D02*
D03*
X197000Y91000D02*
D03*
X212500Y96000D02*
D03*
X79000Y87500D02*
D03*
X122500Y127500D02*
D03*
X124000Y132000D02*
D03*
X153000Y118500D02*
D03*
X221500Y96000D02*
D03*
X228500Y90500D02*
D03*
X234154Y100500D02*
D03*
X240846D02*
D03*
X234500Y106000D02*
D03*
X244000D02*
D03*
X243000Y111000D02*
D03*
X232500Y117500D02*
D03*
X232000Y121500D02*
D03*
X236000Y127000D02*
D03*
X235000Y135200D02*
D03*
X103500Y138000D02*
D03*
X101000D02*
D03*
X98500D02*
D03*
X96000D02*
D03*
X93500D02*
D03*
X91000D02*
D03*
X241500Y95500D02*
D03*
X114500Y69000D02*
D03*
X121000D02*
D03*
X211500Y111000D02*
D03*
X259000Y130000D02*
D03*
X207862Y111138D02*
D03*
X230000Y113000D02*
D03*
X220500Y139500D02*
D03*
X228500Y135300D02*
D03*
X244000Y127000D02*
D03*
X241000Y121000D02*
D03*
X141500Y80000D02*
D03*
X130000Y96500D02*
D03*
X152500Y106000D02*
D03*
X117000Y110500D02*
D03*
X147000Y118500D02*
D03*
X110000Y100000D02*
D03*
D54*
X156500Y85000D02*
D03*
X143858Y104390D02*
D03*
X131000Y122063D02*
D03*
X220500Y113000D02*
D03*
X199000Y133500D02*
D03*
Y131500D02*
D03*
X200000Y128500D02*
D03*
X209000Y85000D02*
D03*
Y82000D02*
D03*
X164000Y136500D02*
D03*
X232500Y109500D02*
D03*
X197000Y134500D02*
D03*
X226500Y139000D02*
D03*
X217000Y139500D02*
D03*
X215000D02*
D03*
X199500Y120500D02*
D03*
Y122500D02*
D03*
X223500Y132421D02*
D03*
X91500Y103000D02*
D03*
X121000Y80000D02*
D03*
X109500Y130000D02*
D03*
X113500D02*
D03*
X53000Y107000D02*
D03*
X40500Y105000D02*
D03*
X48500Y107000D02*
D03*
X62000Y99500D02*
D03*
X61500Y95000D02*
D03*
X78500Y110500D02*
D03*
X64500Y113000D02*
D03*
X66500Y116000D02*
D03*
X94500Y91500D02*
D03*
X78500Y82000D02*
D03*
X85500Y91000D02*
D03*
X84000Y86000D02*
D03*
X86138Y83639D02*
D03*
X88500Y83500D02*
D03*
X92000Y85236D02*
D03*
X68500Y109500D02*
D03*
X81500Y117000D02*
D03*
X84500Y115500D02*
D03*
X94000Y105000D02*
D03*
X91500Y82000D02*
D03*
X76500Y84500D02*
D03*
X90500Y117500D02*
D03*
X72500Y117000D02*
D03*
X61500Y91000D02*
D03*
X70500Y85500D02*
D03*
Y88000D02*
D03*
X80500Y84500D02*
D03*
X84000Y83500D02*
D03*
X93000Y108500D02*
D03*
X105000Y103500D02*
D03*
X120500Y96000D02*
D03*
X147795Y108327D02*
D03*
X134000Y75500D02*
D03*
Y77500D02*
D03*
X128000Y78000D02*
D03*
Y80000D02*
D03*
Y100500D02*
D03*
X126000Y80000D02*
D03*
X164000Y97500D02*
D03*
X156000Y69500D02*
D03*
Y72500D02*
D03*
Y75500D02*
D03*
X165000Y94500D02*
D03*
X179500Y102500D02*
D03*
X176000D02*
D03*
X173000D02*
D03*
X166800Y67500D02*
D03*
X169900D02*
D03*
X173100D02*
D03*
X176200D02*
D03*
X134941Y129921D02*
D03*
X141890Y86673D02*
D03*
X139921D02*
D03*
X137953D02*
D03*
Y88642D02*
D03*
X135984D02*
D03*
X132047Y86673D02*
D03*
X130079D02*
D03*
X132047Y88642D02*
D03*
X130079D02*
D03*
X134016Y86673D02*
D03*
X128110D02*
D03*
X124173Y88642D02*
D03*
Y90610D02*
D03*
Y94547D02*
D03*
Y96516D02*
D03*
Y98484D02*
D03*
X126142D02*
D03*
Y100453D02*
D03*
X124173D02*
D03*
Y102421D02*
D03*
Y104390D02*
D03*
X126142Y106358D02*
D03*
X124173Y106358D02*
D03*
X142811Y137811D02*
D03*
X142811Y133874D02*
D03*
X131000Y129937D02*
D03*
Y133874D02*
D03*
X133071Y124803D02*
D03*
X137008D02*
D03*
X145827Y88642D02*
D03*
X143858Y100453D02*
D03*
Y98484D02*
D03*
X143858Y92579D02*
D03*
Y90610D02*
D03*
X145827D02*
D03*
Y92579D02*
D03*
Y94547D02*
D03*
Y96516D02*
D03*
Y100453D02*
D03*
Y102421D02*
D03*
X147795Y104390D02*
D03*
X145827D02*
D03*
Y106358D02*
D03*
X147795D02*
D03*
X135984Y108327D02*
D03*
X141890D02*
D03*
Y106358D02*
D03*
X138874Y129937D02*
D03*
X139921Y110295D02*
D03*
X142811Y122063D02*
D03*
Y126000D02*
D03*
X131000D02*
D03*
X131063Y137874D02*
D03*
X139921Y106358D02*
D03*
X137953Y108327D02*
D03*
X134016D02*
D03*
X132047D02*
D03*
X130079D02*
D03*
X220000Y92500D02*
D03*
X127063Y129937D02*
D03*
X135984Y106358D02*
D03*
X134016Y106358D02*
D03*
X137953Y106358D02*
D03*
X139921Y108327D02*
D03*
X143858Y102421D02*
D03*
X122205Y106358D02*
D03*
X130079D02*
D03*
X128110Y108327D02*
D03*
X115000Y115000D02*
D03*
X127063Y133874D02*
D03*
X241500Y91000D02*
D03*
X243500Y89000D02*
D03*
X238740Y95177D02*
D03*
D55*
X36500Y90000D02*
D03*
Y95000D02*
D03*
Y110000D02*
D03*
Y105000D02*
D03*
Y100000D02*
D03*
M02*
