M48
;Layer_Color=9474304
;FILE_FORMAT=2:5
INCH,LZ
;TYPE=PLATED
T1F00S00C0.00600
%
T01
X00405Y0105
X00485Y0107
X0053
X00615Y0091
X00705Y0088
Y00855
X00765Y00845
X00805
X0084Y00835
X0086138Y0083639
X00945Y00915
X0093Y01085
X00905Y01175
X00725Y0117
X00785Y01105
X0105Y01035
X0124173Y0100453
Y0098484
Y0096516
Y0094547
Y009061
Y0088642
X0130079Y0086673
X0132047
X0137953
X0139921
X0143858Y0092579
X0143858Y0098484
X0145827Y0100453
Y0102421
X0147795Y010439
Y0106358
X0145827
X0147795Y0108327
X014189
X0137953
X0135984
X0134016
X0130079Y0106358
X0126142
X01205Y0096
X0121Y008
X0126
X0131Y0126
X0164Y01365
X01668Y00675
X01699
X01731
X01762
X022Y00925
X023874Y0095177
X02415Y0091
X02435Y0089
X02325Y01095
X01995Y01205
Y01225
X0215Y01395
X0217
M30
