G04 Layer_Color=8421504*
%FSLAX25Y25*%
%MOIN*%
G70*
G01*
G75*
%ADD10C,0.02165*%
%ADD11R,0.16535X0.05315*%
%ADD12R,0.14173X0.05000*%
%ADD13C,0.01181*%
%ADD14O,0.00984X0.04724*%
%ADD15O,0.04724X0.00984*%
%ADD16R,0.02362X0.04331*%
%ADD17R,0.03937X0.02362*%
%ADD18R,0.12992X0.12992*%
%ADD19O,0.00984X0.03347*%
%ADD20O,0.03347X0.00984*%
%ADD21R,0.04724X0.01181*%
%ADD22R,0.05118X0.05118*%
%ADD23R,0.02165X0.03347*%
%ADD24R,0.03543X0.03937*%
%ADD25R,0.03150X0.02756*%
%ADD26R,0.02756X0.03150*%
%ADD27R,0.03937X0.03543*%
%ADD28R,0.05512X0.04724*%
G04:AMPARAMS|DCode=29|XSize=29.53mil|YSize=33.47mil|CornerRadius=2.21mil|HoleSize=0mil|Usage=FLASHONLY|Rotation=0.000|XOffset=0mil|YOffset=0mil|HoleType=Round|Shape=RoundedRectangle|*
%AMROUNDEDRECTD29*
21,1,0.02953,0.02904,0,0,0.0*
21,1,0.02510,0.03347,0,0,0.0*
1,1,0.00443,0.01255,-0.01452*
1,1,0.00443,-0.01255,-0.01452*
1,1,0.00443,-0.01255,0.01452*
1,1,0.00443,0.01255,0.01452*
%
%ADD29ROUNDEDRECTD29*%
%ADD30R,0.06299X0.08268*%
%ADD31R,0.07480X0.07087*%
%ADD32R,0.05315X0.01575*%
%ADD33R,0.03937X0.01181*%
%ADD34R,0.02362X0.01181*%
%ADD35R,0.03937X0.01575*%
%ADD36R,0.02920X0.02126*%
%ADD37R,0.00984X0.02559*%
%ADD38R,0.04724X0.02362*%
%ADD39R,0.02362X0.03347*%
%ADD40R,0.03937X0.03347*%
%ADD41R,0.05800X0.02000*%
%ADD42R,0.02000X0.05800*%
%ADD43R,0.05512X0.04232*%
%ADD44C,0.07874*%
%ADD50C,0.02000*%
D10*
X142811Y137811D02*
D03*
X142811Y133874D02*
D03*
Y129937D02*
D03*
X142811Y126000D02*
D03*
Y122063D02*
D03*
X138874Y137811D02*
D03*
Y133874D02*
D03*
Y129937D02*
D03*
Y126000D02*
D03*
Y122063D02*
D03*
X134937Y137811D02*
D03*
X134937Y133874D02*
D03*
Y129937D02*
D03*
X134937Y126000D02*
D03*
Y122063D02*
D03*
X131000Y137811D02*
D03*
Y133874D02*
D03*
Y129937D02*
D03*
Y126000D02*
D03*
Y122063D02*
D03*
X127063Y137811D02*
D03*
Y133874D02*
D03*
Y129937D02*
D03*
X127063Y126000D02*
D03*
X127063Y122063D02*
D03*
D11*
X261713Y111122D02*
D03*
Y88878D02*
D03*
D12*
X262500Y100000D02*
D03*
D13*
X122205Y84705D02*
D03*
Y86673D02*
D03*
Y88642D02*
D03*
Y90610D02*
D03*
Y92579D02*
D03*
Y94547D02*
D03*
Y96516D02*
D03*
Y98484D02*
D03*
Y100453D02*
D03*
Y102421D02*
D03*
Y104390D02*
D03*
X122205Y106358D02*
D03*
X122205Y108327D02*
D03*
Y110295D02*
D03*
X124173Y84705D02*
D03*
Y86673D02*
D03*
Y88642D02*
D03*
Y90610D02*
D03*
Y92579D02*
D03*
Y94547D02*
D03*
Y96516D02*
D03*
Y98484D02*
D03*
Y100453D02*
D03*
Y102421D02*
D03*
Y104390D02*
D03*
Y106358D02*
D03*
Y108327D02*
D03*
Y110295D02*
D03*
X126142Y84705D02*
D03*
Y86673D02*
D03*
Y88642D02*
D03*
Y90610D02*
D03*
Y92579D02*
D03*
Y94547D02*
D03*
Y96516D02*
D03*
Y98484D02*
D03*
Y100453D02*
D03*
Y102421D02*
D03*
Y104390D02*
D03*
Y106358D02*
D03*
Y108327D02*
D03*
Y110295D02*
D03*
X128110Y84705D02*
D03*
Y86673D02*
D03*
Y88642D02*
D03*
Y106358D02*
D03*
Y108327D02*
D03*
Y110295D02*
D03*
X130079Y84705D02*
D03*
Y86673D02*
D03*
X130079Y88642D02*
D03*
Y106358D02*
D03*
Y108327D02*
D03*
Y110295D02*
D03*
X132047Y84705D02*
D03*
Y86673D02*
D03*
Y88642D02*
D03*
Y106358D02*
D03*
Y108327D02*
D03*
Y110295D02*
D03*
X134016Y84705D02*
D03*
Y86673D02*
D03*
Y88642D02*
D03*
Y106358D02*
D03*
Y108327D02*
D03*
Y110295D02*
D03*
X135984Y84705D02*
D03*
Y86673D02*
D03*
Y88642D02*
D03*
Y106358D02*
D03*
Y108327D02*
D03*
Y110295D02*
D03*
X137953Y84705D02*
D03*
Y86673D02*
D03*
Y88642D02*
D03*
Y106358D02*
D03*
Y108327D02*
D03*
Y110295D02*
D03*
X139921Y84705D02*
D03*
Y86673D02*
D03*
X139921Y88642D02*
D03*
Y106358D02*
D03*
Y108327D02*
D03*
Y110295D02*
D03*
X141890Y84705D02*
D03*
Y86673D02*
D03*
X141890Y88642D02*
D03*
Y106358D02*
D03*
Y108327D02*
D03*
Y110295D02*
D03*
X143858Y84705D02*
D03*
X143858Y86673D02*
D03*
X143858Y88642D02*
D03*
Y90610D02*
D03*
Y92579D02*
D03*
Y94547D02*
D03*
Y96516D02*
D03*
X143858Y98484D02*
D03*
Y100453D02*
D03*
X143858Y102421D02*
D03*
Y104390D02*
D03*
Y106358D02*
D03*
Y108327D02*
D03*
Y110295D02*
D03*
X145827Y84705D02*
D03*
Y86673D02*
D03*
Y88642D02*
D03*
Y90610D02*
D03*
Y92579D02*
D03*
Y94547D02*
D03*
Y96516D02*
D03*
Y98484D02*
D03*
Y100453D02*
D03*
Y102421D02*
D03*
Y104390D02*
D03*
Y106358D02*
D03*
Y108327D02*
D03*
Y110295D02*
D03*
X147795Y84705D02*
D03*
Y86673D02*
D03*
Y88642D02*
D03*
Y90610D02*
D03*
Y92579D02*
D03*
Y94547D02*
D03*
Y96516D02*
D03*
Y98484D02*
D03*
Y100453D02*
D03*
Y102421D02*
D03*
Y104390D02*
D03*
Y106358D02*
D03*
Y108327D02*
D03*
Y110295D02*
D03*
D14*
X92044Y77953D02*
D03*
X90075D02*
D03*
X88107D02*
D03*
X86138D02*
D03*
X84170D02*
D03*
X82201D02*
D03*
X80233D02*
D03*
X78264D02*
D03*
X76296D02*
D03*
X74327D02*
D03*
X72359D02*
D03*
X70390D02*
D03*
X68422D02*
D03*
X66453D02*
D03*
X64485D02*
D03*
X62516D02*
D03*
Y122047D02*
D03*
X64485D02*
D03*
X66453D02*
D03*
X68422D02*
D03*
X70390D02*
D03*
X72359D02*
D03*
X74327D02*
D03*
X76296D02*
D03*
X78264D02*
D03*
X80233D02*
D03*
X82201D02*
D03*
X84170D02*
D03*
X86138D02*
D03*
X88107D02*
D03*
X90075D02*
D03*
X92044D02*
D03*
D15*
X55233Y85236D02*
D03*
Y87205D02*
D03*
Y89173D02*
D03*
Y91142D02*
D03*
Y93110D02*
D03*
Y95079D02*
D03*
Y97047D02*
D03*
Y99016D02*
D03*
Y100984D02*
D03*
Y102953D02*
D03*
Y104921D02*
D03*
Y106890D02*
D03*
Y108858D02*
D03*
Y110827D02*
D03*
Y112795D02*
D03*
Y114764D02*
D03*
X99327D02*
D03*
Y112795D02*
D03*
Y110827D02*
D03*
Y108858D02*
D03*
Y106890D02*
D03*
Y104921D02*
D03*
Y102953D02*
D03*
Y100984D02*
D03*
Y99016D02*
D03*
Y97047D02*
D03*
Y95079D02*
D03*
Y93110D02*
D03*
Y91142D02*
D03*
Y89173D02*
D03*
Y87205D02*
D03*
Y85236D02*
D03*
D16*
X156260Y132618D02*
D03*
X163740D02*
D03*
Y122382D02*
D03*
X160000D02*
D03*
X156260D02*
D03*
X242740Y120882D02*
D03*
X235260D02*
D03*
Y131118D02*
D03*
X239000D02*
D03*
X242740D02*
D03*
D17*
X263413Y128240D02*
D03*
Y124500D02*
D03*
Y120760D02*
D03*
X252587D02*
D03*
Y124500D02*
D03*
Y128240D02*
D03*
D18*
X212000Y127500D02*
D03*
D19*
X218890Y118347D02*
D03*
X216921D02*
D03*
X214953D02*
D03*
X212984D02*
D03*
X211016D02*
D03*
X209047D02*
D03*
X207079D02*
D03*
X205110D02*
D03*
Y136653D02*
D03*
X207079D02*
D03*
X209047D02*
D03*
X211016D02*
D03*
X212984D02*
D03*
X214953D02*
D03*
X216921D02*
D03*
X218890D02*
D03*
X214547Y99783D02*
D03*
X216516D02*
D03*
X218484D02*
D03*
X220453D02*
D03*
X220453Y110216D02*
D03*
X218484D02*
D03*
X216516D02*
D03*
X214547D02*
D03*
D20*
X202847Y120610D02*
D03*
Y122579D02*
D03*
X202847Y124547D02*
D03*
Y126516D02*
D03*
X202847Y128484D02*
D03*
Y130453D02*
D03*
X202847Y132421D02*
D03*
X202847Y134390D02*
D03*
X221153Y134390D02*
D03*
Y132421D02*
D03*
Y130453D02*
D03*
Y128484D02*
D03*
Y126516D02*
D03*
Y124547D02*
D03*
Y122579D02*
D03*
Y120610D02*
D03*
X222716Y102047D02*
D03*
Y104016D02*
D03*
X222716Y105984D02*
D03*
Y107953D02*
D03*
X212283D02*
D03*
Y105984D02*
D03*
Y104016D02*
D03*
Y102047D02*
D03*
D21*
X176732Y136437D02*
D03*
Y134468D02*
D03*
Y132500D02*
D03*
Y130532D02*
D03*
Y128563D02*
D03*
X193268Y136437D02*
D03*
Y134468D02*
D03*
X193268Y132500D02*
D03*
Y130532D02*
D03*
X193268Y128563D02*
D03*
D22*
X217500Y105000D02*
D03*
D23*
X231260Y104823D02*
D03*
X238740D02*
D03*
Y95177D02*
D03*
X235000Y95177D02*
D03*
X231260Y95177D02*
D03*
D24*
X261347Y136500D02*
D03*
X254654D02*
D03*
X236347Y139000D02*
D03*
X229654D02*
D03*
D25*
X157638Y115000D02*
D03*
X162362D02*
D03*
X241638Y138500D02*
D03*
X246362D02*
D03*
X239724Y114500D02*
D03*
X235000D02*
D03*
X224862Y92500D02*
D03*
X220138Y92500D02*
D03*
X235138Y109500D02*
D03*
X239862D02*
D03*
X220138Y87500D02*
D03*
X224862Y87500D02*
D03*
X237638Y90000D02*
D03*
X242362Y90000D02*
D03*
X237638Y85000D02*
D03*
X242362D02*
D03*
D26*
X169000Y122362D02*
D03*
Y117638D02*
D03*
X52500Y68862D02*
D03*
Y64138D02*
D03*
X80000Y68724D02*
D03*
Y64000D02*
D03*
X31000Y135862D02*
D03*
Y131138D02*
D03*
X109500Y122638D02*
D03*
Y127362D02*
D03*
X113500Y122638D02*
D03*
Y127362D02*
D03*
X46000Y114638D02*
D03*
Y119362D02*
D03*
X42000Y114638D02*
D03*
Y119362D02*
D03*
X231500Y126638D02*
D03*
Y131362D02*
D03*
X215000Y92362D02*
D03*
Y87638D02*
D03*
X192500Y116638D02*
D03*
Y121362D02*
D03*
X219500Y67862D02*
D03*
X219500Y63138D02*
D03*
X247500Y85138D02*
D03*
Y89862D02*
D03*
X250000Y95138D02*
D03*
Y99862D02*
D03*
X245000Y95138D02*
D03*
Y99862D02*
D03*
D27*
X67500Y63153D02*
D03*
Y69846D02*
D03*
X95000Y63153D02*
D03*
Y69846D02*
D03*
X75000Y63153D02*
D03*
Y69846D02*
D03*
X102500Y63153D02*
D03*
Y69846D02*
D03*
X43740Y129866D02*
D03*
X36260D02*
D03*
Y138134D02*
D03*
X43740D02*
D03*
X213500Y68846D02*
D03*
Y62154D02*
D03*
D28*
X110000Y62457D02*
D03*
Y69543D02*
D03*
D29*
X27453Y76000D02*
D03*
X21547D02*
D03*
X27453Y69000D02*
D03*
X21547Y69000D02*
D03*
X27453Y62000D02*
D03*
X21547D02*
D03*
X44453D02*
D03*
X38547D02*
D03*
X44453Y69000D02*
D03*
X38547D02*
D03*
X44453Y76000D02*
D03*
X38547D02*
D03*
D30*
X30008Y87795D02*
D03*
Y112205D02*
D03*
D31*
X19969Y85039D02*
D03*
Y114961D02*
D03*
D32*
X30500Y97441D02*
D03*
Y102559D02*
D03*
Y100000D02*
D03*
Y94882D02*
D03*
Y105118D02*
D03*
D33*
X47059Y104984D02*
D03*
X47059Y106953D02*
D03*
X41941Y104984D02*
D03*
D34*
X41154Y103016D02*
D03*
X41154Y101047D02*
D03*
X47846D02*
D03*
X47846Y103016D02*
D03*
D35*
X41941Y107150D02*
D03*
D36*
X44500Y101520D02*
D03*
D37*
X62953Y70102D02*
D03*
X60984D02*
D03*
X59016D02*
D03*
X57047D02*
D03*
X62953Y62898D02*
D03*
X60984D02*
D03*
X59016D02*
D03*
X57047D02*
D03*
X90453Y70102D02*
D03*
X88484D02*
D03*
X86516D02*
D03*
X84547D02*
D03*
X90453Y62898D02*
D03*
X88484D02*
D03*
X86516D02*
D03*
X84547D02*
D03*
D38*
X60000Y66500D02*
D03*
X87500D02*
D03*
D39*
X182500Y122150D02*
D03*
Y115850D02*
D03*
D40*
X178366Y122150D02*
D03*
X186634D02*
D03*
Y115850D02*
D03*
X178366D02*
D03*
D41*
X204600Y100700D02*
D03*
Y97600D02*
D03*
Y94400D02*
D03*
Y91300D02*
D03*
Y88100D02*
D03*
Y85000D02*
D03*
Y81900D02*
D03*
Y78700D02*
D03*
Y75600D02*
D03*
Y72400D02*
D03*
Y69300D02*
D03*
X160400D02*
D03*
Y72400D02*
D03*
Y75600D02*
D03*
Y78700D02*
D03*
Y81900D02*
D03*
Y85000D02*
D03*
Y88100D02*
D03*
Y91300D02*
D03*
Y94400D02*
D03*
Y97600D02*
D03*
Y100700D02*
D03*
D42*
X198200Y62900D02*
D03*
X195100D02*
D03*
X191900D02*
D03*
X188800D02*
D03*
X185600D02*
D03*
X182500D02*
D03*
X179400D02*
D03*
X176200D02*
D03*
X173100D02*
D03*
X169900D02*
D03*
X166800D02*
D03*
Y107100D02*
D03*
X169900D02*
D03*
X173100D02*
D03*
X176200D02*
D03*
X179400D02*
D03*
X182500D02*
D03*
X185600D02*
D03*
X188800D02*
D03*
X191900D02*
D03*
X195100D02*
D03*
X198200D02*
D03*
D43*
X250000Y65266D02*
D03*
Y79734D02*
D03*
X235000Y65266D02*
D03*
Y79734D02*
D03*
D44*
X110000Y100000D02*
D03*
Y90000D02*
D03*
Y110000D02*
D03*
D50*
X725945Y257784D02*
X732609D01*
X729277D01*
Y247787D01*
X737608D02*
X740940D01*
X742606Y249453D01*
Y252786D01*
X740940Y254452D01*
X737608D01*
X735942Y252786D01*
Y249453D01*
X737608Y247787D01*
X745938Y244455D02*
Y254452D01*
X750937D01*
X752603Y252786D01*
Y249453D01*
X750937Y247787D01*
X745938D01*
X765932D02*
Y257784D01*
X770930D01*
X772597Y256118D01*
Y252786D01*
X770930Y251120D01*
X765932D01*
X777595Y254452D02*
X780927D01*
X782593Y252786D01*
Y247787D01*
X777595D01*
X775929Y249453D01*
X777595Y251120D01*
X782593D01*
X785925Y247787D02*
X790924D01*
X792590Y249453D01*
X790924Y251120D01*
X787592D01*
X785925Y252786D01*
X787592Y254452D01*
X792590D01*
X797588Y256118D02*
Y254452D01*
X795922D01*
X799255D01*
X797588D01*
Y249453D01*
X799255Y247787D01*
X809251D02*
X805919D01*
X804253Y249453D01*
Y252786D01*
X805919Y254452D01*
X809251D01*
X810917Y252786D01*
Y251120D01*
X804253D01*
M02*
